<?xml version="1.0" encoding="UTF-8" standalone="no"?><!DOCTYPE svg PUBLIC "-//W3C//DTD SVG 1.1//EN" "http://www.w3.org/Graphics/SVG/1.1/DTD/svg11.dtd"><svg width="100%" height="100%" viewBox="0 0 95 95" version="1.1" xmlns="http://www.w3.org/2000/svg" xmlns:xlink="http://www.w3.org/1999/xlink" xml:space="preserve" xmlns:serif="http://www.serif.com/" style="fill-rule:evenodd;clip-rule:evenodd;stroke-linejoin:round;stroke-miterlimit:2;"><rect id="Artboard1" x="0" y="0" width="94.345" height="94.345" style="fill:none;"/><g><g><path d="M42.089,0.402c-10.084,-0 -18.302,8.218 -18.302,18.301c0,10.084 8.218,18.302 18.302,18.302c10.083,-0 18.301,-8.218 18.301,-18.302c0,-10.083 -8.218,-18.301 -18.301,-18.301Zm-0,4.067c7.885,-0 14.234,6.349 14.234,14.234c0,7.886 -6.349,14.235 -14.234,14.235c-7.886,-0 -14.235,-6.349 -14.235,-14.235c0,-7.885 6.349,-14.234 14.235,-14.234Zm-0,38.636c-9.906,0 -18.88,2.387 -25.515,6.323c-6.634,3.936 -11.089,9.59 -11.089,16.046l0,16.268c0.001,1.115 0.918,2.033 2.034,2.033l50.012,0c2.423,5.958 8.278,10.168 15.092,10.168c8.959,0 16.236,-7.277 16.236,-16.236c0,-6.934 -4.361,-12.878 -10.485,-15.22c-1.128,-5.212 -5.177,-9.74 -10.771,-13.059c-6.635,-3.936 -15.609,-6.323 -25.514,-6.323Zm-0,4.067c9.246,0 17.554,2.274 23.417,5.751c4.13,2.45 6.977,5.417 8.293,8.547c-0.392,-0.028 -0.778,-0.063 -1.176,-0.063c-8.959,0 -16.3,7.341 -16.3,16.3c0,0.682 0.076,1.343 0.159,2.002l-46.93,-0l0,-14.235c0,-4.558 3.257,-9.072 9.12,-12.55c5.862,-3.478 14.171,-5.752 23.417,-5.752Zm30.534,18.302c6.761,-0 12.169,5.471 12.169,12.233c0,6.761 -5.408,12.169 -12.169,12.169c-6.761,0 -12.201,-5.408 -12.201,-12.169c-0,-6.762 5.44,-12.233 12.201,-12.233Zm6.927,6.1c-0.547,0.038 -1.075,0.309 -1.43,0.763l-6.927,8.674l-5.56,-3.972c-0.831,-0.653 -2.181,-0.465 -2.828,0.445c-0.647,0.91 -0.48,2.284 0.477,2.86l7.117,5.084c0.851,0.622 2.121,0.417 2.764,-0.382l8.134,-10.167c0.551,-0.763 0.673,-1.913 -0.191,-2.733c-0.446,-0.415 -1.01,-0.609 -1.556,-0.572Z" style="fill:#835ff1;fill-rule:nonzero;"/></g></g></svg>