<?xml version="1.0" encoding="UTF-8" standalone="no"?><!DOCTYPE svg PUBLIC "-//W3C//DTD SVG 1.1//EN" "http://www.w3.org/Graphics/SVG/1.1/DTD/svg11.dtd"><svg width="100%" height="100%" viewBox="0 0 70 70" version="1.1" xmlns="http://www.w3.org/2000/svg" xmlns:xlink="http://www.w3.org/1999/xlink" xml:space="preserve" xmlns:serif="http://www.serif.com/" style="fill-rule:evenodd;clip-rule:evenodd;stroke-linejoin:round;stroke-miterlimit:2;"><g><g><g><path d="M17.8,47.6c-0.6,-0 -1.3,-0.2 -1.8,-0.6c-1.3,-1 -1.6,-2.9 -0.5,-4.2l10,-12.9c0.5,-0.6 1.2,-1 2,-1.1c0.8,-0.1 1.6,0.1 2.2,0.6l9,7l7.9,-10.2c1,-1.3 2.9,-1.5 4.2,-0.5c1.3,1 1.5,2.9 0.5,4.2l-9.7,12.6c-0.5,0.6 -1.2,1 -2,1.1c-0.8,0.1 -1.6,-0.1 -2.2,-0.6l-9,-7l-8.1,10.5c-0.7,0.7 -1.6,1.1 -2.5,1.1Z" style="fill:#835ff1;fill-rule:nonzero;"/></g><g><path d="M60.2,18.8c-5.2,-0 -9.4,-4.2 -9.4,-9.4c-0,-5.2 4.2,-9.4 9.4,-9.4c5.2,0 9.4,4.2 9.4,9.4c-0,5.2 -4.2,9.4 -9.4,9.4Zm-0,-12.8c-1.9,0 -3.4,1.5 -3.4,3.4c-0,1.9 1.5,3.4 3.4,3.4c1.9,-0 3.4,-1.5 3.4,-3.4c-0,-1.9 -1.5,-3.4 -3.4,-3.4Z" style="fill:#835ff1;fill-rule:nonzero;"/></g><g><path d="M47.8,69.8l-28.6,-0c-11.5,-0 -19.2,-8.1 -19.2,-20.1l-0,-26.9c-0,-12 7.7,-20.1 19.2,-20.1l24.2,-0c1.7,-0 3,1.3 3,3c-0,1.7 -1.3,3 -3,3l-24.2,-0c-8,-0 -13.2,5.5 -13.2,14.1l-0,26.9c-0,8.7 5.1,14.1 13.2,14.1l28.6,-0c8.2,-0 13.2,-5.4 13.2,-14.1l-0,-23.4c-0,-1.7 1.3,-3 3,-3c1.7,-0 3,1.3 3,3l-0,23.4c-0,12.1 -7.7,20.1 -19.2,20.1Z" style="fill:#835ff1;fill-rule:nonzero;"/></g></g></g></svg>