<?xml version="1.0" encoding="UTF-8" standalone="no"?><!DOCTYPE svg PUBLIC "-//W3C//DTD SVG 1.1//EN" "http://www.w3.org/Graphics/SVG/1.1/DTD/svg11.dtd"><svg width="60" height="60" viewBox="0 0 60 60" version="1.1" xmlns="http://www.w3.org/2000/svg" xmlns:xlink="http://www.w3.org/1999/xlink" xml:space="preserve" xmlns:serif="http://www.serif.com/" style="fill-rule:evenodd;clip-rule:evenodd;stroke-linejoin:round;stroke-miterlimit:2;"><g><g><path d="M38.882,28.026c-8.662,0 -15.79,7.128 -15.79,15.79c-0,8.662 7.128,15.79 15.79,15.79c8.662,-0 15.79,-7.128 15.79,-15.79c-0.01,-8.658 -7.132,-15.78 -15.79,-15.79Zm-0,29.606c-7.58,0 -13.816,-6.237 -13.816,-13.816c-0,-7.579 6.236,-13.816 13.816,-13.816c7.579,0 13.816,6.237 13.816,13.816c-0.009,7.576 -6.24,13.808 -13.816,13.816Zm-7.895,-30.593c0.541,0 0.987,-0.445 0.987,-0.986l-0,-13.817c-0,-0.541 -0.446,-0.986 -0.987,-0.986l-19.737,-0c-0.542,-0 -0.987,0.445 -0.987,0.986l-0,34.541c-0,0.541 0.445,0.987 0.987,0.987l8.881,-0c0.542,-0 0.987,-0.446 0.987,-0.987c0,-0.542 -0.445,-0.987 -0.987,-0.987l-7.895,-0l0,-4.935l7.895,0c0.542,0 0.987,-0.445 0.987,-0.986c0,-0.542 -0.445,-0.987 -0.987,-0.987l-7.895,-0l0,-4.935l10.856,0c0.541,0 0.987,-0.445 0.987,-0.986c-0,-0.542 -0.446,-0.987 -0.987,-0.987l-10.856,-0l0,-4.935l18.751,0Zm-18.751,-1.973l0,-4.935l17.764,0l0,4.935l-17.764,-0Zm17.764,-11.843l0,4.935l-17.764,-0l0,-4.935l17.764,0Zm-7.895,37.501l-11.842,0c-1.624,-0.002 -2.959,-1.337 -2.961,-2.96l0,-36.514c0.002,-1.624 1.337,-2.959 2.961,-2.961l21.711,0c1.623,0.002 2.959,1.337 2.96,2.961l0,13.816c0,0.541 0.446,0.987 0.987,0.987c0.542,-0 0.987,-0.446 0.987,-0.987l0,-13.816c-0.003,-2.706 -2.229,-4.931 -4.934,-4.935l-0.987,0l-0,-2.96c-0.002,-1.624 -1.337,-2.959 -2.961,-2.961l-13.816,0c-1.623,0.002 -2.959,1.337 -2.96,2.961l-0,2.96l-0.987,0c-2.706,0.004 -4.931,2.229 -4.935,4.935l0,36.514c0.004,2.705 2.229,4.931 4.935,4.934l11.842,-0c0.541,-0 0.987,-0.446 0.987,-0.987c-0,-0.541 -0.446,-0.987 -0.987,-0.987Zm-8.882,-47.369c0.001,-0.542 0.446,-0.987 0.987,-0.987l13.816,-0c0.542,0 0.987,0.445 0.987,0.987l0,2.96l-15.79,0l0,-2.96Zm25.659,28.619c-6.497,-0 -11.843,5.346 -11.843,11.842c0,6.497 5.346,11.842 11.843,11.842c6.496,0 11.842,-5.345 11.842,-11.842c-0.007,-6.494 -5.348,-11.835 -11.842,-11.842Zm0.987,21.661l-0,-1.924c-0,-0.541 -0.446,-0.987 -0.987,-0.987c-0.542,0 -0.987,0.446 -0.987,0.987l-0,1.924c-4.649,-0.474 -8.358,-4.183 -8.832,-8.832l1.924,-0c0.541,-0 0.987,-0.446 0.987,-0.987c-0,-0.541 -0.446,-0.987 -0.987,-0.987l-1.924,0c0.474,-4.649 4.183,-8.357 8.832,-8.832l-0,1.924c-0,0.542 0.445,0.987 0.987,0.987c0.541,0 0.987,-0.445 0.987,-0.987l-0,-1.924c4.648,0.475 8.357,4.183 8.831,8.832l-1.923,0c-0.542,0 -0.987,0.446 -0.987,0.987c-0,0.541 0.445,0.987 0.987,0.987l1.923,-0c-0.474,4.649 -4.183,8.358 -8.831,8.832Zm1.684,-8.543c0.193,0.186 0.301,0.442 0.301,0.71c0,0.541 -0.445,0.987 -0.986,0.987c-0.268,-0 -0.524,-0.109 -0.71,-0.302l-1.974,-1.973c-0.185,-0.185 -0.289,-0.436 -0.289,-0.698l-0,-3.947c-0,-0.542 0.445,-0.987 0.987,-0.987c0.541,-0 0.987,0.445 0.987,0.987l-0,3.538l1.684,1.685Z" style="fill:#b4b7c9;fill-rule:nonzero;"/></g></g></svg>