<?xml version="1.0" encoding="UTF-8" standalone="no"?><!DOCTYPE svg PUBLIC "-//W3C//DTD SVG 1.1//EN" "http://www.w3.org/Graphics/SVG/1.1/DTD/svg11.dtd"><svg width="100%" height="100%" viewBox="0 0 128 128" version="1.1" xmlns="http://www.w3.org/2000/svg" xmlns:xlink="http://www.w3.org/1999/xlink" xml:space="preserve" xmlns:serif="http://www.serif.com/" style="fill-rule:evenodd;clip-rule:evenodd;stroke-linejoin:round;stroke-miterlimit:2;"><g><path d="M51.5,22c0,6.583 5.417,12 12,12c6.583,0 12,-5.417 12,-12c0,-6.583 -5.417,-12 -12,-12c-6.58,0.007 -11.993,5.42 -12,12Zm12,-8c4.389,0 8,3.611 8,8c0,4.389 -3.611,8 -8,8c-4.389,0 -8,-3.611 -8,-8c0.005,-4.387 3.613,-7.995 8,-8Z" style="fill:#835ff1;fill-rule:nonzero;"/><path d="M104.5,46.08l0,-4.054c0.005,-2.2 -1.799,-4.016 -4,-4.026l-74,0c-2.201,0.01 -4.005,1.826 -4,4.026l0,4.054c-0.005,2.201 1.799,4.017 4,4.026l25,0.02l0,63.772c-0.025,2.222 1.779,4.071 4,4.102l16,0c2.221,-0.031 4.025,-1.88 4,-4.102l-0.001,-63.792l25.001,0c2.201,-0.009 4.005,-1.825 4,-4.026Zm-33,4.046l0,63.772c0,0.062 -0.022,0.094 -0.017,0.102l-6.203,0.004c0.143,-0.276 0.218,-0.583 0.22,-0.894l0,-33.616c0,-1.097 -0.903,-2 -2,-2c-1.097,0 -2,0.903 -2,2l0,33.616c0.002,0.312 0.078,0.619 0.221,0.897l-6.181,0.004c-0.03,-0.03 -0.044,-0.071 -0.04,-0.113l0,-63.772c0.003,-2.199 -1.801,-4.012 -4,-4.02l-25,-0.026l0,-4.08l74,0.026l0,4.08l-25,0c-2.199,0.008 -4.003,1.821 -4,4.02Z" style="fill:#835ff1;fill-rule:nonzero;"/><path d="M65.5,4l0,-2c0,-1.097 -0.903,-2 -2,-2c-1.097,-0 -2,0.903 -2,2l0,2c0,1.097 0.903,2 2,2c1.097,0 2,-0.903 2,-2Z" style="fill:#835ff1;fill-rule:nonzero;"/><path d="M106.073,23.22c0.531,0 1.04,-0.211 1.414,-0.586l1.414,-1.414c0.373,-0.375 0.582,-0.882 0.582,-1.411c0,-1.097 -0.902,-1.999 -1.999,-1.999c-0.529,-0 -1.036,0.209 -1.411,0.582l-1.414,1.414c-0.375,0.375 -0.585,0.884 -0.585,1.414c-0,1.097 0.902,2 1.999,2Z" style="fill:#835ff1;fill-rule:nonzero;"/><path d="M124,61.5c-1.097,0 -2,0.903 -2,2c0,1.097 0.903,2 2,2l2,0c1.097,0 2,-0.903 2,-2c0,-1.097 -0.903,-2 -2,-2l-2,0Z" style="fill:#835ff1;fill-rule:nonzero;"/><path d="M106.78,108.901c0.375,0.374 0.883,0.583 1.412,0.583c1.097,0 1.999,-0.902 1.999,-1.999c0,-0.529 -0.209,-1.037 -0.583,-1.412l-1.414,-1.414c-0.374,-0.373 -0.882,-0.583 -1.411,-0.583c-1.097,0 -2,0.903 -2,2c0,0.529 0.21,1.037 0.583,1.411l1.414,1.414Z" style="fill:#835ff1;fill-rule:nonzero;"/><path d="M62.5,124l0,2c0,1.097 0.903,2 2,2c1.097,0 2,-0.903 2,-2l0,-2c0,-1.097 -0.903,-2 -2,-2c-1.097,0 -2,0.903 -2,2Z" style="fill:#835ff1;fill-rule:nonzero;"/><path d="M20.513,110.194c0.53,0.001 1.039,-0.21 1.414,-0.586l1.414,-1.414c0.372,-0.374 0.582,-0.882 0.582,-1.41c-0,-1.097 -0.903,-2 -2,-2c-0.528,0 -1.036,0.21 -1.41,0.582l-1.414,1.414c-0.375,0.375 -0.586,0.884 -0.586,1.414c0,1.097 0.903,2 2,2Z" style="fill:#835ff1;fill-rule:nonzero;"/><path d="M0,64.5c0,1.097 0.903,2 2,2l2,0c1.097,0 2,-0.903 2,-2c0,-1.097 -0.903,-2 -2,-2l-2,0c-1.097,0 -2,0.903 -2,2Z" style="fill:#835ff1;fill-rule:nonzero;"/><path d="M21.22,23.927c1.097,-0 1.999,-0.903 1.999,-2c0,-0.53 -0.21,-1.039 -0.585,-1.414l-1.414,-1.414c-0.375,-0.374 -0.883,-0.583 -1.412,-0.583c-1.097,-0 -1.999,0.902 -1.999,1.999c-0,0.529 0.209,1.037 0.583,1.412l1.414,1.414c0.374,0.375 0.883,0.586 1.414,0.586Z" style="fill:#835ff1;fill-rule:nonzero;"/><path d="M96.221,15.706c0.67,0.001 1.298,-0.335 1.669,-0.894l1.105,-1.667c0.217,-0.328 0.333,-0.713 0.333,-1.106c0,-1.097 -0.903,-2 -2,-2c-0.67,-0 -1.297,0.336 -1.667,0.895l-1.105,1.667c-0.218,0.327 -0.334,0.712 -0.334,1.105c0,1.097 0.902,1.999 1.999,2l-0,0Z" style="fill:#835ff1;fill-rule:nonzero;"/><path d="M120.242,51.975c0.219,1.075 1.283,1.78 2.359,1.561l1.96,-0.398c0.928,-0.189 1.601,-1.013 1.601,-1.96c0,-1.097 -0.903,-2 -2,-2c-0.134,-0 -0.267,0.013 -0.398,0.04l-1.96,0.398c-1.075,0.219 -1.78,1.283 -1.562,2.359Z" style="fill:#835ff1;fill-rule:nonzero;"/><path d="M112.688,98.39l1.667,1.105c0.328,0.217 0.713,0.333 1.106,0.333c1.097,0 2,-0.903 2,-2c0,-0.67 -0.336,-1.297 -0.895,-1.667l-1.667,-1.105c-0.327,-0.218 -0.712,-0.334 -1.105,-0.334c-1.097,0 -2,0.903 -2,2.001c-0,0.67 0.336,1.296 0.894,1.667Z" style="fill:#835ff1;fill-rule:nonzero;"/><path d="M75.525,120.742c-1.075,0.219 -1.779,1.283 -1.561,2.359l0.398,1.96c0.189,0.928 1.013,1.601 1.96,1.601c1.097,0 2,-0.903 2,-2c0,-0.134 -0.013,-0.267 -0.04,-0.398l-0.398,-1.96c-0.187,-0.929 -1.01,-1.603 -1.956,-1.603c-0.136,0 -0.27,0.014 -0.403,0.041Z" style="fill:#835ff1;fill-rule:nonzero;"/><path d="M29.11,113.188l-1.105,1.667c-0.217,0.328 -0.333,0.713 -0.333,1.106c-0,1.097 0.903,2 2,2c0.67,0 1.297,-0.336 1.667,-0.895l1.105,-1.667c0.218,-0.327 0.334,-0.712 0.334,-1.105c-0,-1.097 -0.903,-2 -2.001,-2c-0.67,-0 -1.296,0.336 -1.667,0.894Z" style="fill:#835ff1;fill-rule:nonzero;"/><path d="M2.836,78.822c0.134,0 0.269,-0.013 0.4,-0.04l1.96,-0.398c0.929,-0.189 1.602,-1.013 1.602,-1.96c-0,-1.097 -0.903,-2 -2,-2c-0.134,-0 -0.267,0.013 -0.399,0.04l-1.96,0.398c-0.928,0.189 -1.602,1.013 -1.602,1.96c0,1.097 0.902,2 1.999,2l-0,0Z" style="fill:#835ff1;fill-rule:nonzero;"/><path d="M10.434,31.839l1.667,1.105c0.327,0.218 0.712,0.334 1.105,0.334c1.097,-0 2,-0.903 2,-2.001c0,-0.67 -0.336,-1.296 -0.894,-1.667l-1.667,-1.105c-0.328,-0.217 -0.713,-0.333 -1.106,-0.333c-1.097,-0 -2,0.903 -2,2c-0,0.67 0.336,1.297 0.895,1.667Z" style="fill:#835ff1;fill-rule:nonzero;"/><path d="M52.638,2.939c-0.189,-0.928 -1.013,-1.601 -1.96,-1.601c-1.097,-0 -2,0.903 -2,2c-0,0.134 0.013,0.267 0.04,0.398l0.398,1.96c0.189,0.929 1.013,1.602 1.96,1.602c1.097,-0 2,-0.903 2,-2c0,-0.134 -0.013,-0.267 -0.04,-0.399l-0.398,-1.96Z" style="fill:#835ff1;fill-rule:nonzero;"/><path d="M85.119,10.029c0.819,0 1.559,-0.503 1.86,-1.264l0.737,-1.86c0.093,-0.234 0.14,-0.484 0.14,-0.736c0,-1.097 -0.902,-2 -2,-2c-0.818,0 -1.558,0.503 -1.859,1.264l-0.736,1.859c-0.093,0.234 -0.14,0.483 -0.14,0.735c0,1.097 0.901,2 1.998,2.002Z" style="fill:#835ff1;fill-rule:nonzero;"/><path d="M119.159,41.546l1.836,-0.794c0.731,-0.316 1.206,-1.04 1.206,-1.836c0,-1.097 -0.903,-2 -2,-2c-0.273,-0 -0.543,0.056 -0.794,0.164l-1.836,0.794c-0.731,0.316 -1.206,1.04 -1.206,1.836c-0,1.097 0.903,2 2,2c0.273,0 0.544,-0.056 0.794,-0.164l0,-0Z" style="fill:#835ff1;fill-rule:nonzero;"/><path d="M118.735,87.479l1.86,0.737c0.234,0.093 0.484,0.14 0.736,0.14c1.097,0 2,-0.902 2,-2c-0,-0.818 -0.503,-1.558 -1.264,-1.859l-1.859,-0.736c-0.234,-0.093 -0.484,-0.141 -0.736,-0.141c-1.097,0 -2,0.903 -2,2c-0,0.819 0.502,1.558 1.263,1.859l0,0Z" style="fill:#835ff1;fill-rule:nonzero;"/><path d="M86.996,117.029c-1.007,0.436 -1.477,1.623 -1.042,2.63l0.794,1.836c0.316,0.731 1.04,1.206 1.836,1.206c1.097,0 2,-0.903 2,-2c0,-0.273 -0.056,-0.543 -0.164,-0.794l-0.794,-1.836c-0.436,-1.006 -1.623,-1.477 -2.63,-1.042Z" style="fill:#835ff1;fill-rule:nonzero;"/><path d="M40.021,119.235l-0.737,1.86c-0.093,0.234 -0.14,0.484 -0.14,0.736c-0,1.097 0.902,2 2,2c0.818,-0 1.558,-0.503 1.859,-1.264l0.736,-1.859c0.093,-0.234 0.141,-0.484 0.141,-0.736c-0,-1.097 -0.903,-2 -2,-2c-0.819,-0 -1.558,0.502 -1.859,1.263l-0,0Z" style="fill:#835ff1;fill-rule:nonzero;"/><path d="M6.8,91.085c0.273,-0 0.542,-0.057 0.793,-0.165l1.836,-0.794c0.731,-0.316 1.206,-1.04 1.206,-1.836c0,-1.097 -0.903,-2 -2,-2c-0.273,-0 -0.544,0.056 -0.794,0.164l-1.836,0.794c-0.731,0.316 -1.206,1.04 -1.206,1.836c-0,1.098 0.903,2.001 2,2.001c0,0 0.001,0 0.001,-0Z" style="fill:#835ff1;fill-rule:nonzero;"/><path d="M6.792,44.239c0.234,0.093 0.484,0.141 0.736,0.141c1.097,-0 2,-0.903 2,-2c0,-0.819 -0.502,-1.558 -1.263,-1.859l-1.86,-0.737c-0.234,-0.093 -0.484,-0.14 -0.736,-0.14c-1.097,-0 -2,0.902 -2,2c0,0.818 0.503,1.558 1.264,1.859l1.859,0.736Z" style="fill:#835ff1;fill-rule:nonzero;"/><path d="M39.211,11.136c1.097,-0.002 1.999,-0.905 1.999,-2.002c-0,-0.273 -0.056,-0.543 -0.164,-0.793l-0.794,-1.836c-0.316,-0.731 -1.04,-1.206 -1.836,-1.206c-1.097,-0 -2,0.903 -2,2c-0,0.273 0.056,0.543 0.164,0.794l0.794,1.836c0.316,0.731 1.04,1.206 1.837,1.207Z" style="fill:#835ff1;fill-rule:nonzero;"/><path d="M114.471,32.311l1.672,-1.099c0.562,-0.37 0.901,-0.999 0.901,-1.672c0,-1.097 -0.903,-2 -2,-2c-0.39,-0 -0.772,0.114 -1.099,0.328l-1.672,1.099c-0.562,0.369 -0.901,0.999 -0.901,1.672c-0,1.097 0.903,2 2,2c0.39,0 0.772,-0.114 1.099,-0.328l-0,-0Z" style="fill:#835ff1;fill-rule:nonzero;"/><path d="M124.315,78.08c1.097,-0.001 1.998,-0.904 1.998,-2c-0,-0.944 -0.669,-1.766 -1.594,-1.958l-1.958,-0.405c-0.135,-0.029 -0.273,-0.043 -0.411,-0.043c-1.097,0 -1.999,0.903 -1.999,2c-0,0.946 0.672,1.769 1.599,1.959l1.958,0.405c0.134,0.028 0.271,0.042 0.407,0.042Z" style="fill:#835ff1;fill-rule:nonzero;"/><path d="M95.763,112.2c-0.917,0.603 -1.176,1.853 -0.574,2.771l1.099,1.672c0.37,0.562 0.999,0.901 1.672,0.901c1.097,0 2.001,-0.903 2.001,-2c-0,-0.39 -0.115,-0.772 -0.329,-1.099l-1.099,-1.672c-0.604,-0.915 -1.853,-1.174 -2.77,-0.573Z" style="fill:#835ff1;fill-rule:nonzero;"/><path d="M49.867,122.45l-0.405,1.958c-0.028,0.135 -0.043,0.273 -0.043,0.411c0,1.097 0.903,1.999 2,1.999c0.946,0 1.77,-0.672 1.959,-1.599l0.405,-1.958c0.029,-0.135 0.043,-0.273 0.043,-0.411c-0,-1.097 -0.903,-1.999 -2,-1.999c-0.946,-0 -1.769,0.672 -1.959,1.599Z" style="fill:#835ff1;fill-rule:nonzero;"/><path d="M11.958,100.46c0.39,-0 0.771,-0.114 1.097,-0.328l1.672,-1.099c0.562,-0.369 0.901,-0.999 0.901,-1.672c0,-1.097 -0.903,-2 -2,-2c-0.39,-0 -0.772,0.114 -1.099,0.328l-1.672,1.099c-0.562,0.37 -0.902,0.999 -0.902,1.672c0,1.097 0.903,2 2,2c0.001,0 0.002,0 0.003,-0Z" style="fill:#835ff1;fill-rule:nonzero;"/><path d="M0.729,51.515c-0.028,0.133 -0.042,0.27 -0.042,0.406c-0,0.944 0.669,1.766 1.594,1.957l1.958,0.405c0.132,0.027 0.266,0.041 0.4,0.041c1.097,-0 2,-0.903 2,-2c-0,-0.942 -0.667,-1.763 -1.589,-1.957l-1.958,-0.405c-0.134,-0.028 -0.269,-0.042 -0.406,-0.042c-0.944,0 -1.766,0.67 -1.957,1.595Z" style="fill:#835ff1;fill-rule:nonzero;"/><path d="M30.141,16.128c1.096,-0.001 1.999,-0.903 1.999,-2c-0,-0.39 -0.115,-0.772 -0.329,-1.099l-1.099,-1.672c-0.37,-0.562 -0.999,-0.901 -1.672,-0.901c-1.097,-0 -2,0.903 -2,2c-0,0.39 0.114,0.772 0.328,1.099l1.099,1.672c0.37,0.562 1,0.902 1.674,0.901Z" style="fill:#835ff1;fill-rule:nonzero;"/><path d="M75.177,7.145c0.944,-0.001 1.765,-0.671 1.956,-1.595l0.405,-1.958c0.027,-0.132 0.041,-0.266 0.041,-0.4c-0,-1.097 -0.903,-2 -2,-2c-0.943,0 -1.763,0.667 -1.957,1.589l-0.405,1.958c-0.028,0.133 -0.041,0.268 -0.041,0.404c-0,1.098 0.903,2.001 2.001,2.002l-0,-0Z" style="fill:#835ff1;fill-rule:nonzero;"/></g></svg>