<?xml version="1.0" encoding="UTF-8" standalone="no"?><!DOCTYPE svg PUBLIC "-//W3C//DTD SVG 1.1//EN" "http://www.w3.org/Graphics/SVG/1.1/DTD/svg11.dtd"><svg width="60" height="60" viewBox="0 0 60 60" version="1.1" xmlns="http://www.w3.org/2000/svg" xmlns:xlink="http://www.w3.org/1999/xlink" xml:space="preserve" xmlns:serif="http://www.serif.com/" style="fill-rule:evenodd;clip-rule:evenodd;stroke-linejoin:round;stroke-miterlimit:2;"><g><path d="M0.315,22.672c0.044,0.725 0.652,1.297 1.377,1.297c0.757,0 1.38,-0.622 1.38,-1.379c-0,-0.028 -0.001,-0.055 -0.003,-0.083c-0.286,-4.462 1.322,-8.845 4.427,-12.062c2.823,-2.911 6.714,-4.55 10.769,-4.538c3.063,0 6.761,2.018 10.678,5.832c0.596,0.586 1.566,0.586 2.162,0c3.163,-3.232 7.472,-5.095 11.994,-5.184l0.103,-0c3.504,-0.029 6.872,1.377 9.315,3.89c5.884,6.152 5.884,15.976 0,22.128l-22.128,21.344c-0.237,0.233 -0.624,0.233 -0.861,-0l-15.147,-14.631c-0.256,-0.248 -0.6,-0.387 -0.957,-0.387c-0.756,0 -1.378,0.622 -1.378,1.378c0,0.374 0.152,0.732 0.421,0.992l15.147,14.63c1.297,1.263 3.393,1.263 4.689,0l22.211,-21.377c6.943,-7.218 6.943,-18.788 0,-26.005c-2.952,-3.044 -7.024,-4.751 -11.264,-4.723c-4.896,0.024 -9.614,1.865 -13.233,5.164c-4.193,-3.863 -8.145,-5.805 -11.752,-5.805c-4.798,-0.012 -9.4,1.931 -12.738,5.378c-3.647,3.769 -5.54,8.907 -5.212,14.141Z" style="fill:#b4b7c9;fill-rule:nonzero;"/><path d="M9.603,33.716c0.484,-0.008 0.929,-0.27 1.171,-0.688l2.244,-3.643l3.05,4.861c0.252,0.402 0.693,0.646 1.167,0.646c0.568,0 1.079,-0.351 1.284,-0.88l4.007,-10.327l3.698,14.644c0.139,0.554 0.609,0.967 1.177,1.033l0.158,-0c0.511,-0 0.981,-0.285 1.219,-0.737l4.592,-8.799l1.756,3.133c0.247,0.427 0.705,0.69 1.198,0.688l6.396,0c0.755,0 1.377,-0.621 1.377,-1.377c0,-0.755 -0.622,-1.377 -1.377,-1.377l-5.577,0l-2.609,-4.654c-0.247,-0.427 -0.705,-0.691 -1.198,-0.689c-0.537,-0.001 -1.028,0.312 -1.253,0.799l-4.131,7.856l-3.808,-15.326c-0.156,-0.607 -0.707,-1.035 -1.333,-1.035c-0.566,0 -1.077,0.349 -1.283,0.876l-4.592,11.774l-2.754,-4.413c-0.251,-0.401 -0.691,-0.646 -1.164,-0.648c-0.483,0.008 -0.929,0.27 -1.17,0.689l-3.009,4.874l-4.882,0c-0.755,0 -1.377,0.622 -1.377,1.377c0,0.756 0.622,1.377 1.377,1.377l5.646,-0.034Z" style="fill:#b4b7c9;fill-rule:nonzero;"/></g></svg>