<?xml version="1.0" encoding="UTF-8" standalone="no"?><!DOCTYPE svg PUBLIC "-//W3C//DTD SVG 1.1//EN" "http://www.w3.org/Graphics/SVG/1.1/DTD/svg11.dtd"><svg width="100%" height="100%" viewBox="0 0 95 95" version="1.1" xmlns="http://www.w3.org/2000/svg" xmlns:xlink="http://www.w3.org/1999/xlink" xml:space="preserve" xmlns:serif="http://www.serif.com/" style="fill-rule:evenodd;clip-rule:evenodd;stroke-linejoin:round;stroke-miterlimit:2;"><path d="M10.262,1.25c-0,-0.691 0.558,-1.25 1.25,-1.25c0.691,-0 1.25,0.559 1.25,1.25l-0,80.824l80.824,-0c0.691,-0 1.25,0.559 1.25,1.25c-0,0.691 -0.559,1.25 -1.25,1.25l-80.824,-0l-0,9.008c-0,0.691 -0.559,1.25 -1.25,1.25c-0.692,-0 -1.25,-0.559 -1.25,-1.25l-0,-9.008l-9.012,-0c-0.691,-0 -1.25,-0.559 -1.25,-1.25c0,-0.691 0.559,-1.25 1.25,-1.25l9.008,-0l0.004,-80.824Zm31.258,8.949c-2.528,-3.773 -5.348,-5.66 -10.391,-5.66c-3.18,-0 -6.067,1.129 -8.164,2.953c-2.145,1.867 -3.473,4.457 -3.473,7.332c-0,2.52 0.73,5.016 2,7.488l-1.551,0c-0.691,0 -1.25,0.559 -1.25,1.25c0,0.692 0.559,1.25 1.25,1.25l3.012,0c3.976,6.082 10.848,12.062 17.719,18.039c0.476,0.442 1.215,0.442 1.691,0c10.594,-9.214 21.18,-18.434 21.18,-28.027c0,-2.871 -1.328,-5.464 -3.472,-7.332c-2.098,-1.824 -4.985,-2.953 -8.165,-2.953c-2.867,0 -5.043,0.641 -6.882,1.918c-1.328,0.926 -2.446,2.172 -3.504,3.742l-0,0Zm4.933,-1.687c-1.453,1.011 -2.64,2.57 -3.847,4.664c-0.106,0.191 -0.266,0.355 -0.469,0.472c-0.598,0.344 -1.356,0.137 -1.699,-0.46c-2.356,-4.098 -4.688,-6.149 -9.309,-6.149c-2.555,0 -4.863,0.895 -6.523,2.34c-1.614,1.406 -2.614,3.332 -2.614,5.445c0,2.469 0.864,4.965 2.34,7.489l9.652,-0c0.504,-0 0.942,0.3 1.137,0.73l2.465,4.269l2.426,-9.058c0.179,-0.664 0.863,-1.063 1.527,-0.883c0.352,0.094 0.629,0.332 0.785,0.633l3.774,6.535l7.117,0c0.691,0 1.25,0.559 1.25,1.25c-0,0.692 -0.559,1.25 -1.25,1.25l-7.836,0l-0,-0.004c-0.43,0 -0.848,-0.222 -1.078,-0.621l-2.656,-4.602l-2.426,9.055l-0.004,0c-0.082,0.309 -0.281,0.586 -0.582,0.758c-0.598,0.344 -1.356,0.137 -1.699,-0.461l-3.668,-6.352l-7.286,0c3.723,5.102 9.582,10.281 15.535,15.465c9.891,-8.609 19.523,-17.215 19.523,-25.453c0,-2.113 -1,-4.043 -2.613,-5.445c-1.66,-1.445 -3.969,-2.34 -6.523,-2.34c-2.321,0 -4.043,0.493 -5.449,1.473l0,-0Zm26.141,68.082l0,-8.11c0,-0.691 0.559,-1.25 1.25,-1.25l0.641,0l-3.52,-5.726l-3.519,5.726l0.641,0c0.691,0 1.25,0.559 1.25,1.25l-0,8.11l3.257,-0Zm2.504,-6.86l1.629,0c0.692,0 1.25,-0.558 1.25,-1.25c0,-0.254 -0.074,-0.488 -0.203,-0.687l-5.734,-9.328c-0.364,-0.59 -1.133,-0.774 -1.719,-0.41c-0.18,0.109 -0.321,0.257 -0.422,0.425l-5.746,9.344c-0.363,0.59 -0.18,1.36 0.41,1.719c0.203,0.125 0.43,0.184 0.656,0.184l1.629,-0l0,8.109c0,0.691 0.559,1.25 1.25,1.25l5.758,-0c0.691,-0 1.25,-0.559 1.25,-1.25l-0.008,-8.106Zm16.859,-10.613c0,-0.691 -0.558,-1.25 -1.25,-1.25l-5.758,0c-0.691,0 -1.25,0.559 -1.25,1.25l0,8.11l-1.629,-0c-0.222,-0 -0.449,0.058 -0.652,0.183c-0.59,0.36 -0.773,1.133 -0.41,1.719l5.746,9.344c0.102,0.168 0.242,0.316 0.422,0.426c0.59,0.359 1.359,0.179 1.719,-0.41l5.734,-9.329c0.129,-0.195 0.207,-0.433 0.207,-0.687c0,-0.692 -0.558,-1.25 -1.25,-1.25l-1.629,0.008l0,-8.114Zm-2.5,9.364l0,-8.11l-3.258,0l0,8.11c0,0.691 -0.558,1.25 -1.25,1.25l-0.64,-0l3.519,5.726l3.52,-5.726l-0.641,-0c-0.691,-0 -1.25,-0.563 -1.25,-1.25l0,-0Zm-70.477,2.629l8.887,-12.809l9.234,9.324c0.485,0.488 1.274,0.488 1.762,0.004c0.078,-0.079 0.145,-0.164 0.199,-0.258l8.715,-14.965l8.375,8.207c0.492,0.484 1.281,0.476 1.762,-0.016c0.078,-0.082 0.148,-0.172 0.199,-0.265l9.754,-16.258l10.145,10.645c0.476,0.5 1.265,0.519 1.762,0.043c0.074,-0.071 0.14,-0.153 0.195,-0.239l14.617,-20.035c0.406,-0.554 0.281,-1.336 -0.274,-1.738c-0.554,-0.406 -1.335,-0.281 -1.738,0.273l-13.781,18.895l-10.242,-10.75c-0.074,-0.078 -0.164,-0.152 -0.262,-0.211c-0.589,-0.351 -1.355,-0.16 -1.711,0.43l-9.804,16.34l-8.36,-8.191c-0.078,-0.086 -0.175,-0.16 -0.281,-0.223c-0.598,-0.344 -1.359,-0.141 -1.703,0.453l-8.703,14.949l-9.145,-9.234c-0.054,-0.055 -0.113,-0.102 -0.175,-0.149c-0.567,-0.39 -1.344,-0.25 -1.735,0.317l-9.742,14.047c-0.391,0.566 -0.25,1.344 0.316,1.734c0.567,0.391 1.344,0.246 1.735,-0.32l-0.001,-0.001Z" style="fill:#835ff1;"/></svg>