<?xml version="1.0" encoding="UTF-8" standalone="no"?><!DOCTYPE svg PUBLIC "-//W3C//DTD SVG 1.1//EN" "http://www.w3.org/Graphics/SVG/1.1/DTD/svg11.dtd"><svg width="100%" height="100%" viewBox="0 0 94 94" version="1.1" xmlns="http://www.w3.org/2000/svg" xmlns:xlink="http://www.w3.org/1999/xlink" xml:space="preserve" xmlns:serif="http://www.serif.com/" style="fill-rule:evenodd;clip-rule:evenodd;stroke-linejoin:round;stroke-miterlimit:2;"><path d="M92.379,38.078l-10.176,-1.406c-0.762,-2.649 -1.816,-5.195 -3.144,-7.594l6.199,-8.187c0.469,-0.622 0.41,-1.497 -0.141,-2.047l-10.234,-10.234c-0.551,-0.551 -1.422,-0.614 -2.047,-0.141l-8.187,6.199c-2.399,-1.328 -4.949,-2.383 -7.594,-3.144l-1.406,-10.176c-0.11,-0.774 -0.766,-1.348 -1.547,-1.348l-14.477,-0c-0.781,-0 -1.441,0.574 -1.547,1.348l-1.406,10.176c-2.649,0.761 -5.195,1.816 -7.594,3.144l-8.187,-6.195c-0.625,-0.473 -1.497,-0.41 -2.047,0.141l-10.234,10.234c-0.551,0.55 -0.614,1.425 -0.141,2.046l6.199,8.188c-1.328,2.398 -2.383,4.949 -3.144,7.594l-10.176,1.406c-0.774,0.109 -1.348,0.766 -1.348,1.547l-0,14.477c-0,0.781 0.574,1.441 1.348,1.547l10.176,1.406c0.761,2.648 1.816,5.195 3.144,7.594l-6.195,8.187c-0.469,0.621 -0.41,1.496 0.141,2.047l10.234,10.234c0.55,0.551 1.421,0.613 2.046,0.141l8.188,-6.199c2.398,1.328 4.949,2.382 7.594,3.144l1.406,10.176c0.109,0.773 0.766,1.348 1.547,1.348l14.477,-0c0.781,-0 1.441,-0.574 1.547,-1.348l1.406,-10.176c2.648,-0.762 5.195,-1.816 7.594,-3.144l8.187,6.199c0.621,0.468 1.496,0.41 2.047,-0.141l10.234,-10.234c0.551,-0.551 0.613,-1.426 0.141,-2.047l-6.196,-8.187c1.329,-2.399 2.383,-4.946 3.145,-7.594l10.176,-1.406c0.773,-0.11 1.348,-0.766 1.348,-1.547l-0,-14.477c-0,-0.781 -0.575,-1.442 -1.348,-1.547l-0.008,-0.004Zm-1.777,14.66l-9.852,1.363c-0.629,0.086 -1.14,0.547 -1.301,1.161c-0.789,3.07 -2.003,6.003 -3.609,8.714c-0.324,0.547 -0.285,1.235 0.098,1.739l6,7.925l-8.313,8.313l-7.926,-6c-0.507,-0.383 -1.195,-0.422 -1.738,-0.098c-2.711,1.606 -5.644,2.821 -8.715,3.61c-0.613,0.156 -1.07,0.672 -1.16,1.3l-1.363,9.852l-11.754,0l-1.364,-9.852c-0.085,-0.628 -0.546,-1.14 -1.16,-1.3c-3.07,-0.789 -6.004,-2.004 -8.715,-3.61c-0.546,-0.324 -1.234,-0.285 -1.738,0.098l-7.926,6l-8.312,-8.313l6,-7.925c0.383,-0.508 0.422,-1.196 0.098,-1.739c-1.602,-2.711 -2.817,-5.64 -3.61,-8.714c-0.156,-0.614 -0.672,-1.071 -1.301,-1.161l-9.851,-1.363l-0,-11.754l9.851,-1.363c0.629,-0.086 1.141,-0.547 1.301,-1.16c0.789,-3.071 2.004,-6.004 3.61,-8.715c0.324,-0.547 0.285,-1.235 -0.098,-1.739l-6,-7.925l8.312,-8.313l7.926,6c0.504,0.383 1.195,0.422 1.738,0.098c2.711,-1.602 5.641,-2.817 8.715,-3.61c0.614,-0.156 1.071,-0.672 1.16,-1.3l1.364,-9.852l11.754,-0l1.363,9.852c0.086,0.628 0.547,1.14 1.16,1.3c3.071,0.789 6.004,2.004 8.715,3.61c0.543,0.32 1.231,0.281 1.738,-0.098l7.926,-6l8.313,8.313l-6,7.925c-0.383,0.508 -0.422,1.196 -0.098,1.739c1.606,2.711 2.82,5.644 3.609,8.715c0.157,0.613 0.672,1.07 1.301,1.16l9.852,1.363l-0,11.754Z" style="fill:#835ff1;fill-rule:nonzero;"/><path d="M46.852,22.906c-13.211,0 -23.957,10.746 -23.957,23.957c0,4.449 1.242,8.606 3.363,12.18c0.04,0.102 0.11,0.188 0.172,0.281c4.215,6.883 11.781,11.5 20.426,11.5c13.211,0 23.957,-10.746 23.957,-23.957c0,-13.211 -10.746,-23.957 -23.957,-23.957l-0.004,-0.004Zm0,44.789c-7.098,0 -13.367,-3.574 -17.133,-9.008l10.992,-11.004l5.848,5.86c0.586,0.586 1.625,0.586 2.211,-0l9.312,-9.336l0,4.32c0,0.863 0.699,1.563 1.563,1.563c0.863,-0 1.562,-0.7 1.562,-1.563l0,-8.078c0,-0.863 -0.699,-1.563 -1.562,-1.563l-8.078,0c-0.864,0 -1.563,0.7 -1.563,1.563c0,0.863 0.699,1.562 1.563,1.562l4.293,0l-8.196,8.215l-5.847,-5.859c-0.293,-0.293 -0.692,-0.457 -1.106,-0.457c-0.414,-0 -0.812,0.164 -1.105,0.457l-11.504,11.516c-1.321,-2.735 -2.086,-5.789 -2.086,-9.024c-0,-11.488 9.344,-20.832 20.832,-20.832c11.488,0 20.832,9.344 20.832,20.832c-0,11.488 -9.344,20.832 -20.832,20.832l0.004,0.004Z" style="fill:#835ff1;fill-rule:nonzero;"/></svg>