<?xml version="1.0" encoding="UTF-8" standalone="no"?><!DOCTYPE svg PUBLIC "-//W3C//DTD SVG 1.1//EN" "http://www.w3.org/Graphics/SVG/1.1/DTD/svg11.dtd"><svg width="100%" height="100%" viewBox="0 0 98 98" version="1.1" xmlns="http://www.w3.org/2000/svg" xmlns:xlink="http://www.w3.org/1999/xlink" xml:space="preserve" xmlns:serif="http://www.serif.com/" style="fill-rule:evenodd;clip-rule:evenodd;stroke-linejoin:round;stroke-miterlimit:2;"><rect id="Artboard1" x="0" y="0" width="97.576" height="97.576" style="fill:none;"/><g><path d="M59.362,34.128c-1.372,0 -2.5,-1.128 -2.5,-2.5l-0,-4.13c-0,-1.371 1.128,-2.5 2.5,-2.5c1.371,0 2.5,1.129 2.5,2.5l-0,4.13c-0,1.372 -1.129,2.5 -2.5,2.5Zm-2.5,38.86l-0,4.13c-0,1.372 1.128,2.5 2.5,2.5c1.371,0 2.5,-1.128 2.5,-2.5l-0,-4.13c-0,-1.371 -1.129,-2.5 -2.5,-2.5c-1.372,0 -2.5,1.129 -2.5,2.5Zm27.31,-18.19c1.371,0 2.5,-1.128 2.5,-2.5c-0,-1.371 -1.129,-2.5 -2.5,-2.5l-4.13,0c-1.372,0 -2.5,1.129 -2.5,2.5c-0,1.372 1.128,2.5 2.5,2.5l4.13,0Zm-12,10.36c-0.47,0.469 -0.735,1.106 -0.735,1.77c0,0.664 0.265,1.301 0.735,1.77l2.92,2.92c0.469,0.469 1.106,0.733 1.77,0.733c1.373,0 2.503,-1.13 2.503,-2.503c-0,-0.663 -0.264,-1.301 -0.733,-1.77l-2.92,-2.92c-0.969,-0.944 -2.537,-0.939 -3.5,0.01l-0.04,-0.01Zm-26.28,7.29c2.11,1.769 2.648,4.827 1.27,7.21l-1.76,3.05c-1.376,2.384 -4.295,3.444 -6.88,2.5l-2.23,-0.81c-1.349,1.03 -2.825,1.884 -4.39,2.54l-0.41,2.33c-0.475,2.714 -2.855,4.713 -5.61,4.71l-3.53,0c-2.755,0.003 -5.136,-1.996 -5.61,-4.71l-0.41,-2.34c-1.566,-0.656 -3.041,-1.509 -4.39,-2.54l-2.23,0.81c-2.589,0.965 -5.525,-0.089 -6.91,-2.48l-1.74,-3.05c-1.379,-2.383 -0.84,-5.441 1.27,-7.21l1.82,-1.52c-0.212,-1.687 -0.212,-3.393 -0,-5.08l-1.81,-1.53c-2.11,-1.768 -2.649,-4.827 -1.27,-7.21l1.73,-3.05c1.376,-2.384 4.294,-3.444 6.88,-2.5l2.23,0.81c1.356,-1.047 2.841,-1.914 4.42,-2.58l0.41,-2.33c0.491,-2.698 2.867,-4.676 5.61,-4.67l3.52,0c2.755,-0.002 5.135,1.996 5.61,4.71l0.42,2.29c1.565,0.656 3.041,1.51 4.39,2.54l2.23,-0.81c2.585,-0.944 5.504,0.116 6.88,2.5l1.76,3.05c1.378,2.383 0.84,5.442 -1.27,7.21l-1.82,1.52c0.212,1.687 0.212,3.393 -0,5.08l1.82,1.56Zm-3.21,3.83l-2.88,-2.43c-0.703,-0.59 -1.026,-1.521 -0.84,-2.42c0.407,-2.006 0.407,-4.074 -0,-6.08c-0.186,-0.898 0.137,-1.83 0.84,-2.42l2.91,-2.44c0.257,-0.216 0.325,-0.587 0.16,-0.88l-1.76,-3.05c-0.168,-0.291 -0.523,-0.422 -0.84,-0.31l-3.57,1.3c-0.863,0.316 -1.834,0.131 -2.52,-0.48c-1.528,-1.346 -3.315,-2.367 -5.25,-3c-0.87,-0.29 -1.512,-1.037 -1.67,-1.94l-0.66,-3.74c-0.059,-0.332 -0.353,-0.575 -0.69,-0.57l-3.56,0c-0.341,-0.004 -0.636,0.244 -0.69,0.58l-0.66,3.74c-0.158,0.903 -0.801,1.65 -1.67,1.94c-1.939,0.632 -3.729,1.653 -5.26,3c-0.687,0.611 -1.657,0.796 -2.52,0.48l-3.55,-1.3c-0.317,-0.112 -0.672,0.019 -0.84,0.31l-1.77,3.05c-0.169,0.292 -0.101,0.667 0.16,0.88l2.91,2.44c0.702,0.59 1.025,1.522 0.84,2.42c-0.406,2.006 -0.406,4.074 -0,6.08c0.185,0.899 -0.138,1.83 -0.84,2.42l-2.91,2.43c-0.261,0.214 -0.329,0.589 -0.16,0.88l1.76,3.05c0.168,0.291 0.523,0.422 0.84,0.31l3.57,-1.3c0.863,-0.315 1.833,-0.131 2.52,0.48c1.531,1.347 3.321,2.368 5.26,3c0.869,0.291 1.512,1.037 1.67,1.94l0.66,3.74c0.058,0.332 0.352,0.575 0.69,0.57l3.52,0c0.34,0.005 0.635,-0.244 0.69,-0.58l0.66,-3.74c0.158,-0.903 0.8,-1.649 1.67,-1.94c1.939,-0.632 3.729,-1.653 5.26,-3c0.686,-0.611 1.657,-0.795 2.52,-0.48l3.57,1.3c0.317,0.117 0.675,-0.015 0.84,-0.31l1.71,-3.04c0.178,-0.282 0.127,-0.656 -0.12,-0.88l-0,-0.01Zm2.05,-36.1c0.001,0 0.003,0 0.004,0c1.372,0 2.5,-1.128 2.5,-2.5c0,-0.664 -0.264,-1.301 -0.734,-1.77l-2.92,-2.91c-0.47,-0.469 -1.107,-0.733 -1.77,-0.733c-1.373,-0 -2.503,1.13 -2.503,2.503c-0,0.664 0.263,1.301 0.733,1.77l2.92,2.92c0.469,0.469 1.106,0.732 1.77,0.73l-0,-0.01Zm-17.17,22.94l-5.25,5.25l-1.64,-1.64c-0.47,-0.469 -1.107,-0.733 -1.77,-0.733c-1.373,-0 -2.503,1.13 -2.503,2.503c-0,0.664 0.263,1.301 0.733,1.77l3.4,3.4c0.469,0.47 1.106,0.735 1.77,0.735c0.664,-0 1.301,-0.265 1.77,-0.735l7,-7c0.469,-0.469 0.733,-1.106 0.733,-1.77c-0,-1.373 -1.13,-2.503 -2.503,-2.503c-0.664,-0 -1.301,0.264 -1.77,0.733l0.03,-0.01Zm31.8,-18.63c1.204,0.001 2.392,0.282 3.47,0.82l11.21,-11.22c0.469,-0.469 1.106,-0.733 1.77,-0.733c1.373,-0 2.503,1.13 2.503,2.503c-0,0.664 -0.264,1.301 -0.733,1.77l-11.22,11.17c0.531,1.076 0.807,2.26 0.807,3.46c-0,4.29 -3.53,7.82 -7.82,7.82c-4.29,0 -7.82,-3.53 -7.82,-7.82c-0,-4.29 3.53,-7.82 7.82,-7.82c0.004,0 0.008,0 0.013,0l-0,0.05Zm-2.83,7.83c-0,1.553 1.277,2.83 2.83,2.83c1.552,0 2.83,-1.277 2.83,-2.83c-0,-1.552 -1.278,-2.83 -2.83,-2.83c-1.549,0 -2.825,1.271 -2.83,2.82l-0,0.01Zm32.43,-37.22c-0.47,-0.469 -1.107,-0.733 -1.77,-0.733c-1.373,-0 -2.503,1.13 -2.503,2.503c-0,0.664 0.263,1.301 0.733,1.77l2,2l-4.06,4.16c-5.986,-5.274 -13.542,-8.438 -21.5,-9l-0,-7.2l7.23,0c1.371,0 2.5,-1.128 2.5,-2.5c-0,-1.371 -1.129,-2.5 -2.5,-2.5l-19.46,0c-1.372,0 -2.5,1.129 -2.5,2.5c-0,1.372 1.128,2.5 2.5,2.5l7.23,0l-0,7.2c-12.556,0.858 -23.816,8.146 -29.74,19.25c-0.195,0.363 -0.296,0.768 -0.296,1.18c-0,1.372 1.129,2.501 2.501,2.501c0.921,0 1.77,-0.509 2.205,-1.321c5.487,-10.222 16.188,-16.623 27.789,-16.623c17.303,-0 31.54,14.238 31.54,31.54c0,17.302 -14.237,31.54 -31.54,31.54c-2.585,-0 -5.161,-0.318 -7.669,-0.947c-0.2,-0.05 -0.405,-0.075 -0.61,-0.075c-1.38,0 -2.515,1.135 -2.515,2.515c-0,1.15 0.789,2.161 1.905,2.44c2.935,0.744 5.95,1.12 8.978,1.12c20.045,0 36.54,-16.494 36.54,-36.54c-0,-8.852 -3.217,-17.41 -9.048,-24.07l4.1,-4.1l2,2c0.469,0.469 1.106,0.733 1.77,0.733c1.373,0 2.503,-1.13 2.503,-2.503c-0,-0.663 -0.264,-1.301 -0.733,-1.77l-7.58,-7.57Z" style="fill:#835ff1;fill-rule:nonzero;"/></g></svg>