<?xml version="1.0" encoding="UTF-8" standalone="no"?><!DOCTYPE svg PUBLIC "-//W3C//DTD SVG 1.1//EN" "http://www.w3.org/Graphics/SVG/1.1/DTD/svg11.dtd"><svg width="60" height="60" viewBox="0 0 60 60" version="1.1" xmlns="http://www.w3.org/2000/svg" xmlns:xlink="http://www.w3.org/1999/xlink" xml:space="preserve" xmlns:serif="http://www.serif.com/" style="fill-rule:evenodd;clip-rule:evenodd;stroke-linejoin:round;stroke-miterlimit:2;"><g><g><path d="M42.97,11.253c0.427,0.275 1.005,0.156 1.288,-0.266l1.751,-2.663l1.138,1.023c0.171,0.149 0.391,0.232 0.619,0.232c0.328,-0 0.633,-0.171 0.803,-0.451l2.22,-3.757c0.085,-0.144 0.129,-0.307 0.129,-0.474c0,-0.51 -0.419,-0.929 -0.929,-0.929c-0.329,-0 -0.634,0.174 -0.801,0.456l-1.643,2.781l-1.099,-0.986c-0.17,-0.153 -0.392,-0.238 -0.621,-0.238c-0.312,-0 -0.605,0.158 -0.777,0.419l-2.344,3.565c-0.28,0.426 -0.16,1.007 0.266,1.288Z" style="fill:#b4b7c9;fill-rule:nonzero;"/><path d="M30.028,8.507c0.45,0.235 1.014,0.063 1.257,-0.383l1.6,-3.001l1.918,0.806c0.458,0.193 0.994,-0.014 1.203,-0.465l1.81,-3.894c0.057,-0.122 0.087,-0.256 0.087,-0.391c-0,-0.51 -0.42,-0.93 -0.93,-0.93c-0.361,-0 -0.691,0.21 -0.843,0.538l-1.432,3.081l-1.874,-0.788c-0.44,-0.185 -0.956,-0.002 -1.181,0.42l-1.998,3.749c-0.24,0.45 -0.067,1.018 0.383,1.258Z" style="fill:#b4b7c9;fill-rule:nonzero;"/><path d="M16.891,8.245c0.173,0.256 0.462,0.41 0.771,0.41c0.208,-0 0.41,-0.07 0.574,-0.199l1.474,-1.158l2.109,2.806c0.31,0.403 0.892,0.485 1.302,0.185c0.233,-0.175 0.371,-0.451 0.371,-0.743c0,-0.201 -0.066,-0.397 -0.187,-0.558l-2.679,-3.566c-0.175,-0.234 -0.451,-0.371 -0.743,-0.371c-0.208,-0 -0.411,0.069 -0.574,0.198l-1.436,1.127l-1.978,-2.928c-0.173,-0.256 -0.462,-0.41 -0.771,-0.41c-0.509,0 -0.929,0.42 -0.929,0.93c-0,0.185 0.055,0.366 0.159,0.52l2.537,3.757Z" style="fill:#b4b7c9;fill-rule:nonzero;"/><path d="M7.437,14.49c0.31,0.403 0.893,0.485 1.302,0.184c0.233,-0.176 0.371,-0.451 0.371,-0.743c-0,-0.202 -0.066,-0.398 -0.187,-0.559l-1.237,-1.644c-0.175,-0.234 -0.451,-0.372 -0.743,-0.372c-0.51,0 -0.93,0.42 -0.93,0.93c0,0.202 0.066,0.399 0.188,0.56l1.236,1.644Z" style="fill:#b4b7c9;fill-rule:nonzero;"/><path d="M10.982,12.721c0.501,0.089 0.987,-0.243 1.086,-0.742l0.251,-1.331c0.011,-0.057 0.016,-0.115 0.016,-0.173c0,-0.51 -0.42,-0.929 -0.93,-0.929c-0.445,-0 -0.831,0.32 -0.913,0.757l-0.251,1.332c-0.095,0.501 0.24,0.991 0.741,1.086Z" style="fill:#b4b7c9;fill-rule:nonzero;"/><path d="M3.798,16.698c0,0 1.565,0.286 1.622,0.286c0.509,-0 0.929,-0.42 0.929,-0.93c-0,-0.446 -0.322,-0.833 -0.761,-0.914l-1.45,-0.27c-0.056,-0.01 -0.113,-0.015 -0.17,-0.015c-0.51,-0 -0.93,0.419 -0.93,0.929c0,0.446 0.322,0.833 0.76,0.914Z" style="fill:#b4b7c9;fill-rule:nonzero;"/><path d="M54.294,26.089c-0.113,-1.369 -0.607,-2.68 -1.427,-3.782c-1.397,-1.886 -3.61,-3.002 -5.958,-3.002c-0.03,-0 -0.06,-0 -0.09,0c-0.184,-0.701 -0.472,-1.37 -0.854,-1.986c-1.043,-1.684 -2.719,-2.883 -4.651,-3.325c-0.545,-0.121 -1.101,-0.184 -1.659,-0.19c-0.499,0 -1.031,0.013 -1.3,0.511c0,-0 -4.052,7.508 -4.054,7.511c-0.071,0.134 -0.108,0.284 -0.108,0.437c0,0.393 0.247,0.746 0.617,0.881l1.867,0.659l-7.189,8.419l1.632,-6.555c0.115,-0.459 -0.138,-0.935 -0.582,-1.098l-1.858,-0.681l4.413,-10.553c0.19,-0.453 -0.011,-0.983 -0.454,-1.196c-2.732,-1.312 -6.004,-0.829 -8.241,1.216l-0.01,0.011c-0.446,0.408 -0.84,0.869 -1.173,1.373c-1.102,-0.616 -2.344,-0.938 -3.606,-0.935c-1.669,-0.003 -3.291,0.555 -4.604,1.584c-0.491,0.396 -0.932,0.849 -1.313,1.351c-0.107,0.183 -0.228,0.357 -0.361,0.522c-0.214,-0.02 -0.422,-0.03 -0.628,-0.03c-4.045,-0.011 -7.385,3.302 -7.406,7.346c-0,0.295 0.018,0.589 0.055,0.881c-1.717,0.963 -2.782,2.785 -2.779,4.754c0.014,2.073 1.197,3.97 3.052,4.895c-0.122,0.486 -0.183,0.986 -0.182,1.487c0.032,3.402 2.84,6.183 6.242,6.183c0.801,0 1.595,-0.154 2.338,-0.454c0.913,2.569 3.359,4.295 6.085,4.295c1.263,0 2.498,-0.37 3.553,-1.065c0.629,0.718 1.412,1.286 2.289,1.662c1.22,1.092 6.169,5.836 7.086,11.749c0.07,0.451 0.462,0.787 0.919,0.787l4.632,0c0.38,0 0.724,-0.233 0.864,-0.586c0.748,-2.237 0.971,-4.617 0.653,-6.954c0.484,0.067 0.972,0.101 1.461,0.102c5.516,0.027 10.192,-4.222 10.692,-9.715c2.26,-1.136 3.695,-3.455 3.703,-5.984c-0,-0.048 -0.001,-0.096 -0.002,-0.144c0.763,-1.022 1.249,-2.223 1.412,-3.488c0.038,-0.299 0.057,-0.6 0.057,-0.902c0.004,-2.388 -1.169,-4.632 -3.133,-5.991Zm-16.388,31.803l-3.177,-0c-0.858,-4.047 -3.387,-7.707 -5.632,-10.173c1.066,-0.093 2.093,-0.451 2.986,-1.042c1.304,2.41 3.484,4.23 6.087,5.085c0.002,0.014 0,0.028 0.003,0.043c0.334,2.025 0.243,4.098 -0.267,6.087Zm3.659,-7.438c-3.431,0.007 -6.573,-1.972 -8.049,-5.07c0.467,-0.568 0.831,-1.213 1.077,-1.906c1.325,1.03 2.956,1.59 4.635,1.59c2.357,-0 4.583,-1.104 6.01,-2.98c1.464,1.045 3.287,1.46 5.059,1.151c-0.781,4.183 -4.477,7.236 -8.732,7.215Zm13.476,-16.048c-0.711,1.106 -1.812,1.906 -3.084,2.242c-0.44,0.08 -0.763,0.467 -0.763,0.915c0,0.509 0.419,0.929 0.929,0.929c0.643,-0.073 1.261,-0.29 1.809,-0.635c-0.589,2.133 -2.544,3.622 -4.757,3.622c-1.087,0 -2.145,-0.359 -3.007,-1.021c0.271,-0.826 0.425,-1.685 0.458,-2.553c2.229,-0.591 3.798,-2.619 3.808,-4.926c-0,-0.51 -0.42,-0.929 -0.93,-0.929c-0.51,-0 -0.93,0.419 -0.93,0.929c-0.013,1.792 -1.495,3.256 -3.286,3.248c-0.577,0 -1.144,-0.149 -1.645,-0.435c-0.141,-0.081 -0.3,-0.123 -0.462,-0.123c-0.51,-0 -0.93,0.42 -0.93,0.93c-0,0.333 0.179,0.641 0.468,0.807c0.625,0.354 1.318,0.574 2.033,0.645c-0.026,0.344 -0.072,0.686 -0.137,1.024c-0.125,0.633 -0.384,1.231 -0.76,1.755c-1.066,1.491 -2.791,2.378 -4.624,2.378c-1.749,0 -3.403,-0.807 -4.48,-2.185c-0.176,-0.226 -0.446,-0.358 -0.732,-0.358c-0.495,0 -0.908,0.395 -0.929,0.89c-0.136,2.417 -2.162,4.332 -4.583,4.332c-1.574,0 -3.043,-0.81 -3.882,-2.142c-0.173,-0.267 -0.471,-0.429 -0.789,-0.429c-0.23,-0 -0.452,0.085 -0.624,0.238c-0.846,0.775 -1.953,1.205 -3.101,1.205c-2.251,-0 -4.187,-1.656 -4.536,-3.881c0.022,-2.403 1.137,-3.98 3.152,-4.44c0.422,-0.096 0.723,-0.474 0.723,-0.906c-0,-0.199 -0.064,-0.393 -0.183,-0.553c-0.491,-0.662 -0.757,-1.466 -0.757,-2.29c0,-1.223 0.584,-2.376 1.571,-3.099c0.236,-0.175 0.375,-0.452 0.375,-0.746c0,-0.51 -0.419,-0.93 -0.929,-0.93c-0.2,0 -0.394,0.064 -0.555,0.183c-2.148,1.583 -2.913,4.472 -1.83,6.911c-2.053,0.9 -3.264,2.799 -3.412,5.391c-0.635,0.34 -1.343,0.519 -2.063,0.519c-2.379,-0 -4.342,-1.945 -4.365,-4.324c-0,-0.572 0.114,-1.138 0.337,-1.664c0.048,-0.115 0.073,-0.238 0.073,-0.362c0,-0.411 -0.272,-0.775 -0.666,-0.892c-1.534,-0.453 -2.599,-1.865 -2.613,-3.464c0.001,-1.188 0.594,-2.301 1.58,-2.965c0.264,0.517 0.609,0.987 1.022,1.395c0.171,0.153 0.393,0.239 0.623,0.239c0.51,-0 0.929,-0.42 0.929,-0.93c0,-0.262 -0.11,-0.512 -0.304,-0.688c-0.222,-0.229 -0.411,-0.486 -0.563,-0.766c-0.544,-0.969 -0.693,-2.112 -0.415,-3.188c0.603,-2.44 2.794,-4.18 5.308,-4.214c-0.131,0.506 -0.186,1.028 -0.163,1.55c0.043,0.476 0.447,0.846 0.926,0.846c0.51,-0 0.929,-0.42 0.929,-0.93c0,-0.022 -0.001,-0.044 -0.002,-0.067c0.01,-1.141 0.451,-2.236 1.234,-3.066c1.798,-1.923 4.725,-2.32 6.97,-0.946c-0.168,0.571 -0.242,1.165 -0.218,1.759c0.041,0.478 0.446,0.849 0.925,0.85c0.027,-0 0.054,-0.001 0.081,-0.003c0.478,-0.042 0.85,-0.446 0.85,-0.926c-0,-0.027 -0.002,-0.054 -0.004,-0.081c0.027,-1.274 0.573,-2.485 1.51,-3.349c1.444,-1.323 3.482,-1.794 5.36,-1.236l-4.421,10.572c-0.048,0.113 -0.072,0.235 -0.072,0.359c-0,0.389 0.244,0.738 0.609,0.872l1.987,0.729l-2.384,9.574c-0.018,0.074 -0.028,0.149 -0.028,0.225c0,0.51 0.42,0.929 0.93,0.929c0.272,0 0.53,-0.119 0.707,-0.325l10.631,-12.45c0.144,-0.169 0.223,-0.383 0.223,-0.604c0,-0.393 -0.249,-0.746 -0.62,-0.877l-2.119,-0.748l3.286,-6.088c1.796,0.03 3.472,0.926 4.493,2.404c0.723,1.06 0.999,2.364 0.77,3.626c-0.305,1.146 1.46,1.661 1.79,0.503c0.084,-0.338 0.131,-0.684 0.141,-1.032c1.693,0.008 3.294,0.788 4.342,2.118c0.72,0.912 1.127,2.032 1.162,3.193c0.023,0.528 -0.051,1.056 -0.219,1.557c-0.044,0.11 -0.066,0.227 -0.066,0.346c-0,0.51 0.42,0.929 0.93,0.929c0.377,0 0.719,-0.229 0.861,-0.579c0.048,-0.127 0.09,-0.257 0.125,-0.388c1.548,1.621 1.936,4.042 0.972,6.065Z" style="fill:#b4b7c9;fill-rule:nonzero;"/><path d="M51.726,17.463c0.409,0.302 0.992,0.219 1.301,-0.184l1.237,-1.643c0.121,-0.161 0.187,-0.357 0.187,-0.559c-0,-0.51 -0.42,-0.929 -0.93,-0.929c-0.291,-0 -0.566,0.137 -0.742,0.37l-1.237,1.643c-0.121,0.161 -0.187,0.357 -0.187,0.559c0,0.292 0.138,0.568 0.371,0.743Z" style="fill:#b4b7c9;fill-rule:nonzero;"/><path d="M48.887,12.351c-0.437,0.083 -0.757,0.469 -0.757,0.914c-0,0.058 0.005,0.115 0.016,0.172l0.25,1.332c0.083,0.437 0.469,0.757 0.914,0.757c0.511,0 0.931,-0.42 0.931,-0.93c-0,-0.058 -0.006,-0.115 -0.016,-0.172l-0.252,-1.331c-0.095,-0.501 -0.585,-0.836 -1.086,-0.742Z" style="fill:#b4b7c9;fill-rule:nonzero;"/><path d="M54.132,19.013c0.081,0.439 0.467,0.76 0.913,0.76c0.057,0 1.621,-0.285 1.621,-0.285c0.439,-0.082 0.76,-0.468 0.76,-0.914c0,-0.51 -0.419,-0.93 -0.929,-0.93c-0.057,-0 -0.114,0.005 -0.17,0.016l-1.451,0.269c-0.438,0.082 -0.76,0.468 -0.76,0.914c0,0.057 0.005,0.114 0.016,0.17Z" style="fill:#b4b7c9;fill-rule:nonzero;"/></g></g></svg>