<?xml version="1.0" encoding="UTF-8" standalone="no"?><!DOCTYPE svg PUBLIC "-//W3C//DTD SVG 1.1//EN" "http://www.w3.org/Graphics/SVG/1.1/DTD/svg11.dtd"><svg width="100%" height="100%" viewBox="0 0 82 82" version="1.1" xmlns="http://www.w3.org/2000/svg" xmlns:xlink="http://www.w3.org/1999/xlink" xml:space="preserve" xmlns:serif="http://www.serif.com/" style="fill-rule:evenodd;clip-rule:evenodd;"><g><g><circle cx="40.515" cy="40.515" r="8" style="fill:#835ff1;"/><circle cx="51.937" cy="10.643" r="2.5" style="fill:#835ff1;"/><circle cx="21.015" cy="15.015" r="2.5" style="fill:#835ff1;"/><circle cx="8.591" cy="41.047" r="2.5" style="fill:#835ff1;"/><circle cx="13.213" cy="57.171" r="2.5" style="fill:#835ff1;"/><circle cx="19.015" cy="64.015" r="2.5" style="fill:#835ff1;"/><circle cx="50.496" cy="70.843" r="2.5" style="fill:#835ff1;"/><circle cx="70.542" cy="51.435" r="2.5" style="fill:#835ff1;"/><circle cx="70.115" cy="28.245" r="2.5" style="fill:#835ff1;"/><circle cx="26.983" cy="11.581" r="2.5" style="fill:#835ff1;"/><circle cx="35.131" cy="71.991" r="2.5" style="fill:#835ff1;"/><circle cx="19.656" cy="6.261" r="2.5" style="fill:#835ff1;"/><circle cx="62.28" cy="73.96" r="2.5" style="fill:#835ff1;"/><circle cx="51.015" cy="19.015" r="2.5" style="fill:#835ff1;"/><circle cx="62.015" cy="30.015" r="2.5" style="fill:#835ff1;"/><circle cx="20.015" cy="28.015" r="2.5" style="fill:#835ff1;"/><circle cx="18.015" cy="49.015" r="2.5" style="fill:#835ff1;"/><circle cx="32.015" cy="63.015" r="2.5" style="fill:#835ff1;"/><circle cx="57.814" cy="23.545" r="2.5" style="fill:#835ff1;"/><circle cx="60.873" cy="53.05" r="2.5" style="fill:#835ff1;"/><circle cx="34.888" cy="17.075" r="2.5" style="fill:#835ff1;"/><circle cx="49.135" cy="27.21" r="2.5" style="fill:#835ff1;"/><circle cx="28.15" cy="50.33" r="2.5" style="fill:#835ff1;"/><circle cx="40.515" cy="40.515" r="32" style="fill:none;stroke:#835ff1;stroke-width:0.25px;"/><circle cx="40.515" cy="40.515" r="40" style="fill:none;stroke:#835ff1;stroke-width:0.25px;"/><circle cx="40.515" cy="40.515" r="24" style="fill:none;stroke:#835ff1;stroke-width:0.25px;"/><circle cx="40.515" cy="40.515" r="16" style="fill:none;stroke:#835ff1;stroke-width:0.25px;"/></g></g></svg>