<?xml version="1.0" encoding="UTF-8" standalone="no"?><!DOCTYPE svg PUBLIC "-//W3C//DTD SVG 1.1//EN" "http://www.w3.org/Graphics/SVG/1.1/DTD/svg11.dtd"><svg width="60" height="60" viewBox="0 0 60 60" version="1.1" xmlns="http://www.w3.org/2000/svg" xmlns:xlink="http://www.w3.org/1999/xlink" xml:space="preserve" xmlns:serif="http://www.serif.com/" style="fill-rule:evenodd;clip-rule:evenodd;stroke-linejoin:round;stroke-miterlimit:2;"><g><path d="M51.443,49.432l-45.155,-0c-0.511,-0 -0.958,0.447 -0.958,0.958c0,0.511 0.447,0.958 0.958,0.958l45.155,0c0.512,0 0.959,-0.447 0.959,-0.958c-0,-0.511 -0.447,-0.958 -0.959,-0.958Z" style="fill:#b4b7c9;fill-rule:nonzero;"/><path d="M51.443,57.799l-45.155,0c-0.511,0 -0.958,0.447 -0.958,0.959c0,0.511 0.447,0.958 0.958,0.958l45.155,0c0.512,0 0.959,-0.447 0.959,-0.958c-0,-0.512 -0.447,-0.959 -0.959,-0.959Z" style="fill:#b4b7c9;fill-rule:nonzero;"/><path d="M14.721,53.201l0.126,-0c0.382,-0 0.639,-0.255 0.639,-0.64c0,-0.383 -0.254,-0.64 -0.639,-0.64l-0.129,0c-0.383,0 -0.639,0.255 -0.639,0.64c0.002,0.385 0.259,0.64 0.642,0.64Z" style="fill:#b4b7c9;fill-rule:nonzero;"/><path d="M34.52,53.201l0.128,-0c0.383,-0 0.64,-0.255 0.64,-0.64c0,-0.383 -0.254,-0.64 -0.64,-0.64l-0.128,0c-0.383,0 -0.64,0.255 -0.64,0.64c0,0.385 0.257,0.64 0.64,0.64Z" style="fill:#b4b7c9;fill-rule:nonzero;"/><path d="M38.479,53.201l0.128,-0c0.383,-0 0.64,-0.255 0.64,-0.64c-0,-0.383 -0.254,-0.64 -0.64,-0.64l-0.128,0.003c-0.383,-0 -0.64,0.254 -0.64,0.639c0,0.383 0.257,0.638 0.64,0.638l-0,-0Z" style="fill:#b4b7c9;fill-rule:nonzero;"/><path d="M26.598,53.201l0.129,-0c0.383,-0 0.64,-0.255 0.64,-0.64c-0,-0.383 -0.255,-0.64 -0.64,-0.64l-0.129,0c-0.382,0 -0.639,0.255 -0.639,0.64c0.002,0.385 0.257,0.64 0.639,0.64Z" style="fill:#b4b7c9;fill-rule:nonzero;"/><path d="M10.759,53.201l0.128,-0c0.383,-0 0.64,-0.255 0.64,-0.64c-0,-0.383 -0.255,-0.64 -0.64,-0.64l-0.128,0c-0.383,0 -0.64,0.255 -0.64,0.64c0.002,0.385 0.257,0.64 0.64,0.64Z" style="fill:#b4b7c9;fill-rule:nonzero;"/><path d="M18.68,53.201l0.129,-0c0.382,-0 0.639,-0.255 0.639,-0.64c0,-0.383 -0.254,-0.64 -0.639,-0.64l-0.129,0.003c-0.383,-0 -0.64,0.254 -0.64,0.639c0,0.383 0.257,0.638 0.64,0.638l0,-0Z" style="fill:#b4b7c9;fill-rule:nonzero;"/><path d="M22.639,53.201l0.128,-0c0.383,-0 0.64,-0.255 0.64,-0.64c0,-0.383 -0.254,-0.64 -0.64,-0.64l-0.128,0c-0.383,0 -0.64,0.255 -0.64,0.64c0.003,0.385 0.257,0.64 0.64,0.64Z" style="fill:#b4b7c9;fill-rule:nonzero;"/><path d="M30.56,53.201l0.129,-0c0.383,-0 0.64,-0.255 0.64,-0.64c-0,-0.383 -0.255,-0.64 -0.64,-0.64l-0.129,0c-0.382,0 -0.639,0.255 -0.639,0.64c-0,0.385 0.254,0.64 0.639,0.64Z" style="fill:#b4b7c9;fill-rule:nonzero;"/><path d="M42.438,53.201l0.129,-0c0.383,-0 0.639,-0.255 0.639,-0.64c0,-0.383 -0.254,-0.64 -0.639,-0.64l-0.129,0c-0.383,0 -0.639,0.255 -0.639,0.64c0.002,0.385 0.256,0.64 0.639,0.64Z" style="fill:#b4b7c9;fill-rule:nonzero;"/><path d="M50.359,53.201l0.129,-0c0.382,-0 0.639,-0.255 0.639,-0.64c0,-0.383 -0.254,-0.64 -0.639,-0.64l-0.129,0c-0.383,0 -0.64,0.255 -0.64,0.64c0,0.385 0.257,0.64 0.64,0.64Z" style="fill:#b4b7c9;fill-rule:nonzero;"/><path d="M46.4,53.201l0.129,-0c0.383,-0 0.639,-0.255 0.639,-0.64c0,-0.383 -0.254,-0.64 -0.639,-0.64l-0.129,0c-0.383,0 -0.639,0.255 -0.639,0.64c-0,0.385 0.254,0.64 0.639,0.64Z" style="fill:#b4b7c9;fill-rule:nonzero;"/><path d="M6.8,53.201l0.128,-0c0.383,-0 0.64,-0.255 0.64,-0.64c-0,-0.383 -0.254,-0.64 -0.64,-0.64l-0.128,0c-0.383,0 -0.64,0.255 -0.64,0.64c0.003,0.385 0.257,0.64 0.64,0.64Z" style="fill:#b4b7c9;fill-rule:nonzero;"/><path d="M50.359,57.352l0.129,0c0.382,0 0.639,-0.254 0.639,-0.639c0,-0.383 -0.254,-0.64 -0.639,-0.64l-0.129,-0c-0.383,-0 -0.64,0.254 -0.64,0.64c0,0.383 0.257,0.639 0.64,0.639Z" style="fill:#b4b7c9;fill-rule:nonzero;"/><path d="M22.639,57.352l0.128,0c0.383,0 0.64,-0.254 0.64,-0.639c0,-0.383 -0.254,-0.64 -0.64,-0.64l-0.128,-0c-0.383,-0 -0.64,0.254 -0.64,0.64c0.003,0.383 0.257,0.639 0.64,0.639Z" style="fill:#b4b7c9;fill-rule:nonzero;"/><path d="M18.68,57.352l0.129,0c0.382,0 0.639,-0.254 0.639,-0.639c0,-0.383 -0.254,-0.64 -0.639,-0.64l-0.129,0.002c-0.383,0 -0.64,0.255 -0.64,0.64c0,0.381 0.257,0.637 0.64,0.637l0,0Z" style="fill:#b4b7c9;fill-rule:nonzero;"/><path d="M26.598,57.352l0.129,0c0.383,0 0.64,-0.254 0.64,-0.639c-0,-0.383 -0.255,-0.64 -0.64,-0.64l-0.129,-0c-0.382,-0 -0.639,0.254 -0.639,0.64c0.002,0.383 0.257,0.639 0.639,0.639Z" style="fill:#b4b7c9;fill-rule:nonzero;"/><path d="M14.721,57.352l0.126,0c0.382,0 0.639,-0.254 0.639,-0.639c0,-0.383 -0.254,-0.64 -0.639,-0.64l-0.129,-0c-0.383,-0 -0.639,0.254 -0.639,0.64c0.002,0.383 0.259,0.639 0.642,0.639Z" style="fill:#b4b7c9;fill-rule:nonzero;"/><path d="M38.479,57.352l0.128,0c0.383,0 0.64,-0.254 0.64,-0.639c-0,-0.383 -0.254,-0.64 -0.64,-0.64l-0.128,0.002c-0.383,0 -0.64,0.255 -0.64,0.64c0,0.381 0.257,0.637 0.64,0.637l-0,0Z" style="fill:#b4b7c9;fill-rule:nonzero;"/><path d="M34.52,57.352l0.128,0c0.383,0 0.64,-0.254 0.64,-0.639c0,-0.383 -0.254,-0.64 -0.64,-0.64l-0.128,-0c-0.383,-0 -0.64,0.254 -0.64,0.64c0,0.383 0.257,0.639 0.64,0.639Z" style="fill:#b4b7c9;fill-rule:nonzero;"/><path d="M6.8,57.352l0.128,0c0.383,0 0.64,-0.254 0.64,-0.639c-0,-0.383 -0.254,-0.64 -0.64,-0.64l-0.128,-0c-0.383,-0 -0.64,0.254 -0.64,0.64c0.003,0.383 0.257,0.639 0.64,0.639Z" style="fill:#b4b7c9;fill-rule:nonzero;"/><path d="M42.438,57.352l0.129,0c0.383,0 0.639,-0.254 0.639,-0.639c0,-0.383 -0.254,-0.64 -0.639,-0.64l-0.129,-0c-0.383,-0 -0.639,0.254 -0.639,0.64c0.002,0.383 0.256,0.639 0.639,0.639Z" style="fill:#b4b7c9;fill-rule:nonzero;"/><path d="M46.4,57.352l0.129,0c0.383,0 0.639,-0.254 0.639,-0.639c0,-0.383 -0.254,-0.64 -0.639,-0.64l-0.129,-0c-0.383,-0 -0.639,0.254 -0.639,0.64c-0,0.383 0.254,0.639 0.639,0.639Z" style="fill:#b4b7c9;fill-rule:nonzero;"/><path d="M30.56,57.352l0.129,0c0.383,0 0.64,-0.254 0.64,-0.639c-0,-0.383 -0.255,-0.64 -0.64,-0.64l-0.129,-0c-0.382,-0 -0.639,0.254 -0.639,0.64c-0,0.383 0.254,0.639 0.639,0.639Z" style="fill:#b4b7c9;fill-rule:nonzero;"/><path d="M10.759,57.352l0.128,0c0.383,0 0.64,-0.254 0.64,-0.639c-0,-0.383 -0.255,-0.64 -0.64,-0.64l-0.128,-0c-0.383,-0 -0.64,0.254 -0.64,0.64c0.002,0.383 0.257,0.639 0.64,0.639Z" style="fill:#b4b7c9;fill-rule:nonzero;"/><path d="M12.804,55.308c0.383,-0 0.64,-0.255 0.64,-0.64c-0,-0.383 -0.255,-0.64 -0.64,-0.64l-0.128,0c-0.383,0 -0.64,0.255 -0.64,0.64c0,0.383 0.254,0.64 0.64,0.64l0.128,-0Z" style="fill:#b4b7c9;fill-rule:nonzero;"/><path d="M8.845,55.308c0.383,-0 0.639,-0.255 0.639,-0.64c0,-0.383 -0.254,-0.64 -0.639,-0.64l-0.129,0c-0.383,0 -0.639,0.255 -0.639,0.64c-0,0.383 0.254,0.64 0.639,0.64l0.129,-0Z" style="fill:#b4b7c9;fill-rule:nonzero;"/><path d="M32.603,55.308c0.383,-0 0.639,-0.255 0.639,-0.64c0,-0.383 -0.254,-0.64 -0.639,-0.64l-0.129,0c-0.382,0 -0.639,0.255 -0.639,0.64c-0,0.383 0.254,0.64 0.639,0.64l0.129,-0Z" style="fill:#b4b7c9;fill-rule:nonzero;"/><path d="M36.562,55.308c0.383,-0 0.64,-0.255 0.64,-0.64c-0,-0.383 -0.254,-0.64 -0.64,-0.64l-0.128,0c-0.383,0 -0.64,0.255 -0.64,0.64c0,0.383 0.255,0.64 0.64,0.64l0.128,-0Z" style="fill:#b4b7c9;fill-rule:nonzero;"/><path d="M40.524,55.308c0.383,-0 0.64,-0.255 0.64,-0.64c-0,-0.383 -0.254,-0.64 -0.64,-0.64l-0.128,0.003c-0.383,-0 -0.64,0.254 -0.64,0.639c0,0.383 0.255,0.64 0.64,0.64l0.128,-0.002Z" style="fill:#b4b7c9;fill-rule:nonzero;"/><path d="M16.763,55.308c0.383,-0 0.64,-0.255 0.64,-0.64c-0,-0.383 -0.255,-0.64 -0.64,-0.64l-0.128,0c-0.383,0 -0.64,0.255 -0.64,0.64c-0,0.383 0.254,0.64 0.64,0.64l0.128,-0Z" style="fill:#b4b7c9;fill-rule:nonzero;"/><path d="M48.443,55.308c0.382,-0 0.639,-0.255 0.639,-0.64c0,-0.383 -0.254,-0.64 -0.639,-0.64l-0.129,0c-0.383,0 -0.64,0.255 -0.64,0.64c0,0.383 0.255,0.64 0.64,0.64l0.129,-0Z" style="fill:#b4b7c9;fill-rule:nonzero;"/><path d="M44.483,55.308c0.383,-0 0.64,-0.255 0.64,-0.64c-0,-0.383 -0.255,-0.64 -0.64,-0.64l-0.128,0c-0.383,0 -0.64,0.255 -0.64,0.64c-0,0.383 0.254,0.64 0.64,0.64l0.128,-0Z" style="fill:#b4b7c9;fill-rule:nonzero;"/><path d="M20.722,55.308c0.383,-0 0.64,-0.255 0.64,-0.64c0,-0.383 -0.254,-0.64 -0.64,-0.64l-0.125,0.003c-0.383,-0 -0.64,0.254 -0.64,0.639c-0,0.383 0.254,0.64 0.64,0.64l0.125,-0.002Z" style="fill:#b4b7c9;fill-rule:nonzero;"/><path d="M24.684,55.308c0.383,-0 0.64,-0.255 0.64,-0.64c0,-0.383 -0.254,-0.64 -0.64,-0.64l-0.128,0c-0.383,0 -0.64,0.255 -0.64,0.64c0,0.383 0.255,0.64 0.64,0.64l0.128,-0Z" style="fill:#b4b7c9;fill-rule:nonzero;"/><path d="M28.644,55.308c0.383,-0 0.64,-0.255 0.64,-0.64c-0,-0.383 -0.255,-0.64 -0.64,-0.64l-0.128,0c-0.383,0 -0.64,0.255 -0.64,0.64c-0,0.383 0.254,0.64 0.64,0.64l0.128,-0Z" style="fill:#b4b7c9;fill-rule:nonzero;"/><path d="M28.834,35.827c7.088,-0 12.9,-5.812 12.9,-12.9c-0,-1.534 -0.193,-2.747 -0.64,-4.216c-2.423,-6.896 -6.128,-12.711 -11.556,-18.14c-0.383,-0.383 -0.959,-0.383 -1.342,0c-5.811,5.814 -10.793,14.499 -11.752,18.715c-0.254,1.087 -0.447,2.171 -0.511,3.705c0,7.089 5.812,12.836 12.9,12.836l0.001,-0Zm-10.473,-16.03c0.766,-3.833 5.429,-11.752 10.54,-17.181c4.853,5.046 8.175,10.411 10.474,16.669c0.383,1.277 0.512,2.3 0.512,3.641c-0,6.069 -4.918,10.986 -10.987,10.986c-6.068,0 -10.986,-4.853 -10.986,-10.858c0.062,-1.405 0.19,-2.363 0.447,-3.257l0,-0Z" style="fill:#b4b7c9;fill-rule:nonzero;"/><path d="M54.383,26.375l-4.216,-4.152c-0.383,-0.383 -0.958,-0.383 -1.341,-0l-3.834,3.769c-0.382,0.383 -0.382,0.958 0,1.341c0.383,0.383 0.959,0.383 1.342,-0l2.235,-2.235c-1.023,10.282 -9.709,18.329 -20.182,18.267c-9.005,0 -17.052,-6.004 -19.609,-14.627c-0.193,-0.511 -0.701,-0.765 -1.213,-0.639c-0.511,0.192 -0.765,0.701 -0.639,1.213c2.749,9.454 11.561,16.032 21.399,16.032c11.498,-0 21.076,-8.877 22.163,-20.118l2.49,2.49c0.192,0.193 0.447,0.254 0.701,0.254c0.255,0 0.512,-0.064 0.702,-0.254c0.385,-0.383 0.385,-0.958 0.002,-1.341l0,-0Z" style="fill:#b4b7c9;fill-rule:nonzero;"/></g></svg>