<?xml version="1.0" encoding="UTF-8" standalone="no"?><!DOCTYPE svg PUBLIC "-//W3C//DTD SVG 1.1//EN" "http://www.w3.org/Graphics/SVG/1.1/DTD/svg11.dtd"><svg width="100%" height="100%" viewBox="0 0 103 103" version="1.1" xmlns="http://www.w3.org/2000/svg" xmlns:xlink="http://www.w3.org/1999/xlink" xml:space="preserve" xmlns:serif="http://www.serif.com/" style="fill-rule:evenodd;clip-rule:evenodd;stroke-linejoin:round;stroke-miterlimit:2;"><rect id="Artboard1" x="0" y="0" width="102.28" height="102.28" style="fill:none;"/><g><path d="M100.739,57.9c-0.297,-0.325 -0.715,-0.508 -1.157,-0.508c-4.769,-0 -9.336,0.555 -13.66,1.64c1.809,-6.605 2.723,-13.977 2.723,-21.953c0,-0.461 -0.203,-0.898 -0.555,-1.195c-0.351,-0.297 -0.82,-0.422 -1.273,-0.344c-0.383,0.067 -9.52,1.727 -18.727,9.735c-0.75,0.648 -1.473,1.328 -2.18,2.023c-3.062,-12.648 -13.258,-21.906 -13.723,-22.32c-0.593,-0.531 -1.492,-0.531 -2.086,0c-0.468,0.418 -10.664,9.672 -13.723,22.32c-0.703,-0.695 -1.429,-1.375 -2.179,-2.023c-9.207,-8.008 -18.344,-9.668 -18.727,-9.735c-0.453,-0.078 -0.922,0.047 -1.274,0.344c-0.351,0.297 -0.554,0.734 -0.554,1.195c-0,7.977 0.918,15.344 2.722,21.953c-4.328,-1.085 -8.89,-1.64 -13.66,-1.64c-0.437,-0 -0.855,0.187 -1.156,0.508c-0.297,0.324 -0.441,0.757 -0.402,1.195c0.031,0.363 0.859,9 5.445,17.77c6.164,11.793 16.164,18.023 28.922,18.023l31.25,-0c12.758,-0 22.758,-6.234 28.922,-18.023c4.582,-8.766 5.414,-17.406 5.445,-17.77c0.039,-0.438 -0.105,-0.871 -0.402,-1.195l0.009,-0Zm-30.727,-10.156c6.195,-5.43 12.469,-7.774 15.488,-8.657c-0.157,7.68 -1.211,14.719 -3.133,20.977c-2.375,0.789 -4.672,1.743 -6.883,2.875c-5.754,2.946 -10.922,7.043 -15.363,12.188c-3.117,3.61 -5.422,7.196 -7.063,10.195c1.415,-16.133 7.204,-29.023 16.961,-37.57l-0.007,-0.008Zm-18.867,-19.422c2.808,2.847 10.422,11.387 12.145,21.781c-3.196,3.714 -5.86,7.968 -7.961,12.711c-1.832,4.14 -3.227,8.66 -4.188,13.523c-0.961,-4.868 -2.355,-9.383 -4.187,-13.523c-2.098,-4.743 -4.766,-9 -7.961,-12.711c1.715,-10.375 9.34,-18.93 12.148,-21.781l0.004,-0Zm-34.355,10.758c2.992,0.871 9.179,3.179 15.363,8.554c9.832,8.551 15.664,21.477 17.086,37.684c-1.641,-3 -3.95,-6.586 -7.067,-10.195c-4.441,-5.14 -9.609,-9.242 -15.363,-12.188c-2.211,-1.132 -4.508,-2.086 -6.883,-2.875c-1.925,-6.257 -2.976,-13.297 -3.132,-20.977l-0.004,-0.003Zm18.73,52.688c-11.656,-0 -20.438,-5.473 -26.109,-16.266c-3.149,-5.993 -4.438,-12.07 -4.907,-14.953c14.234,0.429 26.078,5.984 35.227,16.531c5.043,5.812 7.895,11.695 9.149,14.695l-13.355,-0l-0.005,-0.007Zm57.359,-16.266c-5.672,10.797 -14.461,16.266 -26.109,16.266l-13.355,-0c1.253,-3 4.105,-8.883 9.148,-14.695c9.148,-10.547 20.992,-16.102 35.227,-16.531c-0.469,2.89 -1.758,8.961 -4.906,14.953l-0.005,0.007Z" style="fill:#835ff1;fill-rule:nonzero;"/><path d="M51.145,18.33c0.863,-0 1.562,-0.7 1.562,-1.563l0,-7.812c0,-0.864 -0.699,-1.563 -1.562,-1.563c-0.864,0 -1.563,0.699 -1.563,1.563l0,7.812c0,0.863 0.699,1.563 1.563,1.563Z" style="fill:#835ff1;fill-rule:nonzero;"/><path d="M38.957,23.954c0.304,0.41 0.773,0.625 1.25,0.625c0.328,-0 0.656,-0.102 0.937,-0.313c0.688,-0.515 0.828,-1.5 0.313,-2.187l-4.688,-6.25c-0.516,-0.688 -1.496,-0.828 -2.187,-0.313c-0.688,0.516 -0.829,1.5 -0.313,2.188l4.688,6.25Z" style="fill:#835ff1;fill-rule:nonzero;"/><path d="M61.145,24.267c0.281,0.211 0.609,0.312 0.937,0.312c0.477,0 0.945,-0.215 1.25,-0.625l4.688,-6.25c0.515,-0.687 0.375,-1.672 -0.313,-2.187c-0.687,-0.516 -1.672,-0.379 -2.187,0.312l-4.688,6.25c-0.516,0.688 -0.375,1.672 0.313,2.188Z" style="fill:#835ff1;fill-rule:nonzero;"/></g></svg>