<?xml version="1.0" encoding="UTF-8" standalone="no"?><!DOCTYPE svg PUBLIC "-//W3C//DTD SVG 1.1//EN" "http://www.w3.org/Graphics/SVG/1.1/DTD/svg11.dtd"><svg width="100%" height="100%" viewBox="0 0 99 101" version="1.1" xmlns="http://www.w3.org/2000/svg" xmlns:xlink="http://www.w3.org/1999/xlink" xml:space="preserve" xmlns:serif="http://www.serif.com/" style="fill-rule:evenodd;clip-rule:evenodd;stroke-linejoin:round;stroke-miterlimit:2;"><g><path id="pXEciyhCY" d="M44.64,100.538c-5.148,-0.272 -10.509,-1.463 -15.341,-3.447c-4.024,-1.647 -4.493,-1.952 -5.321,-3.498c-0.39,-0.725 -0.423,-0.967 -0.429,-2.58c-0.006,-1.582 0.042,-1.856 0.394,-2.535c0.449,-0.857 14.916,-16.044 40.814,-42.873l6.495,-6.719l-2.405,-0.105c-1.323,-0.06 -6.212,0.022 -10.875,-0.139c-10.877,-0.38 -22.286,-0.823 -28.709,-1.107c-2.792,-0.119 -5.1,-0.191 -5.132,-0.159c-0.032,0.032 0.502,0.369 1.197,0.738c4.688,2.549 9.689,6.581 12.622,10.201c2.123,2.638 4.624,7.083 5.392,9.662c0.359,1.225 0.672,2.918 0.675,3.757c0.001,0.484 -0.031,0.516 -0.531,0.518c-0.5,0.002 -0.549,-0.063 -0.988,-1.061c-0.667,-1.499 -2.225,-4.042 -3.636,-5.893c-5.544,-7.322 -13.811,-13.262 -24.087,-17.307c-3.07,-1.2 -3.151,-1.264 -3.092,-2.684c0.045,-1.033 0.077,-1.097 0.608,-1.47l0.563,-0.406l31.545,-0c17.346,0.002 31.867,-0.211 32.254,-0.148c1.05,0.206 1.956,0.913 2.492,1.944c0.423,0.821 0.455,0.999 0.412,2.338c-0.045,0.952 -0.156,1.63 -0.332,1.97c-0.24,0.436 -2.474,2.977 -5.496,6.199c-0.466,0.486 -1.302,1.392 -1.864,2.008c-0.563,0.615 -1.158,1.262 -1.334,1.44c-0.161,0.162 -0.66,0.713 -1.109,1.231c-0.45,0.502 -1.624,1.78 -2.604,2.849c-0.981,1.068 -2.797,3.043 -4.018,4.371c-1.222,1.344 -2.604,2.833 -3.054,3.319c-0.466,0.485 -3.359,3.626 -6.429,6.961c-3.086,3.335 -5.979,6.476 -6.429,6.961c-1.238,1.328 -3.103,3.335 -4.356,4.695c-0.611,0.664 -1.367,1.473 -1.672,1.797c-2.716,2.882 -7.972,8.613 -8.004,8.726c-0.064,0.161 4.071,1.486 5.945,1.899c6.604,1.477 12.268,1.44 18.862,-0.084c17.025,-3.918 30.093,-17.68 33.194,-34.94c1.66,-9.332 0.273,-18.314 -4.212,-27.092c-4.534,-8.89 -12.305,-16.236 -21.485,-20.318c-3.539,-1.569 -7.981,-2.843 -12.146,-3.458c-3.051,-0.441 -7.827,-0.472 -10.811,-0.042c-3.967,0.563 -7.836,1.594 -11.187,2.977c-16.692,6.918 -27.832,22.835 -28.606,40.926c-0.224,5.18 0.815,11.388 2.836,16.915c0.407,1.161 0.799,2.402 0.833,2.789l0.083,0.677l-0.565,0.002c-0.5,0.002 -0.581,-0.062 -0.89,-0.755c-0.195,-0.435 -0.602,-1.353 -0.927,-2.062c-1.204,-2.674 -2.51,-6.994 -3.087,-10.267c-0.642,-3.596 -0.892,-10.388 -0.518,-13.923c1.171,-11.057 5.895,-21.013 13.741,-28.932c9.164,-9.262 21.36,-14.356 34.51,-14.404c7.471,-0.026 13.8,1.177 20.054,3.833c15.837,6.688 26.859,20.735 29.744,37.86c0.709,4.209 0.784,11.647 0.154,15.974c-1.307,8.879 -4.779,17.056 -10.24,23.997c-1.735,2.217 -6.06,6.541 -8.2,8.21c-3.878,2.999 -9.272,6.068 -13.365,7.584c-6.671,2.46 -14.009,3.487 -21.933,3.08Z" style="fill:#c0a800;fill-rule:nonzero;"/></g></svg>