<?xml version="1.0" encoding="UTF-8" standalone="no"?><!DOCTYPE svg PUBLIC "-//W3C//DTD SVG 1.1//EN" "http://www.w3.org/Graphics/SVG/1.1/DTD/svg11.dtd"><svg width="60" height="60" viewBox="0 0 60 60" version="1.1" xmlns="http://www.w3.org/2000/svg" xmlns:xlink="http://www.w3.org/1999/xlink" xml:space="preserve" xmlns:serif="http://www.serif.com/" style="fill-rule:evenodd;clip-rule:evenodd;stroke-linejoin:round;stroke-miterlimit:2;"><g><path d="M17.718,28.421c-0.36,-0.36 -0.945,-0.36 -1.306,0c-0.36,0.361 -0.36,0.946 0,1.306l3.696,3.696c0.18,0.18 0.417,0.27 0.653,0.27c0.237,0 0.473,-0.09 0.654,-0.27c0.36,-0.36 0.36,-0.946 0,-1.306l-3.695,-3.696l-0.002,0Z" style="fill:#b4b7c9;fill-rule:nonzero;"/><path d="M52.304,43.867c-1.236,-0.177 -2.393,-1.473 -3.617,-2.845c-0.45,-0.503 -0.914,-1.023 -1.404,-1.514c-0.893,-0.894 -2.439,-2.763 -2.742,-5.237c-0.3,-2.438 0.698,-4.824 2.965,-7.092c0.466,-0.466 0.654,-1.146 0.529,-1.913c-0.021,-0.126 -0.051,-0.252 -0.086,-0.378l6.949,-6.948c0.36,-0.361 0.36,-0.946 -0,-1.307l-12.234,-12.233c-0.36,-0.361 -0.946,-0.361 -1.306,-0l-9.564,9.563c-0.03,-0.057 -0.048,-0.091 -0.05,-0.096c-0.135,-0.261 -0.388,-0.442 -0.679,-0.487c-0.291,-0.045 -0.586,0.051 -0.794,0.26l-2.772,2.772c-1.833,1.832 -3.685,2.805 -5.83,3.932c-2.154,1.132 -4.596,2.414 -7.395,4.818c-1.161,0.998 -1.828,2.447 -1.828,3.976c0,1.399 0.545,2.714 1.534,3.703l20.146,20.146c1.859,1.859 4.332,2.884 6.961,2.884l15.707,-0c1.528,-0 2.772,-1.244 2.772,-2.772l-0,-1.848c-0,-2.527 -0,-6.345 -7.261,-7.382l-0.001,-0.002Zm-10.294,-37.508l10.927,10.927l-5.933,5.933c-0.433,-0.488 -0.975,-0.911 -1.587,-1.217c-1.588,-0.794 -3.14,-0.396 -4.507,-0.045c-1.683,0.432 -3.012,0.773 -4.492,-0.705c-1.11,-1.11 -2.695,-3.789 -3.705,-5.597l9.297,-9.297l0,0.001Zm-19.482,15.619c2.183,-1.147 4.246,-2.229 6.277,-4.261l1.891,-1.891c0.983,1.802 2.976,5.292 4.416,6.733c2.224,2.224 4.46,1.65 6.257,1.188c1.208,-0.309 2.251,-0.577 3.222,-0.092c0.909,0.454 1.457,1.23 1.598,1.797c0.065,0.265 0.023,0.401 0.01,0.419c-1.273,1.273 -2.161,2.556 -2.734,3.822l-1.041,-0.521c-0.456,-0.229 -1.012,-0.043 -1.24,0.413c-0.227,0.457 -0.042,1.012 0.414,1.24l1.266,0.632c-0.253,1.085 -0.289,2.144 -0.152,3.161l-1.625,0c-0.51,0 -0.923,0.414 -0.923,0.924c-0,0.511 0.413,0.924 0.923,0.924l2.076,0c0.254,0.719 0.59,1.406 0.99,2.055l-1.631,0.815c-0.456,0.229 -0.641,0.783 -0.414,1.239c0.162,0.324 0.489,0.511 0.827,0.511c0.139,-0 0.28,-0.031 0.413,-0.098l1.909,-0.954c0.231,0.27 0.471,0.531 0.72,0.782c0.391,0.39 0.776,0.816 1.153,1.236l-1.153,1.153c-0.36,0.36 -0.36,0.946 0,1.306c0.18,0.18 0.417,0.27 0.654,0.27c0.237,0 0.472,-0.09 0.654,-0.27l1.092,-1.092c1.079,1.12 2.243,2.074 3.667,2.277c4.95,0.707 5.581,2.551 5.662,4.629l-14.771,-0c-2.136,-0 -4.145,-0.832 -5.655,-2.342l-9.285,-9.286c-1.09,-1.089 -1.69,-2.537 -1.69,-4.077c-0,-2.034 -0.792,-3.947 -2.23,-5.386l-5.196,-5.196c1.273,-0.809 2.473,-1.441 3.651,-2.059l-0.002,-0.001Zm34.265,32.042l-15.707,0c-2.136,0 -4.145,-0.831 -5.655,-2.342l-20.146,-20.145c-0.64,-0.64 -0.992,-1.491 -0.992,-2.397c-0,-0.99 0.432,-1.927 1.185,-2.574c0.637,-0.548 1.251,-1.03 1.847,-1.466c0.003,0.004 0.006,0.008 0.01,0.012l5.431,5.431c1.089,1.089 1.69,2.538 1.69,4.078c-0,2.034 0.792,3.946 2.23,5.385l9.285,9.286c1.86,1.859 4.332,2.884 6.962,2.884l14.783,-0l-0,0.923c-0,0.51 -0.415,0.924 -0.924,0.924l0.001,0.001Z" style="fill:#b4b7c9;fill-rule:nonzero;"/><path d="M4.13,40.162l12.011,-0c0.51,-0 0.924,-0.414 0.924,-0.924c-0,-0.511 -0.414,-0.924 -0.924,-0.924l-12.011,0c-0.51,0 -0.924,0.413 -0.924,0.924c0,0.51 0.414,0.924 0.924,0.924Z" style="fill:#b4b7c9;fill-rule:nonzero;"/><path d="M19.836,42.01l-18.478,-0c-0.51,-0 -0.924,0.413 -0.924,0.924c0,0.51 0.414,0.923 0.924,0.923l18.478,0c0.511,0 0.924,-0.413 0.924,-0.923c0,-0.511 -0.413,-0.924 -0.924,-0.924Z" style="fill:#b4b7c9;fill-rule:nonzero;"/><path d="M17.989,45.705l-11.087,0c-0.511,0 -0.924,0.414 -0.924,0.924c-0,0.511 0.413,0.924 0.924,0.924l11.087,0c0.51,0 0.924,-0.413 0.924,-0.924c-0,-0.51 -0.414,-0.924 -0.924,-0.924Z" style="fill:#b4b7c9;fill-rule:nonzero;"/></g></svg>