<?xml version="1.0" encoding="UTF-8" standalone="no"?><!DOCTYPE svg PUBLIC "-//W3C//DTD SVG 1.1//EN" "http://www.w3.org/Graphics/SVG/1.1/DTD/svg11.dtd"><svg width="60" height="60" viewBox="0 0 60 60" version="1.1" xmlns="http://www.w3.org/2000/svg" xmlns:xlink="http://www.w3.org/1999/xlink" xml:space="preserve" xmlns:serif="http://www.serif.com/" style="fill-rule:evenodd;clip-rule:evenodd;stroke-linejoin:round;stroke-miterlimit:2;"><g><g><path d="M51.482,11.509c-9.312,-9.315 -24.308,-10.44 -34.88,-2.619c-1.067,0.789 -2.09,1.67 -3.039,2.619l1.749,1.749c0.863,-0.862 1.79,-1.663 2.761,-2.38c9.596,-7.098 23.207,-6.075 31.663,2.377c8.139,8.14 9.453,21.013 3.119,30.605l2.065,1.364c6.974,-10.569 5.53,-24.747 -3.438,-33.716l-0,0.001Z" style="fill:#b4b7c9;fill-rule:nonzero;"/><path d="M15.312,47.678c-7.62,-7.62 -9.311,-19.525 -4.114,-28.954l-2.167,-1.193c-5.726,10.387 -3.862,23.503 4.532,31.897c5.168,5.169 12.062,7.837 19.003,7.837c5.104,-0 10.233,-1.444 14.709,-4.402l-1.364,-2.065c-9.589,6.334 -22.459,5.023 -30.598,-3.12l-0.001,0Z" style="fill:#b4b7c9;fill-rule:nonzero;"/><rect x="11.491" y="2.735" width="2.473" height="4.653" style="fill:#b4b7c9;fill-rule:nonzero;"/><rect x="0.681" y="13.095" width="4.653" height="2.473" style="fill:#b4b7c9;fill-rule:nonzero;"/><path d="M11.621,21.816l2.464,-0.198l0.371,4.637l-2.464,0.198l-0.371,-4.637Z" style="fill:#b4b7c9;fill-rule:nonzero;"/><path d="M19.294,17.277l0.442,-2.433l4.575,0.835l-0.442,2.433l-4.575,-0.835Z" style="fill:#b4b7c9;fill-rule:nonzero;"/></g></g></svg>