<?xml version="1.0" encoding="UTF-8" standalone="no"?><!DOCTYPE svg PUBLIC "-//W3C//DTD SVG 1.1//EN" "http://www.w3.org/Graphics/SVG/1.1/DTD/svg11.dtd"><svg width="100%" height="100%" viewBox="0 0 93 93" version="1.1" xmlns="http://www.w3.org/2000/svg" xmlns:xlink="http://www.w3.org/1999/xlink" xml:space="preserve" xmlns:serif="http://www.serif.com/" style="fill-rule:evenodd;clip-rule:evenodd;stroke-linejoin:round;stroke-miterlimit:2;"><rect id="Artboard1" x="0" y="0" width="92.343" height="92.343" style="fill:none;"/><path d="M83.241,57.162c-6.851,9.083 -17.701,17.966 -32.252,26.403c-0.507,0.295 -1.071,0.442 -1.638,0.442c-0.564,0 -1.131,-0.147 -1.638,-0.442c-19.348,-11.218 -31.988,-23.07 -37.622,-35.238l-6.374,-0c-1.802,-0 -3.263,-1.461 -3.263,-3.263c0,-1.803 1.461,-3.263 3.263,-3.263l25.081,-0l4.428,-17.347c0.364,-1.43 1.647,-2.439 3.129,-2.457c1.482,-0.013 2.782,0.967 3.176,2.388l8.701,31.351l3.788,-11.682c0.437,-1.347 1.69,-2.257 3.102,-2.257l15.661,-0c1.802,-0 3.263,1.46 3.263,3.263c-0,1.802 -1.461,3.262 -3.263,3.262l-13.29,0l-6.4,19.752c-0.438,1.347 -1.69,2.258 -3.103,2.258l-0.069,-0c-1.439,-0.031 -2.691,-1.001 -3.072,-2.388l-8.325,-30.008l-2.023,7.934c-0.368,1.443 -1.668,2.457 -3.159,2.457l-13.901,-0c5.477,9.598 16.392,19.4 31.918,28.634c12.966,-7.705 22.611,-15.683 28.678,-23.73c5.517,-7.314 7.943,-14.494 7.207,-21.341c-0.871,-8.107 -5.829,-14.577 -12.628,-16.488c-7.02,-1.971 -14.555,1.461 -20.674,9.417c-0.615,0.801 -1.573,1.274 -2.587,1.274c-1.014,-0 -1.967,-0.473 -2.587,-1.274c-6.114,-7.961 -13.65,-11.393 -20.674,-9.417c-6.799,1.912 -11.757,8.385 -12.628,16.488c-0.121,1.127 -0.156,2.28 -0.104,3.423c0.083,1.799 -1.313,3.324 -3.111,3.406c-1.798,0.078 -3.323,-1.313 -3.406,-3.111c-0.065,-1.473 -0.021,-2.96 0.135,-4.411c0.567,-5.278 2.513,-10.149 5.62,-14.092c3.107,-3.939 7.163,-6.699 11.725,-7.982c4.576,-1.287 9.438,-0.992 14.066,0.854c3.931,1.569 7.605,4.186 10.959,7.8c3.354,-3.618 7.029,-6.231 10.959,-7.8c4.628,-1.846 9.49,-2.141 14.066,-0.854c4.563,1.283 8.619,4.043 11.726,7.982c3.111,3.943 5.056,8.818 5.62,14.092c0.918,8.549 -1.937,17.285 -8.485,25.969l0.005,-0.004Z" style="fill:#835ff1;fill-rule:nonzero;"/></svg>