<?xml version="1.0" encoding="UTF-8" standalone="no"?>
<!DOCTYPE svg PUBLIC "-//W3C//DTD SVG 1.1//EN" "http://www.w3.org/Graphics/SVG/1.1/DTD/svg11.dtd">
<svg width="100%" height="100%" viewBox="0 0 100 100" version="1.1" xmlns="http://www.w3.org/2000/svg" xmlns:xlink="http://www.w3.org/1999/xlink" xml:space="preserve" xmlns:serif="http://www.serif.com/" style="fill-rule:evenodd;clip-rule:evenodd;stroke-linejoin:round;stroke-miterlimit:2;">
    <g id="Artboard1" transform="matrix(1.18478,0,0,1.18478,-136.629,-8.37805)">
        <rect x="115.32" y="7.071" width="84.404" height="84.404" style="fill:none;"/>
        <g transform="matrix(3.62492,0,0,3.62492,114.023,5.7743)">
            <path d="M2.25,10.175C2.25,9.761 2.586,9.425 3,9.425C3.414,9.425 3.75,9.761 3.75,10.175L3.75,18.675C3.75,19.918 4.757,20.925 6,20.925L18,20.925C19.243,20.925 20.25,19.918 20.25,18.675L20.25,10.175C20.25,9.761 20.586,9.425 21,9.425C21.414,9.425 21.75,9.761 21.75,10.175L21.75,18.675C21.75,20.746 20.071,22.425 18,22.425L6,22.425C3.929,22.425 2.25,20.746 2.25,18.675L2.25,10.175Z" style="fill:rgb(134,95,241);"/>
            <path d="M12,13.425C12.995,13.425 13.948,13.82 14.652,14.523C15.355,15.227 15.75,16.18 15.75,17.175L15.75,21.675C15.75,22.089 15.414,22.425 15,22.425C14.586,22.425 14.25,22.089 14.25,21.675L14.25,17.175C14.25,16.578 14.013,16.006 13.591,15.584C13.169,15.162 12.597,14.925 12,14.925C11.403,14.925 10.831,15.162 10.409,15.584C9.987,16.006 9.75,16.578 9.75,17.175L9.75,21.675C9.75,22.089 9.414,22.425 9,22.425C8.586,22.425 8.25,22.089 8.25,21.675L8.25,17.175C8.25,16.18 8.645,15.227 9.348,14.523C10.052,13.82 11.005,13.425 12,13.425Z" style="fill:rgb(134,95,241);"/>
            <path d="M8.944,2.325L8.944,7.95C8.944,10.062 7.23,11.775 5.118,11.775C3.927,11.775 2.802,11.226 2.069,10.288C1.336,9.349 1.077,8.126 1.365,6.97L2.16,3.791C2.486,2.488 3.656,1.575 4.998,1.575L8.194,1.575C8.608,1.575 8.944,1.911 8.944,2.325ZM7.444,3.075L4.998,3.075C4.344,3.075 3.774,3.52 3.616,4.154L2.821,7.334C2.644,8.041 2.803,8.79 3.251,9.365C3.7,9.939 4.389,10.275 5.118,10.275C6.402,10.275 7.444,9.234 7.444,7.95L7.444,3.075Z" style="fill:rgb(134,95,241);"/>
            <path d="M15.806,1.575L19.002,1.575C20.344,1.575 21.514,2.488 21.84,3.791L22.635,6.97C22.923,8.126 22.664,9.349 21.931,10.288C21.198,11.226 20.073,11.775 18.882,11.775C16.77,11.775 15.056,10.062 15.056,7.95L15.056,2.325C15.056,1.911 15.392,1.575 15.806,1.575ZM16.556,3.075L16.556,7.95C16.556,9.234 17.598,10.275 18.882,10.275C19.611,10.275 20.3,9.939 20.749,9.365C21.197,8.79 21.356,8.041 21.179,7.334L20.384,4.154C20.226,3.52 19.656,3.075 19.002,3.075L16.556,3.075Z" style="fill:rgb(134,95,241);"/>
            <path d="M8.186,1.575L15.806,1.575C16.005,1.575 16.196,1.654 16.337,1.795C16.478,1.936 16.556,2.127 16.556,2.326L16.551,7.766C16.549,9.981 14.753,11.775 12.539,11.775L11.449,11.775C9.233,11.775 7.436,9.979 7.436,7.763L7.436,2.325C7.436,1.911 7.772,1.575 8.186,1.575ZM8.936,3.075L8.936,7.763C8.936,9.15 10.061,10.275 11.449,10.275L12.539,10.275C13.926,10.275 15.05,9.152 15.051,7.765L15.056,3.075L8.936,3.075Z" style="fill:rgb(134,95,241);"/>
        </g>
    </g>
</svg>
