<?xml version="1.0" encoding="UTF-8" standalone="no"?>
<!DOCTYPE svg PUBLIC "-//W3C//DTD SVG 1.1//EN" "http://www.w3.org/Graphics/SVG/1.1/DTD/svg11.dtd">
<svg width="100%" height="100%" viewBox="0 0 100 100" version="1.1" xmlns="http://www.w3.org/2000/svg" xmlns:xlink="http://www.w3.org/1999/xlink" xml:space="preserve" xmlns:serif="http://www.serif.com/" style="fill-rule:evenodd;clip-rule:evenodd;stroke-linejoin:round;stroke-miterlimit:2;">
    <g id="Artboard1" transform="matrix(1.18478,0,0,1.18478,-136.629,-8.37805)">
        <rect x="115.32" y="7.071" width="84.404" height="84.404" style="fill:none;"/>
        <g transform="matrix(1.18608,0,0,1.18608,98.2116,-10.032)">
            <path d="M83.895,45.555C80.196,44.071 76.196,43.465 72.231,43.786C72.547,39.871 71.965,35.887 70.45,32.109C70.239,31.582 69.696,31.27 69.129,31.348C65.184,31.91 61.419,33.391 58.145,35.645C56.462,32.098 53.966,28.938 50.763,26.426C50.313,26.074 49.685,26.074 49.239,26.426C46.04,28.938 43.54,32.098 41.86,35.645C38.587,33.387 34.821,31.91 30.876,31.348C30.314,31.27 29.767,31.582 29.556,32.109C28.04,35.883 27.458,39.867 27.775,43.785C23.814,43.469 19.81,44.071 16.111,45.555C15.584,45.766 15.267,46.313 15.349,46.875C16.408,54.274 20.525,60.723 26.724,64.777C24.064,65.648 22.841,66.703 22.841,68.078C22.841,69.434 23.822,71.16 31.459,72.496C36.423,73.363 43.01,73.84 50.006,73.84C57.002,73.84 63.588,73.363 68.553,72.496C76.189,71.164 77.17,69.438 77.17,68.078C77.17,66.703 75.947,65.648 73.287,64.777C79.49,60.719 83.603,54.273 84.662,46.875C84.744,46.313 84.428,45.766 83.9,45.555L83.895,45.555ZM68.508,33.95C69.766,37.501 70.129,41.227 69.633,44.856C69.606,44.95 69.594,45.047 69.594,45.149C69.164,47.997 68.203,50.778 66.715,53.36C63.875,58.274 59.449,61.891 54.215,63.708C58.328,59.048 60.625,53.06 60.625,46.696C60.625,43.676 60.106,40.739 59.121,37.985C61.914,35.965 65.121,34.579 68.508,33.946L68.508,33.95ZM50,28.989C52.863,31.434 55.047,34.481 56.43,37.872C56.453,37.966 56.492,38.055 56.543,38.145C57.598,40.825 58.156,43.716 58.156,46.696C58.156,53.571 55.199,59.969 50.004,64.403C44.809,59.97 41.852,53.567 41.852,46.696C41.852,43.716 42.41,40.825 43.461,38.145C43.508,38.055 43.547,37.966 43.574,37.872C44.957,34.481 47.137,31.434 50.004,28.989L50,28.989ZM31.496,33.95C34.883,34.583 38.09,35.97 40.883,37.989C39.898,40.743 39.379,43.677 39.379,46.7C39.379,53.059 41.676,59.052 45.789,63.712C40.551,61.896 36.125,58.278 33.289,53.364C31.801,50.782 30.836,48.001 30.41,45.153C30.406,45.052 30.394,44.954 30.371,44.86C29.875,41.231 30.238,37.505 31.496,33.954L31.496,33.95ZM17.949,47.497C21.199,46.353 24.672,45.946 28.097,46.302C28.62,49.177 29.64,51.981 31.152,54.599C34.331,60.106 39.316,64.146 45.211,66.126C39.769,67.172 34.125,66.251 29.211,63.415C23.258,59.977 19.195,54.215 17.953,47.501L17.949,47.497ZM50,71.368C34.926,71.368 26.762,69.294 25.422,68.091C25.762,67.809 26.82,67.173 29.797,66.505C33.293,68.173 37.055,69.017 40.836,69.017C43.922,69.017 47.02,68.45 50,67.317C52.977,68.45 56.074,69.017 59.164,69.017C62.949,69.017 66.711,68.169 70.203,66.505C73.18,67.173 74.238,67.81 74.578,68.091C73.238,69.294 65.074,71.368 50,71.368L50,71.368ZM70.793,63.411C65.879,66.251 60.234,67.169 54.793,66.122C60.688,64.141 65.672,60.102 68.852,54.595C70.364,51.978 71.383,49.173 71.907,46.298C75.336,45.946 78.805,46.349 82.055,47.493C80.809,54.208 76.746,59.97 70.797,63.407L70.793,63.411Z" style="fill:rgb(134,95,241);fill-rule:nonzero;"/>
        </g>
    </g>
</svg>
