<?xml version="1.0" encoding="UTF-8" standalone="no"?>
<!DOCTYPE svg PUBLIC "-//W3C//DTD SVG 1.1//EN" "http://www.w3.org/Graphics/SVG/1.1/DTD/svg11.dtd">
<svg width="100%" height="100%" viewBox="0 0 100 100" version="1.1" xmlns="http://www.w3.org/2000/svg" xmlns:xlink="http://www.w3.org/1999/xlink" xml:space="preserve" xmlns:serif="http://www.serif.com/" style="fill-rule:evenodd;clip-rule:evenodd;stroke-linejoin:round;stroke-miterlimit:2;">
    <g id="Artboard1" transform="matrix(1.18478,0,0,1.18478,-136.629,-8.37805)">
        <rect x="115.32" y="7.071" width="84.404" height="84.404" style="fill:none;"/>
        <g transform="matrix(0.870655,0,0,0.870655,113.988,5.83851)">
            <g>
                <g>
                    <path d="M40.7,20.5C41.4,20.5 42.1,20.2 42.6,19.7L47.2,15.1L47.2,43.2C47.2,44.7 48.4,45.9 49.9,45.9C51.4,45.9 52.6,44.7 52.6,43.2L52.6,15.1L57.2,19.7C58.3,20.8 60,20.8 61.1,19.7C62.2,18.6 62.2,16.9 61.1,15.8L51.8,6.5C50.7,5.4 49,5.4 47.9,6.5L38.6,15.8C37.5,16.9 37.5,18.6 38.6,19.7C39.3,20.3 40,20.5 40.7,20.5Z" style="fill:rgb(134,95,241);fill-rule:nonzero;"/>
                    <path d="M18.7,86.7L12.4,85L36.7,71C38,70.2 38.5,68.6 37.7,67.2C36.9,65.9 35.3,65.4 33.9,66.2L9.6,80.3L11.3,74C11.7,72.5 10.8,71 9.4,70.6C7.9,70.2 6.4,71.1 6,72.5L2.6,85.3C2.4,86 2.5,86.8 2.9,87.4C3.3,88 3.9,88.5 4.6,88.7L17.3,92C17.5,92.1 17.8,92.1 18,92.1C19.2,92.1 20.3,91.3 20.7,90.1C21,88.6 20.1,87.1 18.7,86.7Z" style="fill:rgb(134,95,241);fill-rule:nonzero;"/>
                    <path d="M52.7,86.7L52.7,62.8L73.5,50.4L73.5,65.3L79,68.5L79,45.5C79,44.5 78.5,43.6 77.7,43.1L57.3,31L57.3,37.4L71,45.5L50,58L29,45.5L42.6,37.4L42.6,31L22.3,43.1C21.5,43.6 21,44.5 21,45.5L21,68.5L26.5,65.3L26.5,50.3L47.3,62.7L47.3,86.6L33.2,78.2L27.7,81.3L48.6,93.7C49,94 49.5,94.1 50,94.1C50.5,94.1 51,94 51.4,93.7L72.3,81.3L66.8,78.2L52.7,86.7Z" style="fill:rgb(134,95,241);fill-rule:nonzero;"/>
                    <path d="M97.4,85.3L94,72.5C93.6,71 92.1,70.2 90.6,70.6C89.1,71 88.3,72.5 88.7,74L90.4,80.3L66,66.2C64.7,65.4 63,65.9 62.2,67.2C61.4,68.5 61.9,70.2 63.2,71L87.6,85L81.3,86.7C79.8,87.1 79,88.6 79.4,90.1C79.7,91.3 80.8,92.1 82.1,92.1C82.3,92.1 82.6,92.1 82.8,92L95.5,88.6C96.2,88.4 96.8,87.9 97.2,87.3C97.5,86.7 97.6,86 97.4,85.3Z" style="fill:rgb(134,95,241);fill-rule:nonzero;"/>
                </g>
            </g>
        </g>
    </g>
</svg>
