<?xml version="1.0" encoding="UTF-8" standalone="no"?>
<!DOCTYPE svg PUBLIC "-//W3C//DTD SVG 1.1//EN" "http://www.w3.org/Graphics/SVG/1.1/DTD/svg11.dtd">
<svg width="100%" height="100%" viewBox="0 0 100 100" version="1.1" xmlns="http://www.w3.org/2000/svg" xmlns:xlink="http://www.w3.org/1999/xlink" xml:space="preserve" xmlns:serif="http://www.serif.com/" style="fill-rule:evenodd;clip-rule:evenodd;stroke-linejoin:round;stroke-miterlimit:2;">
    <g id="Artboard1" transform="matrix(1.18478,0,0,1.18478,-136.629,-8.37805)">
        <rect x="115.32" y="7.071" width="84.404" height="84.404" style="fill:none;"/>
        <g transform="matrix(0.933144,0,0,0.933144,105.862,-6.71189)">
            <g transform="matrix(1,0,0,1,5,10)">
                <path d="M90.633,58.102L84.496,54.559C84.129,54.344 83.899,53.95 83.899,53.524L83.899,45.528C83.899,45.102 84.129,44.703 84.496,44.492L90.34,41.121C91.867,40.239 92.559,38.379 91.985,36.696C91.301,34.688 90.457,32.723 89.477,30.852C88.66,29.293 86.914,28.52 85.227,28.973L78.781,30.699C78.371,30.809 77.926,30.692 77.625,30.391L71.969,24.735C71.668,24.434 71.551,23.993 71.661,23.579L73.329,17.36C73.782,15.672 72.969,13.875 71.395,13.082C69.477,12.114 67.473,11.293 65.438,10.645C63.75,10.106 61.954,10.789 61.075,12.309L57.868,17.864C57.653,18.231 57.258,18.461 56.832,18.461L51.711,18.461L52.411,80.594L56.836,80.594C57.262,80.594 57.661,80.825 57.872,81.192L61.579,87.614C62.25,88.778 63.5,89.462 64.801,89.462C65.196,89.462 65.598,89.399 65.989,89.266C67.934,88.614 69.844,87.809 71.672,86.872C73.227,86.075 74.028,84.282 73.583,82.606L71.672,75.473C71.563,75.063 71.68,74.618 71.981,74.317L77.637,68.661C77.938,68.36 78.379,68.239 78.793,68.352L85.704,70.204C87.407,70.661 89.211,69.837 89.997,68.239C90.918,66.368 91.696,64.419 92.317,62.442C92.836,60.767 92.149,58.978 90.633,58.103L90.633,58.102ZM54.387,34.493C62.231,35.278 68.375,41.915 68.375,49.962C68.375,57.888 62.406,64.435 54.734,65.376L54.387,34.493ZM89.922,61.7C89.34,63.555 88.606,65.387 87.742,67.145C87.484,67.669 86.895,67.946 86.344,67.794L79.434,65.942C78.16,65.598 76.793,65.966 75.863,66.899L70.207,72.555C69.274,73.485 68.91,74.856 69.25,76.126L71.16,83.258C71.309,83.813 71.047,84.383 70.528,84.653C68.813,85.532 67.016,86.29 65.192,86.899C64.637,87.087 64.031,86.86 63.746,86.368L60.039,79.946C59.383,78.805 58.153,78.098 56.84,78.098L54.887,78.098L54.774,67.903C63.821,66.934 70.887,59.263 70.887,49.965C70.887,40.532 63.606,32.777 54.371,31.996L54.246,20.961L56.84,20.961C58.156,20.961 59.383,20.254 60.039,19.114L63.246,13.559C63.531,13.067 64.125,12.844 64.683,13.024C66.593,13.633 68.476,14.406 70.277,15.313C70.797,15.574 71.066,16.16 70.922,16.711L69.254,22.93C68.914,24.203 69.281,25.571 70.211,26.5L75.867,32.156C76.8,33.086 78.168,33.453 79.437,33.113L85.879,31.387C86.425,31.238 86.996,31.496 87.269,32.012C88.191,33.77 88.984,35.613 89.625,37.5C89.812,38.059 89.593,38.668 89.097,38.953L83.254,42.324C82.113,42.981 81.406,44.211 81.406,45.524L81.406,53.52C81.406,54.836 82.113,56.063 83.254,56.719L89.39,60.262C89.875,60.551 90.097,61.141 89.921,61.699L89.922,61.7Z" style="fill:rgb(134,95,241);fill-rule:nonzero;"/>
            </g>
            <g transform="matrix(1,0,0,1,5,10)">
                <path d="M49.504,51.195L49.504,48.695L17.953,48.711C17.394,46.59 15.476,45.011 13.183,45.011C10.453,45.011 8.234,47.234 8.234,49.961C8.234,52.691 10.457,54.91 13.183,54.91C15.48,54.91 17.398,53.332 17.953,51.211L49.504,51.195ZM13.18,52.41C11.828,52.41 10.731,51.308 10.731,49.961C10.731,48.609 11.832,47.511 13.18,47.511C14.532,47.511 15.629,48.613 15.629,49.961C15.633,51.312 14.532,52.41 13.18,52.41Z" style="fill:rgb(134,95,241);fill-rule:nonzero;"/>
            </g>
            <g transform="matrix(1,0,0,1,5,10)">
                <path d="M25.898,39.895C26.937,39.895 27.898,39.571 28.695,39.024L33.156,43.485L49.508,43.469L49.504,40.969L34.192,40.985L30.329,37.122C30.653,36.461 30.852,35.731 30.852,34.946C30.852,32.215 28.629,29.997 25.903,29.997C23.172,29.997 20.954,32.219 20.954,34.946C20.946,37.672 23.168,39.895 25.899,39.895L25.898,39.895ZM25.898,32.493C27.25,32.493 28.347,33.594 28.347,34.942C28.347,36.293 27.246,37.391 25.898,37.391C24.546,37.391 23.449,36.289 23.449,34.942C23.445,33.594 24.546,32.493 25.898,32.493Z" style="fill:rgb(134,95,241);fill-rule:nonzero;"/>
            </g>
            <g transform="matrix(1,0,0,1,5,10)">
                <path d="M34.188,59.098L49.504,59.082L49.5,56.582L33.152,56.598L28.39,61.36C27.656,60.926 26.812,60.66 25.898,60.66C23.168,60.66 20.949,62.883 20.949,65.61C20.949,68.34 23.172,70.559 25.898,70.559C28.629,70.559 30.847,68.336 30.847,65.61C30.847,64.7 30.582,63.86 30.156,63.125L34.188,59.098ZM25.899,68.067C24.547,68.067 23.45,66.965 23.45,65.618C23.45,64.266 24.551,63.168 25.899,63.168C27.251,63.168 28.348,64.27 28.348,65.618C28.348,66.965 27.25,68.067 25.899,68.067Z" style="fill:rgb(134,95,241);fill-rule:nonzero;"/>
            </g>
            <g transform="matrix(1,0,0,1,5,10)">
                <path d="M38.266,83.766C37.594,83.426 36.848,83.215 36.047,83.215C33.317,83.215 31.098,85.438 31.098,88.164C31.098,90.895 33.321,93.114 36.047,93.114C38.778,93.114 40.996,90.891 40.996,88.164C40.996,87.145 40.684,86.196 40.153,85.407L44.563,80.996L47.789,80.996L47.789,78.496L43.528,78.496L38.266,83.766ZM36.047,90.622C34.696,90.622 33.598,89.52 33.598,88.172C33.598,86.821 34.7,85.723 36.047,85.723C37.399,85.723 38.496,86.825 38.496,88.172C38.496,89.52 37.399,90.622 36.047,90.622Z" style="fill:rgb(134,95,241);fill-rule:nonzero;"/>
            </g>
            <g transform="matrix(1,0,0,1,5,10)">
                <path d="M43.527,64.672L38.261,69.938C37.59,69.598 36.843,69.387 36.043,69.387C33.312,69.387 31.093,71.61 31.093,74.336C31.093,77.067 33.316,79.285 36.043,79.285C38.773,79.285 40.992,77.063 40.992,74.336C40.992,73.317 40.679,72.367 40.148,71.578L44.558,67.168L49.5,67.152L49.492,64.652L43.527,64.672ZM36.047,76.785C34.695,76.785 33.597,75.683 33.597,74.336C33.597,72.984 34.699,71.887 36.047,71.887C37.398,71.887 38.496,72.988 38.496,74.336C38.496,75.687 37.398,76.785 36.047,76.785Z" style="fill:rgb(134,95,241);fill-rule:nonzero;"/>
            </g>
            <g transform="matrix(1,0,0,1,5,10)">
                <path d="M41.949,13.836C42.222,13.223 42.383,12.547 42.383,11.828C42.383,9.098 40.16,6.879 37.433,6.879C34.703,6.879 32.484,9.102 32.484,11.828C32.484,14.559 34.707,16.777 37.433,16.777C38.539,16.777 39.547,16.402 40.371,15.789L45.355,20.774L49.617,20.774L49.617,18.274L46.39,18.274L41.949,13.836ZM37.433,14.281C36.082,14.281 34.984,13.18 34.984,11.832C34.984,10.481 36.086,9.383 37.433,9.383C38.785,9.383 39.883,10.485 39.883,11.832C39.887,13.18 38.785,14.281 37.433,14.281Z" style="fill:rgb(134,95,241);fill-rule:nonzero;"/>
            </g>
            <g transform="matrix(1,0,0,1,5,10)">
                <path d="M41.949,28.824C42.222,28.211 42.383,27.535 42.383,26.816C42.383,24.086 40.16,21.867 37.433,21.867C34.703,21.867 32.484,24.09 32.484,26.816C32.484,29.547 34.707,31.765 37.433,31.765C38.539,31.765 39.547,31.39 40.371,30.777L45.355,35.762L49.617,35.762L49.617,33.262L46.39,33.262L41.949,28.824ZM37.433,29.269C36.082,29.269 34.984,28.168 34.984,26.82C34.984,25.469 36.086,24.371 37.433,24.371C38.785,24.371 39.883,25.473 39.883,26.82C39.883,28.168 38.785,29.269 37.433,29.269Z" style="fill:rgb(134,95,241);fill-rule:nonzero;"/>
            </g>
        </g>
    </g>
</svg>
