<?xml version="1.0" encoding="UTF-8" standalone="no"?><!DOCTYPE svg PUBLIC "-//W3C//DTD SVG 1.1//EN" "http://www.w3.org/Graphics/SVG/1.1/DTD/svg11.dtd"><svg width="100%" height="100%" viewBox="0 0 102 102" version="1.1" xmlns="http://www.w3.org/2000/svg" xmlns:xlink="http://www.w3.org/1999/xlink" xml:space="preserve" xmlns:serif="http://www.serif.com/" style="fill-rule:evenodd;clip-rule:evenodd;stroke-linejoin:round;stroke-miterlimit:2;"><rect id="Artboard1" x="0" y="0" width="101.448" height="101.448" style="fill:none;"/><g><g><path d="M98.724,85.769l-2,0l-0,-60.74c-0,-0.822 -0.677,-1.5 -1.5,-1.5l-14.9,0c-0.823,0 -1.5,0.678 -1.5,1.5l-0,60.74l-6.79,0l-0,-42.09c-0,-0.822 -0.677,-1.5 -1.5,-1.5l-14.92,0c-0.823,0 -1.5,0.678 -1.5,1.5l-0,19.34c-0,0.823 0.677,1.5 1.5,1.5c0.823,0 1.5,-0.677 1.5,-1.5l-0,-17.84l11.92,0l-0,40.59l-11.92,0l-0,-15.64c-0,-0.822 -0.677,-1.5 -1.5,-1.5c-0.823,0 -1.5,0.678 -1.5,1.5l-0,15.64l-6.78,0l-0,-51.42c-0,-0.822 -0.677,-1.5 -1.5,-1.5l-14.92,0c-0.823,0 -1.5,0.678 -1.5,1.5l-0,51.42l-6.79,0l-0,-19.5c-0,-0.822 -0.677,-1.5 -1.5,-1.5c-0.823,0 -1.5,0.678 -1.5,1.5l-0,19.5l-11.9,0l-0,-31.27l11.9,0l-0,5.4c-0,0.823 0.677,1.5 1.5,1.5c0.823,0 1.5,-0.677 1.5,-1.5l-0,-6.9c-0,-0.822 -0.677,-1.5 -1.5,-1.5l-14.91,0c-0.823,0 -1.5,0.678 -1.5,1.5l-0,32.77l-1.99,0c-0.823,0 -1.5,0.678 -1.5,1.5l-0,7.85c-0,0.823 0.677,1.5 1.5,1.5l80.56,0c0.823,0 1.5,-0.677 1.5,-1.5c-0,-0.822 -0.677,-1.5 -1.5,-1.5l-79.07,0l-0,-4.85l93,0l-0,4.85l-4.63,0c-0.823,0 -1.5,0.678 -1.5,1.5c-0,0.823 0.677,1.5 1.5,1.5l6.14,0c0.823,0 1.5,-0.677 1.5,-1.5l-0,-7.85c-0,-0.822 -0.677,-1.5 -1.5,-1.5Zm-66.31,0l-0,-49.92l11.92,0l-0,49.92l-11.92,0Zm49.41,0l-0,-59.24l11.9,0l-0,59.24l-11.9,0Z" style="fill:#835ff1;fill-rule:nonzero;"/><path d="M13.044,48.769c0.014,0 0.029,0.001 0.044,0.001c4.35,-0 7.93,-3.58 7.93,-7.93c-0,-1.434 -0.389,-2.841 -1.124,-4.071l12.83,-9.68c1.488,1.486 3.507,2.322 5.61,2.322c3.441,-0 6.508,-2.236 7.56,-5.512l9.23,5.57l-0,0.57c0.024,4.34 3.6,7.897 7.94,7.897c4.355,-0 7.94,-3.584 7.94,-7.94c-0,-0.824 -0.129,-1.642 -0.38,-2.427l11.74,-8.9c1.481,1.387 3.437,2.159 5.466,2.159c4.389,0 8,-3.611 8,-8c0,-4.389 -3.611,-8 -8,-8c-4.389,0 -8,3.611 -8,8c0,1.18 0.261,2.345 0.764,3.411l-11.45,8.69c-1.506,-1.789 -3.729,-2.823 -6.067,-2.823c-2.991,-0 -5.738,1.692 -7.083,4.363l-9.73,-5.87c-0.428,-4.016 -3.856,-7.098 -7.896,-7.098c-4.355,-0 -7.94,3.584 -7.94,7.94c0,1.086 0.224,2.161 0.656,3.158l-13.17,9.93c-1.386,-1.063 -3.086,-1.64 -4.833,-1.64c-4.355,0 -7.94,3.585 -7.94,7.94c0,4.342 3.561,7.92 7.903,7.94Zm74.73,-40.8c2.71,0 4.94,2.23 4.94,4.94c-0,2.71 -2.23,4.94 -4.94,4.94c-2.71,0 -4.94,-2.23 -4.94,-4.94c-0,-0.006 -0,-0.013 -0,-0.02c-0,-2.711 2.228,-4.944 4.94,-4.95l-0,0.03Zm-24.7,17.13c2.71,0 4.94,2.23 4.94,4.94c-0,2.71 -2.23,4.94 -4.94,4.94c-2.71,0 -4.94,-2.23 -4.94,-4.94c0.005,-2.708 2.232,-4.934 4.94,-4.94Zm-24.7,-8.57c2.71,0 4.94,2.23 4.94,4.94c-0,2.71 -2.23,4.94 -4.94,4.94c-2.71,0 -4.94,-2.23 -4.94,-4.94c0.005,-2.708 2.232,-4.934 4.94,-4.94Zm-25.33,19.32c2.71,0 4.94,2.23 4.94,4.94c-0,2.71 -2.23,4.94 -4.94,4.94c-2.71,0 -4.94,-2.23 -4.94,-4.94c-0,-0.006 -0,-0.013 -0,-0.02c0.016,-2.7 2.239,-4.914 4.94,-4.92Z" style="fill:#835ff1;fill-rule:nonzero;"/></g></g></svg>