<?xml version="1.0" encoding="UTF-8" standalone="no"?><!DOCTYPE svg PUBLIC "-//W3C//DTD SVG 1.1//EN" "http://www.w3.org/Graphics/SVG/1.1/DTD/svg11.dtd"><svg width="100%" height="100%" viewBox="0 0 750 159" version="1.1" xmlns="http://www.w3.org/2000/svg" xmlns:xlink="http://www.w3.org/1999/xlink" xml:space="preserve" xmlns:serif="http://www.serif.com/" style="fill-rule:evenodd;clip-rule:evenodd;stroke-linejoin:round;stroke-miterlimit:2;"><g><g><g><path d="M19.958,129.04c1.544,1.811 3.173,3.549 4.881,5.206c5.759,5.667 12.625,10.431 19.992,14.034c2.714,1.271 5.218,2.588 8.151,3.721c0.733,0.282 1.481,0.583 2.269,0.855c0.793,0.251 1.616,0.503 2.476,0.752c0.856,0.267 1.768,0.457 2.721,0.654c0.955,0.192 1.946,0.411 3.01,0.52c-5.28,-1.113 -10.427,-2.785 -15.352,-4.989c-4.957,-2.236 -9.667,-4.983 -14.053,-8.196c-8.785,-6.436 -16.298,-14.698 -21.787,-24.144c-0.226,-0.282 -0.57,-0.82 -0.983,-1.505l-0.663,-1.123l-0.668,-1.292c-0.445,-0.896 -0.957,-1.805 -1.35,-2.686c-0.351,-0.771 -0.719,-1.534 -1.104,-2.289c1.706,4.248 3.675,7.964 5.879,11.498c1.016,1.621 2.09,3.203 3.222,4.745c-0.16,-0.216 -0.326,-0.426 -0.485,-0.642c1.213,1.67 2.491,3.293 3.831,4.864l0.013,0.017Zm-3.846,-4.882l-0.104,-0.142l0.104,0.142Zm-13.912,-35.842l-0.402,-3.227c0.213,1.969 0.461,4.17 0.913,6.374l-0.272,-1.565c-0.101,-0.524 -0.18,-1.052 -0.239,-1.582Zm70.356,66.238c5.54,0.56 11.35,0.393 17.041,-0.507c5.694,-0.897 11.263,-2.488 16.441,-4.539c-9.536,3.751 -19.657,5.419 -29.558,5.14c-1.325,-0.021 -2.631,-0 -3.924,-0.094Z" style="fill:#835ff1;fill-rule:nonzero;"/><path d="M72.565,154.435c-0.065,-0.005 -0.122,0.043 -0.128,0.108c-0.005,0.065 0.042,0.123 0.107,0.129c5.55,0.562 11.37,0.394 17.071,-0.508c5.703,-0.898 11.281,-2.491 16.467,-4.545c0.061,-0.024 0.091,-0.093 0.067,-0.154c-0.024,-0.062 -0.094,-0.092 -0.155,-0.068c-9.521,3.745 -19.625,5.41 -29.51,5.132c-0.001,-0 -0.001,-0 -0.002,-0c-1.323,-0.021 -2.626,-0 -3.917,-0.094Zm-56.638,-30.359l-0.015,0.011l0.104,0.141l0.001,-0l0,0.001c1.215,1.673 2.494,3.297 3.836,4.87l0.012,0.015l0.003,0.004l-0.001,-0.001c1.547,1.814 3.178,3.554 4.889,5.214c5.767,5.676 12.645,10.448 20.022,14.056c0.001,0.001 0.002,0.001 0.002,0.001c2.717,1.272 5.223,2.59 8.159,3.724c-0,0 0,0 0,0.001c0.734,0.281 1.484,0.583 2.273,0.855c0.001,0.001 0.002,0.001 0.002,0.001c0.795,0.252 1.618,0.504 2.479,0.753c0.859,0.268 1.774,0.459 2.731,0.657c0,0 0.001,0 0.001,0c0.958,0.193 1.953,0.412 3.021,0.522c0.063,0.006 0.12,-0.038 0.13,-0.101c0.01,-0.062 -0.031,-0.122 -0.093,-0.135c-5.272,-1.111 -10.41,-2.781 -15.329,-4.981c-4.948,-2.232 -9.651,-4.975 -14.03,-8.184c-8.772,-6.425 -16.275,-14.676 -21.755,-24.107c-0.003,-0.005 -0.006,-0.01 -0.01,-0.014c-0.224,-0.28 -0.565,-0.813 -0.973,-1.492c-0,-0 -0.661,-1.12 -0.661,-1.12c-0,0 -0.667,-1.288 -0.667,-1.288c-0.444,-0.894 -0.955,-1.802 -1.347,-2.681c0,-0 0,-0.001 0,-0.001c-0.352,-0.772 -0.721,-1.537 -1.107,-2.293c-0.028,-0.057 -0.097,-0.081 -0.155,-0.055c-0.058,0.027 -0.085,0.094 -0.062,0.153c1.709,4.256 3.681,7.978 5.889,11.517c-0,0 0,0 0,0c0.843,1.346 1.727,2.665 2.651,3.957Zm38.034,28.176c1.681,0.589 3.382,1.119 5.1,1.589c-0.445,-0.104 -0.879,-0.216 -1.298,-0.347c-0.001,-0 -0.002,-0.001 -0.002,-0.001c-0.859,-0.248 -1.681,-0.5 -2.473,-0.751c-0.454,-0.156 -0.895,-0.323 -1.327,-0.49Zm-43.172,-36.908l0.392,0.665c0.413,0.686 0.758,1.226 0.987,1.512c5.496,9.456 13.019,17.729 21.815,24.172c0.305,0.223 0.611,0.444 0.919,0.663c-3.577,-2.453 -6.933,-5.197 -9.979,-8.195c-0,-0 -0,-0.001 -0,-0.001c-1.706,-1.654 -3.332,-3.388 -4.873,-5.196l-0.014,-0.018c-1.153,-1.352 -2.26,-2.742 -3.32,-4.168c-0.003,-0.017 -0.01,-0.033 -0.02,-0.048c-1.131,-1.539 -2.204,-3.119 -3.218,-4.737c-0.94,-1.507 -1.837,-3.048 -2.689,-4.649Zm9.282,13.657c0.01,0.029 0.009,0.061 -0.004,0.089c-0.02,0.042 -0.062,0.069 -0.109,0.069c0,0 0.141,-0.067 0.113,-0.158Zm-0.017,-0.033l0.001,0.002l-0.001,-0.002Zm-17.735,-40.665c0,-0.001 -0,-0.001 -0,-0.002l-0.402,-3.227c-0.008,-0.065 -0.068,-0.112 -0.133,-0.104c-0.065,0.008 -0.111,0.066 -0.104,0.131c0.213,1.974 0.461,4.179 0.914,6.386c0.013,0.064 0.075,0.105 0.139,0.093c0.064,-0.012 0.107,-0.073 0.096,-0.137l-0.273,-1.565c0,-0.001 -0,-0.002 -0,-0.002c-0.1,-0.521 -0.179,-1.046 -0.237,-1.573Z" style="fill:#835ff1;"/><path d="M39.754,143.221l-0.216,-0.138c0.073,0.046 0.143,0.093 0.216,0.138Zm8.038,4.428c4.565,2.124 9.346,3.748 14.26,4.844c-8.068,-1.841 -15.661,-5.088 -22.298,-9.272c2.548,1.621 5.228,3.122 8.038,4.428Zm100.71,-58.457c0.082,-1.316 0.247,-2.697 0.289,-3.354c0.494,-4.223 0.641,-7.829 0.62,-11.447c-0.092,-0.652 -0.354,-1.874 -0.458,-3.263c-0.127,-1.393 -0.315,-2.756 -0.473,-4.101c-0.241,-1.334 -0.448,-2.654 -0.711,-3.948c1.894,9.675 1.863,19.388 0.12,28.551c0.191,-0.816 0.396,-1.629 0.613,-2.438Z" style="fill:#835ff1;fill-rule:nonzero;"/><path d="M1.827,69.527c0.707,-5.747 2.21,-11.348 3.64,-15.08l-0.579,2.732c0.357,-0.801 0.934,-2.661 1.722,-4.629l0.568,-1.5l0.627,-1.455c0.416,-0.942 0.766,-1.835 1.135,-2.52c-0.253,0.643 -0.496,1.335 -0.789,2.029c-0.287,0.697 -0.61,1.405 -0.917,2.117l1.261,-2.839c-1.272,3.187 -2.367,6.442 -3.28,9.75c-0.944,3.625 -1.69,7.434 -2.092,10.854c-0.116,0.852 -0.157,1.685 -0.233,2.48c-0.056,0.794 -0.152,1.552 -0.16,2.268c-0.035,1.432 -0.083,2.686 -0.059,3.688c0.087,2.007 0.208,3.007 0.382,2.448c0.343,-1.11 0.336,-6.819 1.53,-13.964c0.639,-3.561 1.556,-7.467 2.8,-11.294c1.235,-3.83 2.854,-7.544 4.531,-10.82l-0.493,1.076l-0.454,1.108l-0.93,2.241l-0.852,2.316l-0.434,1.167c-0.128,0.397 -0.257,0.795 -0.384,1.194c-1.1,3.171 -1.922,6.51 -2.638,9.875l-0.465,2.542c-0.171,0.845 -0.244,1.704 -0.37,2.554c-0.265,1.7 -0.362,3.413 -0.509,5.105c-0.166,3.393 -0.199,6.744 0.108,9.949c-0.012,-0.761 -0.025,-1.437 -0.014,-2.092l0.096,-1.961c0.04,-0.674 0.032,-1.389 0.096,-2.207c0.058,-0.819 0.111,-1.742 0.158,-2.834c0.326,-5.503 1.309,-10.952 2.838,-16.224c1.458,-5.295 3.177,-9.958 5.738,-14.183l0.667,-1.271c0.451,-0.853 0.827,-1.694 1.304,-2.552c0.544,-0.941 1.064,-1.646 1.486,-2.291c0.434,-0.639 0.802,-1.2 1.223,-1.745l3.067,-4.233c0.062,-0.007 -0.019,0.155 -0.167,0.394c0.506,-0.72 1.05,-1.412 1.632,-2.073c0.628,-0.729 1.239,-1.502 1.756,-2.14c0.122,-0.006 0.24,-0.009 0.519,-0.209c7.204,-7.66 16.07,-13.902 26.06,-17.837l2.221,-0.865l2.249,-0.749l1.119,-0.373l1.132,-0.316l2.257,-0.628c1.291,-0.31 2.599,-0.625 3.932,-0.908l2.03,-0.355c0.682,-0.117 1.367,-0.25 2.068,-0.315c1.395,-0.167 2.611,-0.52 3.266,-0.607c3.639,-0.207 7.271,-0.166 11.534,0.18c0.331,0.006 0.845,0.036 1.442,0.068c0.598,0.034 1.28,0.051 1.943,0.112c0.776,0.175 1.604,0.348 2.474,0.517c5.304,0.823 10.433,2.294 15.312,4.25l-0.005,-0.023l1.869,0.744l1.907,0.881c1.308,0.57 2.59,1.299 3.914,1.985c0.665,0.339 1.294,0.753 1.947,1.128c0.642,0.394 1.313,0.744 1.932,1.176c1.256,0.834 2.53,1.633 3.703,2.525c1.892,1.365 3.726,2.809 5.497,4.329c0.038,0.035 0.078,0.067 0.117,0.101l0.034,0.032l1.214,1.101l1.161,1.159l1.162,1.159c0.384,0.389 0.741,0.805 1.113,1.207c-0.18,-0.292 -0.173,-0.409 -0.166,-0.525c-0.574,-0.55 -1.253,-1.2 -1.923,-1.841c1.118,1.018 2.094,1.938 2.895,2.69c0.309,0.394 0.647,0.783 0.966,1.206l0.988,1.305l1.05,1.356l1.046,1.46c1.854,2.363 3.49,4.892 5.044,7.47c0.72,1.323 1.513,2.608 2.154,3.976l1.01,2.029l0.91,2.079c0.261,0.444 0.159,0.019 0.192,-0.056c1.02,2.467 1.841,5.032 2.583,7.617c1.42,4.672 2.371,9.473 2.839,14.334c0.187,1.147 0.267,2.308 0.433,3.459l-0.103,2.435c-0,0.918 0.048,1.837 0.009,2.757l-0.107,2.77c-0.013,0.625 -0.103,1.307 -0.156,2.048c-0.07,0.74 -0.106,1.538 -0.213,2.379l-0.343,2.658c-0.11,0.932 -0.322,1.89 -0.486,2.891c-0.812,4.396 -2.014,8.711 -3.591,12.894c-0.201,0.688 -0.355,1.238 -0.493,1.545c-0.522,1.25 -1.079,2.46 -1.617,3.652c-0.602,1.161 -1.154,2.322 -1.772,3.421c-1.908,3.619 -4.123,7.069 -6.62,10.31c-0.28,0.366 -0.54,0.737 -0.822,1.08l-0.831,1.005c-0.55,0.648 -1.041,1.297 -1.562,1.86c-1.042,1.126 -1.917,2.17 -2.737,2.956c-0.94,0.981 -0.855,1.027 -0.205,0.554c0.457,-0.338 0.903,-0.688 1.339,-1.051l1.767,-1.594c0.647,-0.564 1.266,-1.201 1.862,-1.8c0.59,-0.604 1.179,-1.155 1.634,-1.653c0.917,-0.991 1.519,-1.604 1.391,-1.331c-1.48,2.786 -4.175,6.222 -8.115,10.023c-2.009,1.855 -4.27,3.87 -6.945,5.813c-1.304,1.017 -2.754,1.947 -4.232,2.963c-1.527,0.936 -3.088,1.96 -4.795,2.869c-3.734,2.034 2.803,-1.228 2.979,-1.259c-0.63,0.497 -1.291,0.953 -1.979,1.366c-1.231,0.655 -2.451,1.33 -3.726,1.893c-0.746,0.342 -1.478,0.712 -2.232,1.032l-2.272,0.934l1.202,-0.473c2.459,-0.977 4.757,-2.127 6.831,-3.266c-0.779,0.471 -1.632,1.017 -2.567,1.509c-1.002,0.518 -2.038,1.084 -3.079,1.59l-3.019,1.404c10.801,-3.923 20.725,-10.416 28.582,-18.88c3.934,-4.219 7.442,-8.854 10.302,-13.868c2.877,-5.003 5.192,-10.31 6.902,-15.823c-2.626,8.27 -6.721,15.867 -11.644,22.291c8.948,-12.082 14.284,-26.895 14.991,-42.171c-0.001,0.841 -0.084,1.68 -0.14,2.519c-0.069,0.838 -0.103,1.68 -0.201,2.517c-0.214,1.67 -0.367,3.348 -0.689,5.004c-0.519,3.332 -1.362,6.605 -2.317,9.84c1.884,-5.847 3.009,-12.013 3.452,-18.213c0.462,-6.206 0.077,-12.449 -0.88,-18.498c1.644,8.013 1.916,17.093 0.516,26.066c0.984,-5.788 1.234,-11.753 0.856,-17.668c-0.085,-2.259 -0.352,-4.503 -0.571,-6.58c-0.314,-2.062 -0.551,-3.966 -0.855,-5.506c1.203,5.685 1.678,10.534 1.91,15.104c-0.223,-9.975 -2.289,-20.081 -6.347,-29.575c2.215,5.156 4.033,10.703 5.143,16.406c1.116,5.696 1.58,11.524 1.316,17.131c-0.012,-0.656 0.015,-1.312 -0.023,-1.97l-0.089,-1.992c0.239,9.037 -1.153,17.993 -3.911,26.415c-1.384,4.211 -3.094,8.303 -5.164,12.196c-2.065,3.888 -4.45,7.597 -7.129,11.09c3.059,-3.572 6.289,-8.623 8.866,-14.17c2.566,-5.559 4.471,-11.572 5.781,-16.823c-1.927,9.43 -5.752,18.734 -11.302,27.043c-5.535,8.316 -12.785,15.628 -21.174,21.239c-8.378,5.629 -17.884,9.525 -27.639,11.45c-4.844,0.962 -9.767,1.466 -14.705,1.507c-4.848,0.026 -9.689,-0.397 -14.459,-1.262l2.503,0.476c0.834,0.158 1.68,0.245 2.52,0.37c1.679,0.27 3.377,0.372 5.069,0.527c3.392,0.191 6.803,0.255 10.202,-0.004c3.406,-0.181 6.79,-0.689 10.158,-1.309c1.67,-0.38 3.361,-0.69 5.011,-1.178c0.828,-0.231 1.666,-0.434 2.488,-0.691l2.461,-0.798c-1.243,0.385 -2.551,0.895 -3.947,1.269l-1.75,0.514c3.672,-0.979 7.266,-2.23 10.752,-3.744c1.595,-0.696 3.164,-1.447 4.706,-2.253c-2.889,1.533 -5.869,2.888 -8.923,4.058c-5.823,2.173 -11.875,3.677 -18.039,4.482c-0.924,0.147 -1.767,0.192 -2.523,0.271l-2.022,0.2c-1.19,0.094 -2.069,0.137 -2.683,0.204c-1.23,0.123 -1.405,0.237 -0.915,0.331c0.488,0.094 1.641,0.169 3.059,0.209c1.413,-0.008 3.089,-0.084 4.614,-0.223c15.322,-1.572 29.389,-7.585 40.663,-16.587c11.28,-9.004 19.92,-20.964 24.736,-34.535c0.302,-0.788 0.534,-1.601 0.786,-2.407c0.244,-0.809 0.514,-1.609 0.735,-2.425c0.408,-1.641 0.892,-3.262 1.206,-4.928l0.515,-2.486l0.406,-2.509l0.2,-1.255l0.144,-1.263l0.284,-2.527c0.582,-6.758 0.352,-13.588 -0.676,-20.29c-0.55,-3.793 -1.516,-8.296 -2.761,-12.307l-0.957,-2.902c-0.334,-0.922 -0.688,-1.791 -1.002,-2.609l-0.464,-1.179l-0.476,-1.058l-0.817,-1.769c-2.61,-5.296 -5.89,-10.347 -9.729,-15.045c-3.835,-4.7 -8.242,-9.052 -13.21,-12.841l-1.869,-1.418l-1.938,-1.339l-0.971,-0.672l-1.002,-0.629l-2.012,-1.256c-2.745,-1.586 -5.556,-3.114 -8.519,-4.382c-2.932,-1.331 -6.001,-2.411 -9.125,-3.377c-1.578,-0.433 -3.149,-0.916 -4.767,-1.248c-0.806,-0.174 -1.606,-0.386 -2.421,-0.532l-2.452,-0.434c-5.863,-1.032 -11.962,-1.277 -18.055,-0.819c-6.09,0.47 -12.205,1.626 -18.069,3.622l-2.195,0.76c-0.734,0.248 -1.441,0.568 -2.163,0.849c-0.714,0.299 -1.445,0.56 -2.146,0.89l-2.109,0.977c-0.709,0.313 -1.395,0.673 -2.079,1.037l-2.056,1.08l-2,1.176c-0.667,0.393 -1.338,0.777 -1.976,1.214l-1.935,1.273c-0.652,0.414 -1.255,0.898 -1.883,1.343c-0.618,0.461 -1.258,0.891 -1.854,1.377l-1.797,1.447c-0.607,0.47 -1.18,0.981 -1.751,1.492l-1.718,1.524l-1.642,1.598c-0.546,0.533 -1.098,1.059 -1.607,1.625c-4.19,4.413 -7.871,9.226 -10.882,14.32c-2.952,4.997 -5.372,10.29 -7.218,15.792c-3.644,10.761 -4.689,21.673 -4.203,31.53c-0.105,-4.058 -0.122,-9.877 0.627,-15.62Zm117.54,75.327c2.531,-1.636 4.968,-3.413 7.3,-5.321c-2.365,1.948 -4.795,3.747 -7.3,5.321Zm33.494,-45.208c-0.249,0.75 -0.459,1.491 -0.734,2.199l-0.797,2.101l-0.388,1.04l-0.427,1.025c-0.286,0.691 -0.563,1.385 -0.831,2.083c-1.542,3.841 -3.376,7.558 -5.486,11.118c-2.099,3.561 -4.533,6.897 -7.133,10.028c-1.284,1.581 -2.683,3.048 -4.059,4.515l-2.15,2.101c-0.705,0.706 -1.477,1.336 -2.208,2.002c-0.613,0.533 -1.231,1.054 -1.854,1.567c2.311,-1.898 4.507,-3.931 6.577,-6.089c-2.995,3.103 -6.252,5.942 -9.735,8.485c-0.863,0.601 -1.697,1.245 -2.593,1.812l-2.704,1.723l-2.857,1.623c-0.972,0.54 -1.998,1.02 -3.026,1.545c0.736,-0.434 1.482,-0.853 2.236,-1.256c0.85,-0.472 1.742,-1.03 2.613,-1.541c0.878,-0.5 1.676,-1.05 2.339,-1.51c0.663,-0.459 1.182,-0.841 1.453,-1.087c-0.386,0.262 -0.779,0.514 -1.171,0.769c0.421,-0.277 0.84,-0.559 1.255,-0.845c-0.017,0.019 -0.054,0.049 -0.084,0.076c9.105,-6.218 16.861,-14.389 22.672,-23.704c5.838,-9.307 9.636,-19.806 11.21,-30.483c-0.341,4.282 -1.126,7.702 -2.118,10.703Zm-12.577,-65.003c2.506,3.785 4.673,7.785 6.474,11.953c0.208,0.457 0.404,0.921 0.598,1.386c4.134,10.122 6.014,20.98 5.739,31.677c0.07,-3.539 -0.165,-7.077 -0.558,-10.585c-0.443,-4.043 -1.264,-8.037 -2.351,-11.944c-2.134,-7.834 -5.6,-15.26 -9.999,-22.029c0.404,0.558 0.83,1.163 1.27,1.804c0.472,0.663 0.914,1.348 1.325,2.051l-0.532,-0.924l-0.574,-0.898l-1.147,-1.796c-0.781,-1.186 -1.628,-2.328 -2.444,-3.491c-0.884,-1.111 -1.723,-2.259 -2.643,-3.341c-0.696,-0.793 -1.364,-1.614 -2.07,-2.397c2.492,2.627 4.832,5.446 6.912,8.534Zm-58.505,-33.683c1.222,0.065 2.446,0.184 3.67,0.275c1.003,0.084 2.001,0.233 2.988,0.344c0.297,0.013 0.61,0.033 1.003,0.077c0.392,0.054 0.861,0.155 1.473,0.295c4.555,0.759 8.711,1.901 11.661,3.08c5.662,2.143 10.929,4.809 15.707,7.888c4.78,3.073 9.069,6.569 12.698,10.386c1.672,1.815 1.184,1.42 0.262,0.538l1.384,1.47c-0.613,-0.612 -1.215,-1.231 -1.837,-1.829l-1.916,-1.741c0.466,0.408 1.597,1.385 2.369,2.1c-6.154,-6.278 -13.347,-11.492 -21.133,-15.327c-7.792,-3.834 -16.183,-6.201 -24.571,-7.147c1.348,0.15 2.009,0.184 2.639,0.2c-0.904,-0.106 -1.81,-0.25 -2.727,-0.334c-1.232,-0.081 -2.461,-0.19 -3.683,-0.25l-3.632,-0.086c1.203,-0.001 2.421,0.032 3.645,0.061Z" style="fill:#835ff1;fill-rule:nonzero;"/><path d="M1.888,95.236c1.169,5.671 3.12,11.132 4.847,14.737l-0.798,-2.676c0.421,0.768 1.147,2.575 2.09,4.473l0.688,1.45l0.742,1.4c0.492,0.905 0.913,1.767 1.336,2.419c-0.304,-0.62 -0.602,-1.29 -0.951,-1.958c-0.342,-0.672 -0.721,-1.351 -1.085,-2.036l1.487,2.728c-1.526,-3.074 -2.881,-6.23 -4.059,-9.453c-1.233,-3.537 -2.285,-7.273 -2.962,-10.649c-0.185,-0.841 -0.293,-1.668 -0.432,-2.453c-0.12,-0.788 -0.278,-1.535 -0.343,-2.249c-0.151,-1.424 -0.3,-2.669 -0.357,-3.671c-0.075,-2.006 -0.036,-3.013 0.183,-2.47c0.431,1.079 0.886,6.77 2.654,13.795c0.924,3.497 2.154,7.317 3.704,11.03c1.541,3.718 3.455,7.289 5.39,10.419l-0.578,-1.033l-0.542,-1.068l-1.108,-2.159l-1.037,-2.239l-0.527,-1.128c-0.159,-0.385 -0.32,-0.771 -0.479,-1.16c-1.352,-3.071 -2.441,-6.332 -3.427,-9.629l-0.67,-2.496c-0.238,-0.828 -0.38,-1.679 -0.575,-2.516c-0.402,-1.673 -0.636,-3.372 -0.92,-5.046c-0.44,-3.369 -0.744,-6.707 -0.697,-9.926c0.049,0.76 0.092,1.435 0.155,2.087l0.254,1.947c0.095,0.668 0.145,1.381 0.274,2.192c0.125,0.811 0.252,1.727 0.387,2.811c0.77,5.459 2.191,10.81 4.141,15.942c1.881,5.16 3.971,9.669 6.866,13.673l0.767,1.213c0.519,0.813 0.962,1.621 1.507,2.438c0.618,0.894 1.194,1.554 1.666,2.163c0.484,0.602 0.896,1.132 1.36,1.64l3.399,3.971c0.063,0.002 -0.031,-0.152 -0.198,-0.379c0.562,0.677 1.161,1.323 1.794,1.935c0.686,0.675 1.357,1.396 1.924,1.99c0.121,-0.004 0.239,-0.01 0.534,0.167c7.799,7.052 17.141,12.557 27.417,15.671l2.284,0.683l2.302,0.564l1.145,0.282l1.154,0.224l2.3,0.442c1.312,0.206 2.641,0.414 3.993,0.588l2.052,0.19c0.689,0.061 1.383,0.138 2.087,0.146c1.403,0.054 2.644,0.308 3.304,0.341c3.643,-0.087 7.26,-0.423 11.482,-1.112c0.329,-0.032 0.839,-0.104 1.432,-0.185c0.592,-0.082 1.272,-0.154 1.927,-0.268c0.759,-0.237 1.571,-0.477 2.424,-0.715c5.22,-1.249 10.213,-3.13 14.919,-5.475l-0.004,0.024l1.802,-0.893l1.83,-1.033c1.258,-0.673 2.477,-1.503 3.741,-2.294c0.635,-0.392 1.229,-0.855 1.85,-1.282c0.607,-0.445 1.248,-0.848 1.831,-1.328c1.184,-0.933 2.389,-1.832 3.486,-2.816c1.776,-1.514 3.487,-3.102 5.129,-4.76c0.035,-0.038 0.072,-0.073 0.108,-0.11l0.032,-0.035l1.12,-1.195l1.064,-1.249l1.064,-1.249c0.352,-0.419 0.674,-0.863 1.013,-1.293c-0.156,0.305 -0.14,0.421 -0.124,0.536c-0.528,0.595 -1.152,1.298 -1.768,1.99c1.033,-1.104 1.931,-2.101 2.669,-2.914c0.276,-0.419 0.581,-0.833 0.865,-1.281l0.879,-1.38l0.937,-1.437l0.924,-1.539c1.657,-2.506 3.084,-5.158 4.424,-7.854c0.61,-1.376 1.298,-2.721 1.825,-4.137l0.843,-2.104l0.738,-2.146c0.225,-0.464 0.158,-0.031 0.197,0.041c0.817,-2.542 1.427,-5.165 1.959,-7.801c1.038,-4.772 5.766,-15.261 5.302,-9.154c0.99,-8.12 0.587,-14.408 0.688,-8.482c0.098,2.259 0.014,4.517 -0.037,6.605c-0.146,2.081 -0.228,3.998 -0.407,5.557c0.74,-5.763 0.821,-10.635 0.682,-15.209c0.585,9.96 -0.657,20.201 -3.934,29.991c1.79,-5.318 3.154,-10.994 3.8,-16.767c0.651,-5.768 0.134,-13.224 0.134,-13.224c-0.492,-9.026 2.178,2.947 1.695,9.711c-0.241,3.825 -0.84,8.392 -1.756,12.49l-0.72,2.97c-0.258,0.945 -0.54,1.841 -0.788,2.681l-0.367,1.212l-0.388,1.094l-0.672,1.829c-2.173,5.49 -5.034,10.79 -8.481,15.783c-3.442,4.994 -7.482,9.688 -12.128,13.867l-1.748,1.564l-1.823,1.492l-0.914,0.747l-0.947,0.709l-1.905,1.415c-2.607,1.802 -5.285,3.553 -8.136,5.056c-2.815,1.563 -5.787,2.888 -8.823,4.104c-1.538,0.559 -3.064,1.167 -4.65,1.629c-0.79,0.239 -1.57,0.515 -2.37,0.726l-2.409,0.63c-5.761,1.503 -11.82,2.241 -17.93,2.277c-6.108,0.024 -12.297,-0.634 -18.303,-2.149l-2.249,-0.58c-0.751,-0.188 -1.482,-0.45 -2.224,-0.671c-0.737,-0.241 -1.486,-0.442 -2.211,-0.714l-2.181,-0.803c-0.733,-0.255 -1.445,-0.558 -2.156,-0.866l-2.137,-0.91l-2.089,-1.011c-0.696,-0.337 -1.396,-0.666 -2.067,-1.05l-2.032,-1.112c-0.683,-0.36 -1.323,-0.793 -1.986,-1.186c-0.652,-0.41 -1.325,-0.786 -1.959,-1.223l-1.907,-1.297c-0.643,-0.42 -1.256,-0.882 -1.867,-1.346l-1.835,-1.38l-1.766,-1.46c-0.587,-0.486 -1.18,-0.966 -1.733,-1.49c-4.533,-4.059 -8.592,-8.559 -12.004,-13.393c-3.347,-4.741 -6.186,-9.822 -8.472,-15.156c-4.502,-10.431 -6.426,-21.223 -6.738,-31.087c0.223,4.053 0.677,9.854 1.888,15.518Zm140.824,23.575c2.192,-3.976 4.028,-8.138 5.486,-12.438c0.17,-0.472 0.329,-0.95 0.485,-1.429c3.301,-10.424 3.566,-24.971 3.458,-21.443c-0.115,4.066 -0.61,8.113 -1.378,12.095c-1.493,7.982 -4.347,15.663 -8.184,22.766c0.357,-0.589 0.732,-1.226 1.12,-1.901c0.416,-0.7 0.801,-1.417 1.154,-2.151l-0.455,0.963l-0.5,0.942l-0.998,1.883c-0.683,1.245 -1.435,2.452 -2.153,3.677c-0.792,1.179 -1.535,2.391 -2.365,3.543c-0.63,0.848 -1.228,1.719 -1.869,2.558c2.271,-2.821 4.375,-5.82 6.199,-9.065Zm-55.59,38.303c1.213,-0.163 2.423,-0.381 3.636,-0.571c0.993,-0.165 1.975,-0.394 2.951,-0.585c0.294,-0.036 0.605,-0.081 0.993,-0.157c0.386,-0.086 0.846,-0.224 1.445,-0.413c4.478,-1.126 8.528,-2.6 11.373,-4.014c5.47,-2.593 10.504,-5.676 15.018,-9.132c4.515,-3.449 8.508,-7.28 11.816,-11.379c1.52,-1.944 1.066,-1.51 0.218,-0.557l1.261,-1.576c-0.562,0.658 -1.112,1.325 -1.684,1.971l-1.769,1.89c0.432,-0.444 1.48,-1.51 2.192,-2.285c-5.626,6.756 -12.374,12.534 -19.825,16.986c-7.456,4.451 -15.628,7.49 -23.912,9.11c1.331,-0.258 1.988,-0.345 2.614,-0.413c-0.892,0.179 -1.784,0.397 -2.691,0.554c-1.221,0.18 -2.438,0.389 -3.651,0.547l-3.613,0.379c1.199,-0.096 2.411,-0.228 3.628,-0.355Z" style="fill:#835ff1;fill-rule:nonzero;"/><path d="M97.649,153.817l0.355,-0.104c-0.371,0.1 -0.737,0.209 -1.111,0.304c0.253,-0.063 0.507,-0.124 0.756,-0.2Zm37.047,-32.097c3.527,-4.653 6.643,-10.213 8.633,-15.003l-0.024,0.005c-5.048,11.928 -13.236,22.204 -23.453,29.769c1.814,-1.261 3.596,-2.567 5.345,-3.917c2.247,-2.348 6.007,-6.168 9.499,-10.854Zm-104.167,13.904c5.974,5.34 13.177,9.988 21.194,13.118c3.127,1.177 6.318,2.208 9.581,2.934c1.619,0.418 3.272,0.677 4.912,0.984c0.822,0.146 1.655,0.226 2.481,0.343c0.828,0.107 1.654,0.229 2.488,0.277c-3.763,-0.417 -7.5,-1.041 -11.137,-2.032c-3.634,-0.987 -7.197,-2.207 -10.634,-3.705c-3.419,-1.522 -6.729,-3.279 -9.906,-5.259c-3.153,-2.005 -6.143,-4.245 -8.979,-6.66Zm73.729,9.52l-1.848,0.726l-1.887,0.629c-1.25,0.45 -2.538,0.787 -3.823,1.144c1.292,-0.325 2.591,-0.628 3.851,-1.044l1.901,-0.582l1.858,-0.679c-0.072,-0.036 -0.495,0.046 -0.052,-0.194Zm-21.815,4.738c-0.966,0.082 -1.938,0.075 -2.91,0.085c-0.973,0.011 -1.947,0.032 -2.923,-0.032l1.313,0.123c0.401,0.026 0.763,0.057 1.078,0.094c1.15,-0.098 2.292,-0.126 3.442,-0.27Zm-38.512,-8.958c1.116,0.655 2.302,1.232 3.479,1.868c0.295,0.162 0.83,0.346 1.5,0.591c-1.433,-0.616 -2.807,-1.378 -4.202,-2.086c-0.692,-0.368 -1.357,-0.779 -2.035,-1.162c-0.676,-0.387 -1.35,-0.772 -1.99,-1.204l0.781,0.522l0.813,0.486l1.654,0.985Z" style="fill:#835ff1;fill-rule:nonzero;"/><path d="M99.832,38.238c4.974,0.339 2.148,4.522 -0.453,7.461c-2.713,2.94 -16.619,14.924 -38.101,32.901c-10.062,8.479 -27.812,23.855 -32.448,27.586c7.462,-1.582 22.273,-3.278 41.154,-2.261c28.152,1.47 51.555,6.332 60.939,14.246c2.714,2.374 1.131,3.392 -1.017,1.583c-7.236,-6.219 -35.388,-12.211 -60.035,-13.228c-17.637,-0.792 -29.622,0.339 -41.38,2.6c-3.053,0.565 -4.296,-2.6 -1.131,-4.975c4.184,-3.052 7.802,-7.801 32.675,-27.699c16.733,-13.341 33.805,-28.039 37.196,-31.77c3.392,-3.618 3.166,-4.409 1.809,-4.635c-6.218,-0.566 -22.612,-0.792 -37.762,0.904c-31.656,3.505 -33.691,11.758 -28.717,17.185c1.583,1.696 -0.452,2.94 -2.374,1.583c-4.07,-2.94 -7.914,-17.072 30.639,-21.029c16.055,-1.583 31.883,-1.018 39.006,-0.452Z" style="fill:#835ff1;fill-rule:nonzero;"/></g></g><g><path d="M197.515,115.717l-0,-1.619l38.489,-62.665l-36.972,0l0,-8.547l52.145,-0l-0,1.72l-38.287,62.563l37.781,0l0,8.548l-53.156,-0Z" style="fill:#fff;fill-rule:nonzero;"/><rect x="289.615" y="42.886" width="9.003" height="72.831" style="fill:#fff;fill-rule:nonzero;"/><path d="M356.883,115.717l-24.378,-72.831l9.357,-0l21.191,63.272l21.394,-63.272l9.357,-0l-24.378,72.831l-12.543,-0Z" style="fill:#fff;fill-rule:nonzero;"/><path d="M414.541,115.717l24.378,-72.831l12.543,-0l24.378,72.831l-9.357,-0l-22.81,-67.571l2.832,-0l-22.608,67.571l-9.356,-0Zm11.734,-17.045l-0,-8.446l37.831,0l0,8.446l-37.831,0Z" style="fill:#fff;fill-rule:nonzero;"/><path d="M538.151,117.234c-7.25,0 -13.403,-1.601 -18.461,-4.805c-5.057,-3.203 -8.91,-7.654 -11.557,-13.352c-2.646,-5.698 -3.97,-12.29 -3.97,-19.776c0,-7.485 1.324,-14.077 3.97,-19.775c2.647,-5.699 6.5,-10.149 11.557,-13.353c5.058,-3.203 11.211,-4.804 18.461,-4.804c7.283,-0 13.453,1.601 18.511,4.804c5.058,3.204 8.902,7.654 11.532,13.353c2.63,5.698 3.945,12.29 3.945,19.775c-0,7.486 -1.315,14.078 -3.945,19.776c-2.63,5.698 -6.474,10.149 -11.532,13.352c-5.058,3.204 -11.228,4.805 -18.511,4.805Zm-0,-8.598c5.428,0.034 9.955,-1.189 13.58,-3.667c3.624,-2.478 6.339,-5.926 8.143,-10.343c1.804,-4.417 2.706,-9.525 2.706,-15.325c-0,-5.833 -0.902,-10.941 -2.706,-15.324c-1.804,-4.384 -4.519,-7.806 -8.143,-10.268c-3.625,-2.461 -8.152,-3.709 -13.58,-3.742c-5.429,-0.034 -9.939,1.18 -13.529,3.641c-3.591,2.462 -6.297,5.901 -8.118,10.318c-1.821,4.417 -2.748,9.542 -2.782,15.375c-0.034,5.8 0.86,10.891 2.681,15.275c1.821,4.383 4.543,7.814 8.168,10.292c3.625,2.478 8.151,3.734 13.58,3.768Z" style="fill:#fff;fill-rule:nonzero;"/><path d="M607.543,115.717l-0,-72.831l9.103,-0l37.984,56.899l-0,-56.899l9.104,-0l-0,72.831l-9.104,-0l-37.984,-56.95l0,56.95l-9.103,-0Z" style="fill:#fff;fill-rule:nonzero;"/><path d="M703.184,115.717l-0,-72.831l46.025,-0l-0,8.547l-37.023,0l0,22.811l30.953,-0l0,8.547l-30.953,0l0,24.378l37.023,0l-0,8.548l-46.025,-0Z" style="fill:#fff;fill-rule:nonzero;"/></g></g></svg>