<?xml version="1.0" encoding="UTF-8" standalone="no"?><!DOCTYPE svg PUBLIC "-//W3C//DTD SVG 1.1//EN" "http://www.w3.org/Graphics/SVG/1.1/DTD/svg11.dtd"><svg width="60" height="60" viewBox="0 0 60 60" version="1.1" xmlns="http://www.w3.org/2000/svg" xmlns:xlink="http://www.w3.org/1999/xlink" xml:space="preserve" xmlns:serif="http://www.serif.com/" style="fill-rule:evenodd;clip-rule:evenodd;stroke-linejoin:round;stroke-miterlimit:2;"><g><path d="M38.465,17.328c0.021,0.041 0.044,0.08 0.073,0.117c0.026,0.033 0.057,0.067 0.091,0.093c0.033,0.029 0.072,0.055 0.111,0.078c0.042,0.023 0.086,0.044 0.13,0.06c0.047,0.015 0.093,0.028 0.14,0.036c0.049,0.008 0.101,0.013 0.151,0.013l3.682,0c0.057,0 0.117,-0.005 0.174,-0.018c0.052,-0.013 0.104,-0.031 0.153,-0.057c0.05,-0.026 0.094,-0.057 0.135,-0.096c0.042,-0.039 0.081,-0.081 0.112,-0.127c0.031,-0.045 0.054,-0.094 0.072,-0.143c0.019,-0.052 0.029,-0.109 0.034,-0.164c0.003,-0.031 0.003,-0.059 0.003,-0.091c-0,-0.028 -0.003,-0.059 -0.008,-0.088c-0.008,-0.054 -0.023,-0.109 -0.044,-0.161c-0.034,-0.083 -0.083,-0.153 -0.143,-0.215c-0.062,-0.062 -0.135,-0.112 -0.218,-0.148c-0.08,-0.036 -0.169,-0.054 -0.265,-0.054l-2.174,-0c0.789,-0.989 1.578,-1.981 2.369,-2.97c0.06,-0.072 0.107,-0.15 0.145,-0.231c0.034,-0.072 0.052,-0.15 0.052,-0.241c0,-0.096 -0.02,-0.184 -0.062,-0.272c-0.041,-0.089 -0.096,-0.164 -0.166,-0.224c-0.07,-0.062 -0.151,-0.114 -0.241,-0.15c-0.091,-0.036 -0.185,-0.055 -0.281,-0.055l-3.368,0c-0.483,0 -0.683,0.2 -0.683,0.683c0,0.483 0.2,0.682 0.683,0.682l1.814,0c-0.797,1.01 -1.596,2.017 -2.393,3.027l-0,0.002c-0.049,0.057 -0.083,0.122 -0.106,0.2c-0.024,0.08 -0.037,0.161 -0.037,0.239c0,0.052 0.005,0.101 0.016,0.15c0.013,0.039 0.028,0.083 0.049,0.125l-0,-0Z" style="fill:#b4b7c9;fill-rule:nonzero;"/><path d="M47.961,40.226c-0.008,-0.058 -0.018,-0.115 -0.031,-0.172c-0.016,-0.062 -0.036,-0.122 -0.06,-0.181c-0.07,-0.169 -0.168,-0.314 -0.293,-0.442c-0.13,-0.127 -0.28,-0.231 -0.452,-0.308c-0.163,-0.073 -0.337,-0.109 -0.542,-0.109l-5.754,-0c2.009,-2.52 4.02,-5.038 6.029,-7.558c0.13,-0.163 0.239,-0.332 0.325,-0.509c0.067,-0.14 0.103,-0.29 0.103,-0.477c0,-0.192 -0.041,-0.376 -0.124,-0.55c-0.088,-0.187 -0.2,-0.338 -0.343,-0.465c-0.148,-0.132 -0.316,-0.239 -0.514,-0.319c-0.187,-0.078 -0.381,-0.117 -0.584,-0.117l-8.128,0c-0.773,0 -1.401,0.628 -1.401,1.402c-0,0.773 0.628,1.401 1.401,1.401l4.882,0c-2.03,2.567 -4.056,5.131 -6.086,7.698c-0.003,0.002 -0.003,0.005 -0.005,0.005c-0.096,0.112 -0.161,0.236 -0.208,0.392c-0.049,0.171 -0.075,0.34 -0.075,0.508c-0,0.104 0.008,0.211 0.031,0.312c0.021,0.091 0.052,0.179 0.091,0.265c0.039,0.083 0.088,0.163 0.145,0.236c0.055,0.07 0.117,0.135 0.184,0.192c0.073,0.06 0.151,0.114 0.234,0.161c0.088,0.049 0.179,0.091 0.273,0.124c0.098,0.034 0.197,0.06 0.301,0.078c0.106,0.018 0.215,0.026 0.324,0.026l8.884,0c0.07,0 0.137,-0.002 0.207,-0.013c0.065,-0.008 0.133,-0.021 0.197,-0.039c0.06,-0.015 0.12,-0.036 0.177,-0.059c0.057,-0.024 0.114,-0.055 0.166,-0.086c0.055,-0.034 0.106,-0.073 0.156,-0.112c0.052,-0.041 0.101,-0.088 0.145,-0.135c0.088,-0.093 0.164,-0.197 0.221,-0.311c0.028,-0.055 0.052,-0.112 0.07,-0.169c0.021,-0.059 0.036,-0.122 0.047,-0.187c0.01,-0.054 0.015,-0.109 0.02,-0.166c0.003,-0.036 0.003,-0.07 0.003,-0.106c-0,-0.036 -0,-0.073 -0.003,-0.107c-0.008,-0.036 -0.01,-0.07 -0.013,-0.103l0,-0Z" style="fill:#b4b7c9;fill-rule:nonzero;"/><path d="M59.443,38.448c-0.013,-0.088 -0.037,-0.174 -0.071,-0.254c-0.054,-0.13 -0.129,-0.244 -0.225,-0.34c-0.099,-0.099 -0.213,-0.176 -0.343,-0.234c-0.127,-0.057 -0.265,-0.085 -0.42,-0.085l-3.437,-0c1.246,-1.563 2.495,-3.128 3.74,-4.69c0.094,-0.117 0.169,-0.236 0.231,-0.363c0.055,-0.114 0.083,-0.239 0.083,-0.384c0,-0.151 -0.031,-0.294 -0.096,-0.429c-0.067,-0.14 -0.153,-0.256 -0.262,-0.355c-0.111,-0.099 -0.236,-0.179 -0.384,-0.239c-0.143,-0.057 -0.291,-0.088 -0.444,-0.088l-5.323,-0c-0.594,-0 -1.077,0.483 -1.077,1.077c0,0.594 0.483,1.077 1.077,1.077l2.866,-0c-1.259,1.593 -2.52,3.187 -3.779,4.778c-0,-0 -0,0.002 -0.003,0.002c-0.075,0.091 -0.132,0.193 -0.166,0.315c-0.036,0.127 -0.057,0.251 -0.057,0.376c0,0.08 0.008,0.161 0.023,0.239c0.016,0.072 0.039,0.14 0.073,0.207c0.031,0.065 0.07,0.127 0.114,0.184c0.042,0.055 0.091,0.104 0.143,0.151c0.054,0.047 0.114,0.086 0.176,0.122c0.065,0.036 0.133,0.067 0.205,0.093c0.073,0.026 0.148,0.045 0.224,0.058c0.078,0.012 0.158,0.018 0.238,0.018l5.816,-0c0.091,-0 0.185,-0.011 0.276,-0.031c0.083,-0.021 0.166,-0.05 0.241,-0.089c0.078,-0.041 0.15,-0.093 0.215,-0.15c0.068,-0.06 0.128,-0.127 0.179,-0.203c0.047,-0.07 0.086,-0.148 0.115,-0.225c0.028,-0.084 0.046,-0.172 0.054,-0.26c0.005,-0.047 0.005,-0.096 0.005,-0.143c0.003,-0.041 0,-0.088 -0.007,-0.135l-0,0Z" style="fill:#b4b7c9;fill-rule:nonzero;"/><path d="M27.152,17.099c-0.77,0 -1.398,0.626 -1.398,1.399c-0,0.771 0.625,1.399 1.398,1.399l3.719,0c-1.635,2.066 -3.267,4.134 -4.902,6.2l-0.003,0.003c-0.098,0.117 -0.171,0.249 -0.215,0.407c-0.049,0.164 -0.073,0.327 -0.073,0.491c0,0.104 0.008,0.207 0.031,0.309c0.021,0.093 0.052,0.184 0.094,0.27c0.041,0.085 0.091,0.163 0.148,0.238c0.054,0.07 0.117,0.135 0.187,0.195c0.07,0.06 0.148,0.112 0.228,0.158c0.086,0.047 0.174,0.089 0.265,0.12c0.093,0.033 0.192,0.059 0.29,0.075c0.104,0.018 0.208,0.026 0.312,0.026l7.547,-0c0.119,-0 0.238,-0.013 0.355,-0.039c0.109,-0.026 0.216,-0.065 0.314,-0.117c0.102,-0.052 0.195,-0.119 0.281,-0.194c0.088,-0.078 0.166,-0.167 0.231,-0.263c0.062,-0.09 0.111,-0.189 0.15,-0.293c0.039,-0.109 0.062,-0.22 0.07,-0.335c0.005,-0.062 0.008,-0.124 0.005,-0.184c-0.002,-0.06 -0.005,-0.122 -0.015,-0.182c-0.016,-0.114 -0.047,-0.225 -0.091,-0.329c-0.07,-0.169 -0.169,-0.314 -0.293,-0.441c-0.127,-0.128 -0.275,-0.229 -0.447,-0.304c-0.166,-0.073 -0.345,-0.112 -0.545,-0.112l-4.458,0c1.616,-2.029 3.236,-4.056 4.853,-6.086c0.119,-0.15 0.22,-0.306 0.298,-0.472c0.07,-0.148 0.109,-0.309 0.109,-0.496c0,-0.194 -0.041,-0.379 -0.124,-0.555c-0.086,-0.182 -0.198,-0.332 -0.34,-0.459c-0.143,-0.13 -0.307,-0.231 -0.499,-0.309c-0.184,-0.075 -0.376,-0.114 -0.573,-0.114c-2.305,-0.006 -4.607,-0.006 -6.908,-0.006l-0.001,0Z" style="fill:#b4b7c9;fill-rule:nonzero;"/><path d="M45.958,22.36c0.042,0.086 0.091,0.164 0.148,0.239c0.054,0.07 0.117,0.135 0.187,0.194c0.07,0.06 0.148,0.112 0.228,0.159c0.086,0.047 0.174,0.088 0.265,0.119c0.093,0.034 0.192,0.06 0.291,0.075c0.103,0.019 0.207,0.026 0.311,0.026l7.547,0c0.119,0 0.239,-0.013 0.355,-0.039c0.109,-0.025 0.216,-0.064 0.314,-0.116c0.102,-0.052 0.195,-0.12 0.281,-0.195c0.088,-0.078 0.166,-0.166 0.231,-0.262c0.062,-0.091 0.111,-0.19 0.15,-0.293c0.039,-0.109 0.063,-0.221 0.07,-0.335c0.006,-0.062 0.008,-0.125 0.006,-0.184c-0.003,-0.06 -0.006,-0.122 -0.016,-0.182c-0.016,-0.114 -0.047,-0.226 -0.091,-0.332c-0.07,-0.169 -0.169,-0.314 -0.293,-0.441c-0.127,-0.128 -0.275,-0.229 -0.447,-0.304c-0.166,-0.073 -0.345,-0.112 -0.545,-0.112l-4.458,0c1.617,-2.029 3.236,-4.056 4.853,-6.086c0.119,-0.15 0.221,-0.306 0.298,-0.472c0.07,-0.148 0.109,-0.309 0.109,-0.496c0,-0.194 -0.041,-0.379 -0.124,-0.555c-0.086,-0.182 -0.197,-0.332 -0.34,-0.459c-0.143,-0.13 -0.306,-0.231 -0.498,-0.309c-0.185,-0.076 -0.377,-0.115 -0.577,-0.115l-6.906,0c-0.771,0 -1.399,0.626 -1.399,1.399c0,0.771 0.626,1.399 1.399,1.399l3.719,0c-1.635,2.066 -3.267,4.135 -4.902,6.2l-0.003,0.003c-0.099,0.117 -0.171,0.252 -0.215,0.407c-0.05,0.164 -0.073,0.327 -0.073,0.491c-0,0.104 0.008,0.208 0.031,0.309c0.021,0.091 0.052,0.179 0.094,0.267l0,0Z" style="fill:#b4b7c9;fill-rule:nonzero;"/><path d="M44.409,47.472c-0.27,0.055 -0.543,0.109 -0.813,0.164c-8.865,1.79 -17.886,-2.258 -22.441,-10.07c0.493,-0.254 0.971,-0.529 1.433,-0.833c1.243,-0.81 1.84,-2.315 1.492,-3.755c-0.231,-0.955 -0.662,-1.651 -1.414,-2.282c-3.387,-2.841 -4.542,-7.546 -2.871,-11.637c2.188,-5.453 6.546,-9.753 12.029,-11.861c0.257,-0.098 0.516,-0.197 0.773,-0.298c2.606,-1.002 2.043,-4.841 -0.739,-5.053c-0.275,-0.021 -0.55,-0.042 -0.826,-0.063c-19.711,-1.518 -34.86,17.134 -29.334,36.116c5.526,18.982 28.317,26.589 44.136,14.731c0.22,-0.166 0.441,-0.332 0.662,-0.498c2.234,-1.674 0.648,-5.214 -2.087,-4.661l-0,0Zm-40.017,-10.358c-4.977,-17.097 8.669,-33.899 26.425,-32.534c-6.208,2.387 -11.144,7.251 -13.623,13.425c-2.133,5.217 -0.651,11.214 3.668,14.837c0.262,0.221 0.412,0.462 0.49,0.794c0.083,0.348 0.003,0.551 -0.296,0.745c-0.885,0.576 -1.809,1.033 -2.803,1.389c-0.519,0.184 -0.765,0.776 -0.532,1.277c4.674,10.015 15.598,15.524 26.43,13.337c-14.25,10.682 -34.782,3.83 -39.759,-13.27l0,0Z" style="fill:#b4b7c9;fill-rule:nonzero;"/><path d="M12.853,28.132c-1.21,0.828 -2.806,0.828 -4.015,-0c-1.487,-0.792 -2.86,1.217 -1.583,2.315c2.164,1.479 5.016,1.479 7.181,-0c1.274,-1.098 -0.099,-3.104 -1.583,-2.315l-0,-0Z" style="fill:#b4b7c9;fill-rule:nonzero;"/></g></svg>