<?xml version="1.0" encoding="UTF-8" standalone="no"?><!DOCTYPE svg PUBLIC "-//W3C//DTD SVG 1.1//EN" "http://www.w3.org/Graphics/SVG/1.1/DTD/svg11.dtd"><svg width="100%" height="100%" viewBox="0 0 97 97" version="1.1" xmlns="http://www.w3.org/2000/svg" xmlns:xlink="http://www.w3.org/1999/xlink" xml:space="preserve" xmlns:serif="http://www.serif.com/" style="fill-rule:evenodd;clip-rule:evenodd;stroke-linejoin:round;stroke-miterlimit:2;"><rect id="Artboard1" x="0" y="0" width="96.768" height="96.768" style="fill:none;"/><g><g><path d="M51.184,2.384c-0.6,-0.9 -1.7,-1.5 -2.8,-1.5c-1.1,0 -2.2,0.6 -2.8,1.5c-3,4.6 -29.7,45.1 -29.7,61.5c0,17.6 14.6,32 32.5,32c17.9,0 32.5,-14.4 32.5,-32c0,-16.4 -26.7,-56.9 -29.7,-61.5Zm-2.8,86.8c-14.2,0 -25.8,-11.4 -25.8,-25.3c0,-10.9 16.6,-39.2 25.8,-53.5c9.2,14.3 25.8,42.6 25.8,53.5c0,14 -11.6,25.3 -25.8,25.3Z" style="fill:#835ff1;fill-rule:nonzero;"/><path d="M62.484,47.384c-1.3,-1.3 -3.4,-1.3 -4.7,0l-23.5,23.4c-1.3,1.3 -1.3,3.4 0,4.7c0.7,0.7 1.5,1 2.4,1c0.9,0 1.7,-0.3 2.4,-1l23.4,-23.4c1.3,-1.2 1.3,-3.4 0,-4.7Z" style="fill:#835ff1;fill-rule:nonzero;"/><path d="M58.284,65.284c-3,0 -5.5,2.5 -5.5,5.5c0,3 2.5,5.5 5.5,5.5c3,0 5.5,-2.5 5.5,-5.5c0,-3 -2.5,-5.5 -5.5,-5.5Z" style="fill:#835ff1;fill-rule:nonzero;"/><path d="M38.484,57.584c3,0 5.5,-2.5 5.5,-5.5c0,-3 -2.5,-5.5 -5.5,-5.5c-3,0 -5.5,2.5 -5.5,5.5c0,3.1 2.5,5.5 5.5,5.5Z" style="fill:#835ff1;fill-rule:nonzero;"/></g></g></svg>