<svg width="60" height="60" viewBox="0 0 60 60" version="1.1" xmlns="http://www.w3.org/2000/svg" xmlns:xlink="http://www.w3.org/1999/xlink" xml:space="preserve" xmlns:serif="http://www.serif.com/" style="fill-rule:evenodd;clip-rule:evenodd;stroke-linejoin:round;stroke-miterlimit:2;"><g><g><path d="M31.757,1.138c-0.377,-0.565 -1.067,-0.941 -1.757,-0.941c-0.69,0 -1.38,0.376 -1.757,0.941c-1.882,2.886 -18.635,28.297 -18.635,38.587c0,11.043 9.161,20.078 20.392,20.078c11.231,0 20.392,-9.035 20.392,-20.078c-0,-10.29 -16.753,-35.701 -18.635,-38.587Zm-1.757,54.461c-8.91,0 -16.188,-7.153 -16.188,-15.874c0,-6.839 10.416,-24.595 16.188,-33.567c5.772,8.972 16.188,26.728 16.188,33.567c-0,8.784 -7.278,15.874 -16.188,15.874Z" style="fill:#b4b7c9;fill-rule:nonzero;"/><path d="M38.847,29.373c-0.816,-0.816 -2.133,-0.816 -2.949,-0l-14.745,14.681c-0.815,0.816 -0.815,2.134 0,2.949c0.439,0.44 0.941,0.628 1.506,0.628c0.565,-0 1.067,-0.188 1.506,-0.628l14.682,-14.682c0.815,-0.752 0.815,-2.133 -0,-2.948Z" style="fill:#b4b7c9;fill-rule:nonzero;"/><path d="M36.212,40.604c-1.883,-0 -3.451,1.568 -3.451,3.45c-0,1.883 1.568,3.451 3.451,3.451c1.882,0 3.45,-1.568 3.45,-3.451c0,-1.882 -1.568,-3.45 -3.45,-3.45Z" style="fill:#b4b7c9;fill-rule:nonzero;"/><path d="M23.788,35.772c1.883,0 3.451,-1.568 3.451,-3.451c0,-1.882 -1.568,-3.45 -3.451,-3.45c-1.882,-0 -3.45,1.568 -3.45,3.45c-0,1.946 1.568,3.451 3.45,3.451Z" style="fill:#b4b7c9;fill-rule:nonzero;"/></g></g></svg>