<?xml version="1.0" encoding="UTF-8" standalone="no"?><!DOCTYPE svg PUBLIC "-//W3C//DTD SVG 1.1//EN" "http://www.w3.org/Graphics/SVG/1.1/DTD/svg11.dtd"><svg width="100%" height="100%" viewBox="0 0 16 16" version="1.1" xmlns="http://www.w3.org/2000/svg" xmlns:xlink="http://www.w3.org/1999/xlink" xml:space="preserve" xmlns:serif="http://www.serif.com/" style="fill-rule:evenodd;clip-rule:evenodd;stroke-linejoin:round;stroke-miterlimit:2;"><g><path d="M2.283,12.836c0.15,0.176 0.309,0.345 0.475,0.506c0.56,0.551 1.227,1.015 1.943,1.365c0.264,0.123 0.508,0.251 0.793,0.362c0.071,0.027 0.144,0.056 0.221,0.083c0.077,0.024 0.157,0.049 0.24,0.073c0.084,0.026 0.172,0.044 0.265,0.063c0.093,0.019 0.189,0.04 0.293,0.051c-0.514,-0.108 -1.014,-0.271 -1.493,-0.485c-0.482,-0.217 -0.94,-0.485 -1.366,-0.797c-0.855,-0.626 -1.585,-1.429 -2.119,-2.347c-0.022,-0.028 -0.055,-0.08 -0.095,-0.147l-0.065,-0.109l-0.065,-0.126c-0.043,-0.087 -0.093,-0.175 -0.131,-0.261c-0.034,-0.075 -0.07,-0.149 -0.107,-0.222c0.165,0.413 0.357,0.774 0.571,1.118c0.099,0.157 0.203,0.311 0.313,0.461c-0.015,-0.021 -0.031,-0.041 -0.047,-0.063c0.118,0.163 0.242,0.321 0.373,0.473l0.001,0.002Zm-0.374,-0.475l-0.01,-0.013l0.01,0.013Zm-1.353,-3.485l-0.039,-0.313c0.021,0.191 0.045,0.405 0.089,0.619l-0.026,-0.152c-0.01,-0.051 -0.018,-0.102 -0.024,-0.154Zm6.841,6.441c0.539,0.054 1.104,0.038 1.657,-0.049c0.554,-0.088 1.095,-0.242 1.599,-0.442c-0.928,0.365 -1.912,0.527 -2.874,0.5c-0.129,-0.002 -0.256,-0 -0.382,-0.009Z" style="fill:#835ff1;fill-rule:nonzero;"/><path d="M7.398,15.305c-0.006,-0 -0.012,0.005 -0.012,0.011c-0.001,0.006 0.004,0.012 0.01,0.012c0.54,0.055 1.106,0.039 1.66,-0.049c0.554,-0.087 1.097,-0.242 1.601,-0.442c0.006,-0.002 0.009,-0.009 0.006,-0.015c-0.002,-0.006 -0.009,-0.009 -0.015,-0.007c-0.925,0.365 -1.908,0.526 -2.869,0.499c0,0 -0,0 -0,0c-0.129,-0.002 -0.255,0 -0.381,-0.009Zm-5.507,-2.952l-0.001,0.002l0.01,0.013l-0,0l-0,0c0.118,0.163 0.242,0.321 0.373,0.474l0.001,0.001l0,0.001l0,-0c0.151,0.176 0.309,0.345 0.476,0.507c0.56,0.551 1.229,1.015 1.946,1.366c0,0 0,0 0.001,0c0.264,0.124 0.507,0.252 0.793,0.362c-0,0 -0,0 -0,0c0.071,0.028 0.144,0.057 0.221,0.084c-0,-0 -0,-0 0,-0c0.077,0.024 0.157,0.049 0.241,0.073c0.084,0.026 0.173,0.045 0.266,0.064c-0,-0 -0,-0 -0,-0c0.093,0.019 0.19,0.04 0.293,0.051c0.007,0 0.012,-0.004 0.013,-0.01c0.001,-0.006 -0.003,-0.012 -0.009,-0.013c-0.513,-0.108 -1.012,-0.271 -1.49,-0.485c-0.482,-0.217 -0.939,-0.483 -1.365,-0.795c-0.852,-0.625 -1.582,-1.427 -2.115,-2.344c-0,-0.001 -0,-0.001 -0.001,-0.002c-0.022,-0.027 -0.055,-0.079 -0.094,-0.145c-0,0 -0.065,-0.109 -0.065,-0.109c0,0 -0.065,-0.125 -0.065,-0.125c-0.043,-0.087 -0.092,-0.175 -0.13,-0.261c-0,0 -0,0 -0.001,0c-0.034,-0.075 -0.07,-0.149 -0.107,-0.223c-0.003,-0.005 -0.01,-0.008 -0.015,-0.005c-0.006,0.003 -0.009,0.009 -0.006,0.015c0.166,0.414 0.358,0.776 0.572,1.12c0,-0 0,-0 0,-0c0.082,0.131 0.168,0.259 0.258,0.384Zm3.698,2.74c0.164,0.057 0.329,0.109 0.496,0.155c-0.043,-0.011 -0.085,-0.021 -0.126,-0.034c-0,-0 -0,-0 -0,-0c-0.084,-0.024 -0.164,-0.049 -0.241,-0.073c-0.044,-0.016 -0.087,-0.032 -0.129,-0.048Zm-4.198,-3.589l0.039,0.065c0.04,0.067 0.073,0.119 0.096,0.147c0.534,0.92 1.265,1.724 2.121,2.35c0.029,0.022 0.059,0.044 0.089,0.065c-0.348,-0.239 -0.674,-0.506 -0.97,-0.797c-0,-0 -0,-0 -0,-0c-0.166,-0.161 -0.324,-0.33 -0.474,-0.505l-0.001,-0.002c-0.113,-0.131 -0.22,-0.267 -0.323,-0.405c-0,-0.002 -0.001,-0.004 -0.002,-0.005c-0.11,-0.15 -0.214,-0.303 -0.313,-0.461c-0.091,-0.146 -0.179,-0.296 -0.262,-0.452Zm0.903,1.328c0.001,0.003 0.001,0.006 -0,0.009c-0.002,0.004 -0.006,0.007 -0.011,0.007c0,-0 0.014,-0.007 0.011,-0.016Zm-0.002,-0.003l0,0l0,0Zm-1.724,-3.954c-0,0 -0,0 -0,0l-0.039,-0.314c-0.001,-0.006 -0.007,-0.011 -0.013,-0.01c-0.006,0.001 -0.011,0.007 -0.01,0.013c0.021,0.192 0.045,0.406 0.089,0.621c0.001,0.006 0.007,0.01 0.013,0.009c0.006,-0.001 0.011,-0.007 0.01,-0.014l-0.027,-0.152c0,0 0,0 0,0c-0.01,-0.051 -0.017,-0.102 -0.023,-0.153Z" style="fill:#835ff1;"/><path d="M0.52,7.05c0.069,-0.559 0.215,-1.104 0.354,-1.467l-0.056,0.266c0.035,-0.078 0.091,-0.259 0.167,-0.45l0.055,-0.146l0.061,-0.141c0.041,-0.092 0.075,-0.179 0.111,-0.245c-0.025,0.062 -0.048,0.129 -0.077,0.197c-0.028,0.068 -0.059,0.137 -0.089,0.206l0.122,-0.276c-0.123,0.31 -0.23,0.626 -0.318,0.948c-0.092,0.352 -0.165,0.723 -0.204,1.055c-0.011,0.083 -0.015,0.164 -0.022,0.241c-0.006,0.077 -0.015,0.151 -0.016,0.221c-0.003,0.139 -0.008,0.261 -0.006,0.358c0.009,0.195 0.02,0.293 0.037,0.238c0.034,-0.108 0.033,-0.663 0.149,-1.357c0.062,-0.347 0.151,-0.726 0.272,-1.099c0.12,-0.372 0.278,-0.733 0.441,-1.052l-0.048,0.105l-0.044,0.108l-0.091,0.218l-0.082,0.225l-0.043,0.113c-0.012,0.039 -0.025,0.078 -0.037,0.116c-0.107,0.309 -0.187,0.633 -0.256,0.961l-0.046,0.247c-0.016,0.082 -0.023,0.165 -0.036,0.248c-0.025,0.165 -0.035,0.332 -0.049,0.496c-0.016,0.33 -0.019,0.656 0.01,0.968c-0.001,-0.074 -0.002,-0.14 -0.001,-0.204l0.009,-0.19c0.004,-0.066 0.003,-0.135 0.01,-0.215c0.005,-0.08 0.01,-0.169 0.015,-0.275c0.032,-0.536 0.127,-1.065 0.276,-1.578c0.142,-0.515 0.309,-0.968 0.558,-1.379l0.065,-0.124c0.044,-0.082 0.08,-0.164 0.127,-0.248c0.052,-0.091 0.103,-0.16 0.144,-0.222c0.042,-0.063 0.078,-0.117 0.119,-0.17l0.298,-0.412c0.006,-0 -0.002,0.015 -0.016,0.039c0.049,-0.07 0.102,-0.138 0.159,-0.202c0.061,-0.071 0.12,-0.146 0.17,-0.208c0.012,-0.001 0.024,-0.001 0.051,-0.02c0.7,-0.745 1.562,-1.352 2.534,-1.735l0.216,-0.084l0.218,-0.073l0.109,-0.036l0.11,-0.031l0.22,-0.061c0.125,-0.03 0.252,-0.06 0.382,-0.088l0.197,-0.034c0.067,-0.012 0.133,-0.025 0.201,-0.031c0.136,-0.016 0.254,-0.051 0.318,-0.059c0.354,-0.02 0.707,-0.016 1.121,0.017c0.032,0.001 0.082,0.004 0.141,0.007c0.058,0.003 0.124,0.005 0.188,0.011c0.076,0.017 0.156,0.034 0.241,0.05c0.516,0.08 1.014,0.223 1.489,0.413l-0.001,-0.002l0.182,0.073l0.185,0.085c0.128,0.056 0.252,0.126 0.381,0.193c0.065,0.033 0.126,0.073 0.189,0.11c0.063,0.038 0.128,0.072 0.188,0.114c0.122,0.081 0.246,0.159 0.36,0.246c0.184,0.132 0.362,0.273 0.535,0.421c0.003,0.003 0.007,0.006 0.011,0.01l0.003,0.003l0.118,0.107l0.113,0.112l0.113,0.113c0.038,0.038 0.072,0.078 0.108,0.117c-0.017,-0.028 -0.016,-0.039 -0.016,-0.051c-0.055,-0.053 -0.121,-0.116 -0.187,-0.179c0.109,0.099 0.204,0.189 0.282,0.262c0.03,0.038 0.063,0.076 0.094,0.117l0.096,0.127l0.102,0.132l0.102,0.142c0.18,0.23 0.339,0.475 0.49,0.726c0.07,0.129 0.147,0.254 0.209,0.387l0.099,0.197l0.088,0.202c0.026,0.043 0.016,0.002 0.019,-0.005c0.099,0.24 0.179,0.489 0.251,0.74c0.138,0.455 0.231,0.921 0.276,1.394c0.018,0.112 0.026,0.224 0.042,0.336l-0.01,0.237c0,0.089 0.005,0.179 0.001,0.268l-0.01,0.27c-0.002,0.06 -0.01,0.127 -0.016,0.199c-0.006,0.072 -0.01,0.149 -0.02,0.231l-0.034,0.258c-0.01,0.091 -0.031,0.184 -0.047,0.281c-0.079,0.428 -0.196,0.847 -0.349,1.254c-0.02,0.067 -0.035,0.12 -0.048,0.15c-0.051,0.122 -0.105,0.24 -0.157,0.355c-0.059,0.113 -0.112,0.226 -0.172,0.333c-0.186,0.352 -0.401,0.687 -0.644,1.003c-0.027,0.035 -0.053,0.071 -0.08,0.105l-0.081,0.097c-0.053,0.063 -0.101,0.126 -0.152,0.181c-0.101,0.11 -0.186,0.211 -0.266,0.287c-0.091,0.096 -0.083,0.1 -0.02,0.054c0.045,-0.032 0.088,-0.067 0.13,-0.102l0.172,-0.155c0.063,-0.055 0.123,-0.117 0.181,-0.175c0.058,-0.059 0.115,-0.112 0.159,-0.16c0.089,-0.097 0.148,-0.156 0.135,-0.13c-0.144,0.271 -0.406,0.605 -0.789,0.975c-0.195,0.18 -0.415,0.376 -0.675,0.565c-0.127,0.099 -0.268,0.189 -0.411,0.288c-0.149,0.091 -0.301,0.19 -0.467,0.279c-0.363,0.198 0.273,-0.12 0.29,-0.123c-0.061,0.049 -0.126,0.093 -0.192,0.133c-0.12,0.064 -0.239,0.13 -0.363,0.184c-0.072,0.034 -0.143,0.07 -0.217,0.101l-0.221,0.091l0.117,-0.046c0.239,-0.095 0.463,-0.207 0.664,-0.318c-0.075,0.046 -0.158,0.099 -0.249,0.147c-0.098,0.05 -0.198,0.105 -0.3,0.154l-0.293,0.137c1.05,-0.382 2.015,-1.013 2.779,-1.836c0.382,-0.41 0.724,-0.861 1.002,-1.348c0.279,-0.487 0.505,-1.003 0.671,-1.539c-0.256,0.804 -0.654,1.543 -1.132,2.168c0.87,-1.175 1.388,-2.615 1.457,-4.101c0,0.082 -0.008,0.164 -0.013,0.245c-0.007,0.082 -0.01,0.164 -0.02,0.245c-0.021,0.162 -0.036,0.325 -0.067,0.486c-0.05,0.324 -0.132,0.643 -0.225,0.957c0.183,-0.568 0.292,-1.168 0.335,-1.771c0.045,-0.603 0.008,-1.21 -0.085,-1.798c0.16,0.779 0.186,1.662 0.05,2.534c0.096,-0.563 0.12,-1.143 0.083,-1.718c-0.008,-0.219 -0.034,-0.438 -0.055,-0.64c-0.031,-0.2 -0.054,-0.385 -0.083,-0.535c0.117,0.553 0.163,1.024 0.185,1.469c-0.021,-0.97 -0.222,-1.953 -0.617,-2.876c0.216,0.501 0.392,1.041 0.5,1.595c0.109,0.554 0.154,1.121 0.128,1.666c-0.001,-0.064 0.002,-0.128 -0.002,-0.192l-0.009,-0.193c0.023,0.878 -0.112,1.749 -0.38,2.568c-0.135,0.41 -0.301,0.807 -0.502,1.186c-0.201,0.378 -0.433,0.739 -0.693,1.078c0.297,-0.347 0.611,-0.838 0.862,-1.378c0.249,-0.54 0.435,-1.125 0.562,-1.635c-0.187,0.917 -0.559,1.821 -1.099,2.629c-0.538,0.809 -1.243,1.52 -2.059,2.065c-0.814,0.548 -1.739,0.926 -2.687,1.113c-0.471,0.094 -0.95,0.143 -1.43,0.147c-0.471,0.002 -0.942,-0.039 -1.406,-0.123l0.244,0.047c0.081,0.015 0.163,0.023 0.245,0.036c0.163,0.026 0.328,0.036 0.492,0.051c0.33,0.018 0.662,0.025 0.992,-0.001c0.332,-0.017 0.661,-0.067 0.988,-0.127c0.163,-0.037 0.327,-0.067 0.487,-0.114c0.081,-0.023 0.162,-0.043 0.242,-0.068l0.239,-0.077c-0.12,0.037 -0.247,0.087 -0.383,0.123l-0.17,0.05c0.357,-0.095 0.706,-0.217 1.045,-0.364c0.155,-0.068 0.308,-0.141 0.458,-0.219c-0.281,0.149 -0.571,0.281 -0.868,0.395c-0.566,0.211 -1.155,0.357 -1.754,0.435c-0.09,0.015 -0.172,0.019 -0.245,0.027l-0.197,0.019c-0.116,0.009 -0.201,0.014 -0.261,0.02c-0.119,0.012 -0.136,0.023 -0.089,0.032c0.048,0.009 0.16,0.017 0.298,0.021c0.137,-0.001 0.3,-0.009 0.448,-0.022c1.49,-0.153 2.858,-0.738 3.954,-1.613c1.097,-0.875 1.937,-2.038 2.405,-3.358c0.03,-0.076 0.052,-0.155 0.077,-0.234c0.023,-0.078 0.05,-0.156 0.071,-0.236c0.04,-0.159 0.087,-0.317 0.117,-0.479l0.05,-0.241l0.04,-0.244l0.019,-0.122l0.014,-0.123l0.028,-0.246c0.056,-0.657 0.034,-1.321 -0.066,-1.973c-0.053,-0.369 -0.147,-0.806 -0.268,-1.196l-0.093,-0.282c-0.033,-0.09 -0.067,-0.175 -0.098,-0.254l-0.045,-0.115l-0.046,-0.103l-0.08,-0.172c-0.253,-0.515 -0.572,-1.006 -0.946,-1.463c-0.372,-0.456 -0.801,-0.88 -1.284,-1.248l-0.182,-0.138l-0.188,-0.13l-0.095,-0.065l-0.097,-0.062l-0.196,-0.122c-0.266,-0.154 -0.54,-0.303 -0.828,-0.426c-0.285,-0.129 -0.583,-0.234 -0.887,-0.328c-0.154,-0.042 -0.306,-0.089 -0.464,-0.122c-0.078,-0.016 -0.156,-0.037 -0.235,-0.051l-0.238,-0.042c-0.571,-0.101 -1.164,-0.125 -1.756,-0.08c-0.592,0.046 -1.187,0.158 -1.757,0.352l-0.213,0.074c-0.072,0.024 -0.14,0.055 -0.211,0.083c-0.069,0.029 -0.14,0.054 -0.208,0.086l-0.205,0.095c-0.069,0.031 -0.136,0.066 -0.202,0.101l-0.2,0.105l-0.195,0.114c-0.065,0.039 -0.13,0.076 -0.192,0.118l-0.188,0.124c-0.063,0.04 -0.122,0.087 -0.183,0.131c-0.06,0.045 -0.122,0.086 -0.18,0.134l-0.175,0.14c-0.059,0.046 -0.115,0.096 -0.17,0.145l-0.167,0.149l-0.16,0.155c-0.053,0.052 -0.107,0.103 -0.156,0.158c-0.408,0.429 -0.766,0.897 -1.058,1.392c-0.287,0.486 -0.523,1.001 -0.702,1.536c-0.354,1.046 -0.421,2.105 -0.348,1.547Zm11.429,7.324c0.246,-0.159 0.483,-0.332 0.709,-0.518c-0.23,0.19 -0.466,0.365 -0.709,0.518Zm3.256,-4.396c-0.024,0.073 -0.044,0.145 -0.071,0.214l-0.078,0.204l-0.037,0.101l-0.042,0.1c-0.028,0.067 -0.055,0.135 -0.081,0.203c-0.15,0.373 -0.328,0.734 -0.533,1.081c-0.204,0.346 -0.441,0.67 -0.694,0.975c-0.124,0.153 -0.26,0.296 -0.394,0.439l-0.209,0.204c-0.069,0.068 -0.144,0.13 -0.215,0.194c-0.06,0.052 -0.12,0.103 -0.18,0.153c0.224,-0.185 0.438,-0.382 0.639,-0.592c-0.291,0.302 -0.608,0.578 -0.946,0.825c-0.084,0.058 -0.165,0.121 -0.252,0.176l-0.263,0.168l-0.278,0.157c-0.095,0.053 -0.194,0.099 -0.294,0.151c0.071,-0.043 0.144,-0.083 0.217,-0.123c0.083,-0.045 0.169,-0.1 0.254,-0.149c0.085,-0.049 0.163,-0.102 0.228,-0.147c0.064,-0.045 0.115,-0.082 0.141,-0.106c-0.038,0.026 -0.076,0.05 -0.114,0.075c0.041,-0.027 0.082,-0.055 0.122,-0.082c-0.002,0.002 -0.005,0.004 -0.008,0.007c0.885,-0.605 1.639,-1.399 2.204,-2.305c0.568,-0.905 0.937,-1.925 1.09,-2.964c-0.033,0.417 -0.109,0.749 -0.206,1.041Zm-1.223,-6.32c0.244,0.368 0.455,0.757 0.63,1.162c0.02,0.044 0.039,0.09 0.058,0.135c0.402,0.984 0.585,2.04 0.558,3.08c0.007,-0.344 -0.016,-0.688 -0.054,-1.029c-0.043,-0.393 -0.123,-0.782 -0.229,-1.162c-0.207,-0.761 -0.544,-1.483 -0.972,-2.142c0.039,0.055 0.081,0.113 0.123,0.176c0.046,0.064 0.089,0.131 0.129,0.199l-0.051,-0.09l-0.056,-0.087l-0.112,-0.175c-0.076,-0.115 -0.158,-0.226 -0.237,-0.339c-0.086,-0.108 -0.168,-0.22 -0.257,-0.325c-0.068,-0.077 -0.133,-0.157 -0.202,-0.233c0.243,0.256 0.47,0.53 0.672,0.83Zm-5.688,-3.275c0.119,0.006 0.238,0.018 0.357,0.027c0.097,0.008 0.194,0.022 0.29,0.033c0.029,0.001 0.06,0.003 0.098,0.007c0.038,0.006 0.084,0.016 0.143,0.029c0.443,0.074 0.847,0.185 1.134,0.3c0.55,0.208 1.062,0.467 1.527,0.767c0.465,0.298 0.882,0.638 1.235,1.009c0.162,0.177 0.115,0.138 0.025,0.053l0.135,0.143c-0.06,-0.06 -0.118,-0.12 -0.179,-0.178l-0.186,-0.169c0.045,0.039 0.155,0.134 0.23,0.204c-0.598,-0.611 -1.298,-1.118 -2.055,-1.491c-0.757,-0.372 -1.573,-0.602 -2.389,-0.694c0.131,0.014 0.196,0.017 0.257,0.019c-0.088,-0.01 -0.176,-0.024 -0.265,-0.032c-0.12,-0.008 -0.24,-0.019 -0.358,-0.025l-0.353,-0.008c0.116,-0 0.235,0.003 0.354,0.006Z" style="fill:#835ff1;fill-rule:nonzero;"/><path d="M0.526,9.549c0.114,0.552 0.303,1.083 0.471,1.433l-0.077,-0.26c0.041,0.075 0.111,0.25 0.203,0.435l0.067,0.141l0.072,0.136c0.048,0.088 0.089,0.172 0.13,0.235c-0.03,-0.06 -0.059,-0.125 -0.093,-0.19c-0.033,-0.065 -0.07,-0.132 -0.105,-0.198l0.145,0.265c-0.149,-0.299 -0.281,-0.606 -0.395,-0.919c-0.12,-0.344 -0.222,-0.707 -0.288,-1.035c-0.018,-0.082 -0.029,-0.163 -0.042,-0.239c-0.012,-0.076 -0.027,-0.149 -0.034,-0.219c-0.014,-0.138 -0.029,-0.259 -0.034,-0.356c-0.008,-0.196 -0.004,-0.293 0.018,-0.241c0.041,0.105 0.086,0.659 0.258,1.342c0.09,0.34 0.209,0.711 0.36,1.072c0.15,0.362 0.336,0.709 0.524,1.013l-0.056,-0.1l-0.053,-0.104l-0.108,-0.21l-0.101,-0.218l-0.051,-0.109c-0.015,-0.038 -0.031,-0.075 -0.046,-0.113c-0.132,-0.299 -0.238,-0.616 -0.334,-0.936l-0.065,-0.243c-0.023,-0.081 -0.037,-0.163 -0.056,-0.245c-0.039,-0.162 -0.062,-0.328 -0.089,-0.49c-0.043,-0.328 -0.072,-0.652 -0.068,-0.965c0.005,0.073 0.009,0.139 0.015,0.202l0.025,0.19c0.009,0.065 0.014,0.134 0.027,0.213c0.012,0.079 0.024,0.168 0.037,0.273c0.075,0.531 0.213,1.051 0.403,1.55c0.183,0.502 0.386,0.94 0.667,1.33l0.075,0.118c0.05,0.079 0.093,0.157 0.146,0.237c0.061,0.087 0.117,0.151 0.162,0.21c0.048,0.058 0.088,0.11 0.133,0.159l0.33,0.387c0.006,-0 -0.003,-0.015 -0.019,-0.037c0.055,0.065 0.113,0.128 0.174,0.188c0.067,0.065 0.132,0.136 0.187,0.193c0.012,-0 0.024,-0.001 0.052,0.017c0.759,0.685 1.667,1.22 2.666,1.523l0.222,0.067l0.224,0.055l0.111,0.027l0.113,0.022l0.223,0.043c0.128,0.02 0.257,0.04 0.388,0.057l0.2,0.018c0.067,0.006 0.134,0.014 0.203,0.014c0.136,0.006 0.257,0.03 0.321,0.034c0.354,-0.009 0.706,-0.041 1.116,-0.108c0.032,-0.004 0.082,-0.011 0.14,-0.018c0.057,-0.008 0.123,-0.015 0.187,-0.027c0.074,-0.023 0.153,-0.046 0.236,-0.069c0.507,-0.122 0.993,-0.304 1.45,-0.532l-0,0.002l0.175,-0.087l0.178,-0.1c0.122,-0.066 0.241,-0.146 0.364,-0.223c0.062,-0.038 0.119,-0.084 0.18,-0.125c0.059,-0.043 0.121,-0.082 0.178,-0.129c0.115,-0.091 0.232,-0.178 0.339,-0.274c0.172,-0.147 0.339,-0.302 0.498,-0.463c0.004,-0.003 0.007,-0.007 0.011,-0.01l0.003,-0.004l0.109,-0.116l0.103,-0.121l0.104,-0.122c0.034,-0.041 0.065,-0.084 0.098,-0.126c-0.015,0.03 -0.013,0.041 -0.012,0.053c-0.051,0.057 -0.112,0.126 -0.172,0.193c0.101,-0.107 0.188,-0.204 0.26,-0.283c0.027,-0.041 0.056,-0.081 0.084,-0.125l0.085,-0.134l0.092,-0.14l0.089,-0.149c0.161,-0.244 0.3,-0.502 0.431,-0.764c0.059,-0.134 0.126,-0.265 0.177,-0.402l0.082,-0.205l0.072,-0.209c0.022,-0.045 0.015,-0.003 0.019,0.004c0.079,-0.247 0.139,-0.502 0.19,-0.758c0.101,-0.464 0.561,-1.484 0.516,-0.89c0.096,-0.79 0.057,-1.401 0.067,-0.825c0.009,0.22 0.001,0.439 -0.004,0.642c-0.014,0.203 -0.022,0.389 -0.039,0.541c0.072,-0.561 0.079,-1.034 0.066,-1.479c0.057,0.968 -0.064,1.964 -0.383,2.916c0.174,-0.517 0.307,-1.069 0.37,-1.63c0.063,-0.561 0.013,-1.286 0.013,-1.286c-0.048,-0.878 0.212,0.286 0.165,0.944c-0.024,0.372 -0.082,0.816 -0.171,1.215l-0.07,0.288c-0.025,0.092 -0.053,0.179 -0.077,0.261l-0.035,0.118l-0.038,0.106l-0.065,0.178c-0.212,0.534 -0.49,1.049 -0.825,1.535c-0.335,0.485 -0.728,0.942 -1.179,1.348l-0.17,0.152l-0.177,0.145l-0.089,0.073l-0.092,0.069l-0.186,0.137c-0.253,0.175 -0.514,0.346 -0.791,0.492c-0.273,0.152 -0.562,0.281 -0.858,0.399c-0.149,0.054 -0.297,0.113 -0.452,0.158c-0.076,0.023 -0.152,0.05 -0.23,0.071l-0.234,0.061c-0.56,0.146 -1.15,0.218 -1.744,0.221c-0.594,0.003 -1.195,-0.061 -1.779,-0.208l-0.219,-0.057c-0.073,-0.018 -0.144,-0.044 -0.216,-0.065c-0.072,-0.024 -0.145,-0.043 -0.215,-0.07l-0.212,-0.078c-0.071,-0.024 -0.141,-0.054 -0.21,-0.084l-0.208,-0.088l-0.203,-0.099c-0.067,-0.032 -0.135,-0.064 -0.201,-0.102l-0.197,-0.108c-0.067,-0.035 -0.129,-0.077 -0.193,-0.115c-0.064,-0.04 -0.129,-0.077 -0.191,-0.119l-0.185,-0.126c-0.063,-0.041 -0.122,-0.086 -0.182,-0.131l-0.178,-0.134l-0.172,-0.142c-0.057,-0.047 -0.115,-0.094 -0.168,-0.145c-0.441,-0.395 -0.836,-0.832 -1.168,-1.302c-0.325,-0.461 -0.601,-0.955 -0.823,-1.474c-0.438,-1.014 -0.59,-2.064 -0.472,-1.514Zm13.692,2.293c0.214,-0.387 0.392,-0.792 0.534,-1.21c0.016,-0.046 0.032,-0.092 0.047,-0.139c0.321,-1.013 0.347,-2.428 0.336,-2.085c-0.011,0.396 -0.059,0.789 -0.134,1.176c-0.145,0.776 -0.422,1.523 -0.795,2.214c0.034,-0.057 0.071,-0.119 0.108,-0.185c0.041,-0.068 0.078,-0.138 0.113,-0.209l-0.045,0.094l-0.048,0.091l-0.097,0.183c-0.067,0.121 -0.14,0.239 -0.21,0.358c-0.077,0.114 -0.149,0.232 -0.23,0.344c-0.061,0.083 -0.119,0.167 -0.181,0.249c0.221,-0.274 0.425,-0.566 0.602,-0.881Zm-5.405,3.724c0.118,-0.016 0.236,-0.037 0.354,-0.056c0.096,-0.016 0.192,-0.038 0.287,-0.057c0.028,-0.003 0.059,-0.008 0.096,-0.015c0.038,-0.008 0.083,-0.022 0.141,-0.04c0.435,-0.109 0.829,-0.253 1.106,-0.39c0.532,-0.252 1.021,-0.552 1.46,-0.888c0.439,-0.336 0.827,-0.708 1.149,-1.107c0.148,-0.189 0.103,-0.146 0.021,-0.054l0.123,-0.153c-0.055,0.064 -0.108,0.129 -0.164,0.192l-0.172,0.183c0.042,-0.043 0.144,-0.146 0.213,-0.222c-0.547,0.657 -1.203,1.219 -1.928,1.652c-0.725,0.433 -1.519,0.728 -2.325,0.886c0.13,-0.026 0.194,-0.034 0.255,-0.041c-0.087,0.018 -0.174,0.039 -0.262,0.054c-0.119,0.018 -0.237,0.038 -0.355,0.053l-0.351,0.037c0.116,-0.009 0.234,-0.022 0.352,-0.034Z" style="fill:#835ff1;fill-rule:nonzero;"/><path d="M10.049,4.007c0.484,0.033 0.209,0.44 -0.044,0.726c-0.264,0.286 -1.616,1.451 -3.704,3.199c-0.979,0.824 -2.705,2.319 -3.155,2.682c0.725,-0.154 2.165,-0.319 4.001,-0.22c2.737,0.143 5.013,0.616 5.925,1.385c0.264,0.231 0.11,0.33 -0.099,0.154c-0.703,-0.604 -3.44,-1.187 -5.837,-1.286c-1.715,-0.077 -2.88,0.033 -4.023,0.253c-0.297,0.055 -0.418,-0.253 -0.11,-0.484c0.407,-0.297 0.758,-0.758 3.177,-2.693c1.627,-1.297 3.287,-2.726 3.616,-3.089c0.33,-0.352 0.308,-0.429 0.176,-0.451c-0.604,-0.055 -2.198,-0.077 -3.671,0.088c-3.078,0.341 -3.276,1.143 -2.793,1.671c0.154,0.165 -0.044,0.286 -0.23,0.154c-0.396,-0.286 -0.77,-1.66 2.979,-2.045c1.561,-0.154 3.1,-0.099 3.792,-0.044Z" style="fill:#835ff1;fill-rule:nonzero;"/></g></svg>