<?xml version="1.0" encoding="UTF-8" standalone="no"?><!DOCTYPE svg PUBLIC "-//W3C//DTD SVG 1.1//EN" "http://www.w3.org/Graphics/SVG/1.1/DTD/svg11.dtd"><svg width="100%" height="100%" viewBox="0 0 371 290" version="1.1" xmlns="http://www.w3.org/2000/svg" xmlns:xlink="http://www.w3.org/1999/xlink" xml:space="preserve" xmlns:serif="http://www.serif.com/" style="fill-rule:evenodd;clip-rule:evenodd;stroke-linejoin:round;stroke-miterlimit:2;"><g><g><path d="M106.251,173.554c2.077,2.436 4.268,4.773 6.566,7.002c7.744,7.623 16.98,14.03 26.887,18.876c3.651,1.709 7.018,3.48 10.963,5.004c0.986,0.379 1.993,0.784 3.051,1.15c1.068,0.338 2.175,0.676 3.332,1.011c1.15,0.36 2.377,0.615 3.659,0.88c1.284,0.258 2.617,0.553 4.048,0.699c-7.101,-1.497 -14.023,-3.746 -20.648,-6.709c-6.667,-3.007 -13.001,-6.702 -18.9,-11.025c-11.816,-8.655 -21.921,-19.768 -29.303,-32.471c-0.305,-0.38 -0.767,-1.104 -1.322,-2.025l-0.891,-1.51l-0.9,-1.738c-0.598,-1.205 -1.287,-2.428 -1.815,-3.613c-0.473,-1.037 -0.968,-2.063 -1.485,-3.078c2.294,5.713 4.942,10.711 7.907,15.464c1.366,2.18 2.811,4.308 4.334,6.382c-0.215,-0.29 -0.439,-0.573 -0.653,-0.864c1.631,2.247 3.35,4.43 5.153,6.543l0.017,0.022Zm-5.172,-6.566l-0.14,-0.191l0.14,0.191Zm-18.711,-48.206l-0.541,-4.341c0.287,2.649 0.619,5.61 1.228,8.574l-0.367,-2.105c-0.135,-0.705 -0.242,-1.415 -0.32,-2.128Zm94.626,89.088c7.451,0.753 15.265,0.528 22.919,-0.683c7.658,-1.206 15.149,-3.345 22.112,-6.103c-12.825,5.044 -26.437,7.287 -39.753,6.912c-1.782,-0.028 -3.539,0 -5.278,-0.126Z" style="fill:#835ff1;fill-rule:nonzero;"/><path d="M177.005,207.709c-0.087,-0.006 -0.164,0.059 -0.171,0.147c-0.008,0.087 0.056,0.164 0.144,0.173c7.464,0.755 15.292,0.53 22.96,-0.683c7.67,-1.208 15.172,-3.351 22.147,-6.113c0.082,-0.033 0.122,-0.126 0.09,-0.208c-0.033,-0.083 -0.126,-0.123 -0.208,-0.091c-12.805,5.036 -26.396,7.276 -39.691,6.902c-0,-0 -0.001,-0 -0.002,-0c-1.779,-0.028 -3.532,-0 -5.269,-0.127Zm-76.176,-40.831l-0.02,0.015l0.14,0.19l0.001,-0.001l0.001,0.001c1.634,2.25 3.354,4.436 5.159,6.551l0.016,0.02l0.004,0.005l-0.001,-0.001c2.08,2.44 4.274,4.78 6.575,7.013c7.757,7.634 17.007,14.051 26.93,18.905c0.001,0 0.002,0 0.002,0.001c3.654,1.711 7.025,3.483 10.973,5.009c0,0 0.001,0 0.001,0c0.987,0.379 1.996,0.785 3.056,1.151c0.001,0.001 0.003,0.001 0.004,0.002c1.068,0.338 2.176,0.677 3.333,1.012c1.155,0.361 2.386,0.617 3.674,0.884c-0,-0 0,-0 0.001,-0c1.288,0.258 2.626,0.554 4.063,0.701c0.085,0.009 0.162,-0.05 0.175,-0.135c0.013,-0.084 -0.042,-0.164 -0.126,-0.182c-7.09,-1.494 -14.001,-3.74 -20.615,-6.699c-6.657,-3.002 -12.981,-6.691 -18.871,-11.007c-11.798,-8.642 -21.889,-19.738 -29.259,-32.423c-0.004,-0.007 -0.009,-0.013 -0.014,-0.02c-0.302,-0.376 -0.76,-1.093 -1.309,-2.007c-0,0 -0.889,-1.505 -0.889,-1.505c-0,-0 -0.897,-1.732 -0.897,-1.732c-0.597,-1.203 -1.284,-2.424 -1.811,-3.607c-0,0 -0,-0 -0.001,-0.001c-0.474,-1.038 -0.97,-2.067 -1.488,-3.084c-0.039,-0.077 -0.131,-0.109 -0.209,-0.073c-0.078,0.035 -0.115,0.126 -0.083,0.205c2.298,5.724 4.95,10.73 7.92,15.49c0,0 0,0 0,0c1.134,1.81 2.323,3.585 3.565,5.322Zm51.154,37.896c2.261,0.792 4.549,1.505 6.86,2.137c-0.599,-0.14 -1.181,-0.291 -1.745,-0.467c-0.002,-0 -0.003,-0.001 -0.004,-0.001c-1.155,-0.334 -2.26,-0.672 -3.325,-1.01c-0.611,-0.21 -1.204,-0.434 -1.786,-0.659Zm-58.064,-49.64l0.528,0.894c0.555,0.923 1.019,1.649 1.327,2.034c7.391,12.718 17.51,23.844 29.34,32.51c0.41,0.3 0.822,0.598 1.236,0.892c-4.81,-3.299 -9.324,-6.99 -13.421,-11.022c-0,-0.001 -0,-0.001 -0.001,-0.001c-2.293,-2.225 -4.48,-4.558 -6.553,-6.989l-0.019,-0.024c-1.551,-1.819 -3.04,-3.688 -4.465,-5.606c-0.004,-0.023 -0.013,-0.045 -0.028,-0.064c-1.52,-2.07 -2.963,-4.196 -4.327,-6.372c-1.264,-2.027 -2.471,-4.099 -3.617,-6.252Zm12.484,18.369c0.013,0.038 0.012,0.08 -0.006,0.118c-0.026,0.057 -0.083,0.094 -0.146,0.094c0,-0 0.19,-0.091 0.152,-0.212Zm-0.023,-0.045l0.001,0.002l-0.001,-0.002Zm-23.853,-54.694c0,-0.001 0,-0.001 0,-0.002l-0.541,-4.341c-0.011,-0.087 -0.09,-0.149 -0.178,-0.139c-0.087,0.01 -0.15,0.089 -0.141,0.176c0.288,2.654 0.621,5.62 1.23,8.589c0.018,0.086 0.101,0.142 0.187,0.125c0.087,-0.016 0.144,-0.098 0.129,-0.185l-0.367,-2.105c0,-0 0,-0.001 -0,-0.002c-0.134,-0.701 -0.241,-1.407 -0.319,-2.116Z" style="fill:#835ff1;"/><path d="M81.866,93.511c0.95,-7.729 2.972,-15.263 4.895,-20.282l-0.778,3.674c0.48,-1.076 1.256,-3.578 2.315,-6.224l0.764,-2.019l0.843,-1.957c0.56,-1.267 1.031,-2.467 1.527,-3.388c-0.339,0.863 -0.666,1.794 -1.061,2.728c-0.386,0.938 -0.82,1.89 -1.233,2.848l1.696,-3.819c-1.711,4.287 -3.184,8.665 -4.412,13.114c-1.269,4.875 -2.273,9.998 -2.813,14.597c-0.157,1.147 -0.212,2.267 -0.314,3.336c-0.075,1.069 -0.205,2.088 -0.215,3.051c-0.047,1.926 -0.112,3.612 -0.079,4.96c0.117,2.699 0.28,4.044 0.514,3.292c0.46,-1.493 0.451,-9.171 2.058,-18.781c0.859,-4.79 2.092,-10.043 3.766,-15.19c1.661,-5.152 3.838,-10.146 6.093,-14.553l-0.663,1.447l-0.61,1.491l-1.251,3.014l-1.147,3.114l-0.583,1.571c-0.172,0.533 -0.345,1.069 -0.517,1.606c-1.478,4.265 -2.584,8.755 -3.547,13.282l-0.626,3.418c-0.23,1.136 -0.327,2.292 -0.498,3.436c-0.356,2.286 -0.486,4.589 -0.684,6.865c-0.223,4.564 -0.268,9.071 0.146,13.381c-0.017,-1.024 -0.034,-1.933 -0.019,-2.814l0.128,-2.637c0.054,-0.907 0.044,-1.868 0.129,-2.969c0.079,-1.101 0.15,-2.342 0.213,-3.811c0.438,-7.401 1.761,-14.729 3.818,-21.821c1.96,-7.122 4.272,-13.393 7.716,-19.076l0.897,-1.709c0.607,-1.147 1.113,-2.279 1.755,-3.432c0.731,-1.266 1.431,-2.214 1.998,-3.082c0.583,-0.859 1.079,-1.614 1.645,-2.346l4.125,-5.693c0.084,-0.01 -0.025,0.207 -0.224,0.53c0.68,-0.969 1.412,-1.9 2.194,-2.789c0.846,-0.98 1.667,-2.02 2.362,-2.878c0.164,-0.008 0.323,-0.012 0.698,-0.281c9.689,-10.302 21.613,-18.697 35.05,-23.99l2.988,-1.164l3.024,-1.007l1.504,-0.502l1.524,-0.425l3.035,-0.844c1.737,-0.418 3.495,-0.841 5.289,-1.222l2.729,-0.477c0.918,-0.158 1.84,-0.336 2.783,-0.423c1.875,-0.226 3.51,-0.701 4.392,-0.817c4.894,-0.279 9.779,-0.223 15.513,0.242c0.444,0.008 1.137,0.048 1.94,0.092c0.803,0.046 1.721,0.068 2.612,0.15c1.044,0.235 2.158,0.468 3.328,0.695c7.134,1.107 14.032,3.085 20.595,5.717l-0.008,-0.032l2.513,1.002l2.565,1.185c1.76,0.766 3.484,1.746 5.265,2.669c0.894,0.456 1.741,1.013 2.619,1.517c0.862,0.531 1.765,1.001 2.599,1.581c1.689,1.123 3.402,2.197 4.98,3.396c2.545,1.837 5.011,3.779 7.393,5.823c0.051,0.047 0.105,0.091 0.157,0.137l0.047,0.042l1.632,1.481l1.561,1.558l1.563,1.559c0.517,0.523 0.997,1.084 1.497,1.623c-0.242,-0.392 -0.233,-0.55 -0.224,-0.705c-0.771,-0.74 -1.684,-1.614 -2.586,-2.476c1.504,1.369 2.817,2.607 3.895,3.617c0.415,0.531 0.869,1.053 1.299,1.623l1.328,1.754l1.413,1.825l1.406,1.963c2.493,3.178 4.694,6.579 6.784,10.047c0.968,1.779 2.036,3.507 2.897,5.348l1.359,2.728l1.223,2.797c0.352,0.597 0.215,0.025 0.259,-0.076c1.372,3.318 2.475,6.768 3.474,10.245c1.91,6.283 3.189,12.741 3.818,19.279c0.252,1.543 0.359,3.105 0.582,4.652l-0.137,3.275c-0.002,1.235 0.063,2.471 0.011,3.709l-0.144,3.725c-0.018,0.84 -0.139,1.758 -0.209,2.755c-0.094,0.994 -0.144,2.067 -0.287,3.199l-0.461,3.575c-0.148,1.254 -0.434,2.542 -0.653,3.888c-1.094,5.912 -2.71,11.716 -4.83,17.342c-0.272,0.925 -0.479,1.665 -0.664,2.078c-0.702,1.681 -1.451,3.309 -2.175,4.912c-0.81,1.561 -1.552,3.123 -2.382,4.601c-2.567,4.868 -5.546,9.507 -8.904,13.866c-0.377,0.492 -0.727,0.992 -1.106,1.453l-1.118,1.351c-0.739,0.873 -1.4,1.745 -2.101,2.503c-1.402,1.514 -2.578,2.919 -3.681,3.975c-1.264,1.319 -1.15,1.381 -0.276,0.745c0.614,-0.454 1.215,-0.925 1.802,-1.414l2.377,-2.144c0.869,-0.758 1.701,-1.614 2.503,-2.42c0.793,-0.812 1.586,-1.553 2.198,-2.223c1.233,-1.334 2.043,-2.157 1.87,-1.791c-1.99,3.747 -5.615,8.369 -10.913,13.481c-2.703,2.495 -5.744,5.205 -9.341,7.819c-1.754,1.367 -3.704,2.618 -5.692,3.985c-2.055,1.258 -4.154,2.636 -6.449,3.859c-5.023,2.735 3.769,-1.652 4.007,-1.694c-0.848,0.668 -1.738,1.282 -2.663,1.837c-1.655,0.881 -3.296,1.789 -5.011,2.546c-1.003,0.461 -1.988,0.958 -3.001,1.388l-3.057,1.257l1.617,-0.636c3.307,-1.314 6.397,-2.862 9.188,-4.393c-1.049,0.634 -2.196,1.367 -3.453,2.029c-1.347,0.697 -2.742,1.459 -4.141,2.139l-4.06,1.888c14.526,-5.277 27.874,-14.009 38.442,-25.393c5.29,-5.675 10.008,-11.909 13.855,-18.652c3.87,-6.729 6.984,-13.867 9.283,-21.281c-3.532,11.123 -9.04,21.341 -15.66,29.98c12.035,-16.25 19.21,-36.172 20.161,-56.719c-0.001,1.132 -0.113,2.26 -0.188,3.388c-0.093,1.128 -0.138,2.261 -0.27,3.385c-0.288,2.246 -0.494,4.505 -0.926,6.731c-0.699,4.481 -1.833,8.884 -3.117,13.235c2.534,-7.865 4.048,-16.157 4.643,-24.496c0.621,-8.347 0.103,-16.743 -1.184,-24.88c2.212,10.778 2.578,22.99 0.694,35.058c1.324,-7.784 1.66,-15.807 1.151,-23.762c-0.114,-3.039 -0.472,-6.057 -0.767,-8.851c-0.422,-2.773 -0.742,-5.334 -1.15,-7.405c1.618,7.646 2.257,14.168 2.568,20.315c-0.299,-13.416 -3.078,-27.009 -8.535,-39.777c2.978,6.935 5.423,14.395 6.917,22.064c1.501,7.662 2.124,15.501 1.769,23.041c-0.016,-0.882 0.021,-1.764 -0.031,-2.65l-0.12,-2.678c0.322,12.153 -1.55,24.199 -5.26,35.527c-1.862,5.664 -4.161,11.167 -6.945,16.404c-2.778,5.228 -5.985,10.217 -9.588,14.915c4.114,-4.805 8.458,-11.598 11.925,-19.059c3.451,-7.477 6.013,-15.563 7.775,-22.625c-2.592,12.682 -7.737,25.196 -15.202,36.372c-7.444,11.184 -17.195,21.018 -28.477,28.565c-11.269,7.571 -24.054,12.811 -37.174,15.4c-6.515,1.294 -13.137,1.972 -19.778,2.026c-6.521,0.035 -13.031,-0.533 -19.447,-1.697l3.366,0.64c1.122,0.213 2.261,0.33 3.39,0.498c2.258,0.363 4.542,0.5 6.818,0.709c4.562,0.257 9.149,0.343 13.722,-0.005c4.58,-0.243 9.131,-0.927 13.661,-1.761c2.247,-0.511 4.521,-0.929 6.74,-1.584c1.113,-0.311 2.24,-0.584 3.345,-0.93l3.31,-1.073c-1.671,0.518 -3.429,1.203 -5.308,1.706l-2.353,0.692c4.939,-1.316 9.772,-3 14.461,-5.036c2.144,-0.935 4.256,-1.946 6.33,-3.03c-3.886,2.062 -7.894,3.884 -12.002,5.458c-7.832,2.923 -15.972,4.945 -24.262,6.028c-1.243,0.197 -2.377,0.259 -3.393,0.365l-2.719,0.269c-1.601,0.127 -2.783,0.184 -3.609,0.275c-1.655,0.164 -1.89,0.318 -1.231,0.444c0.657,0.127 2.207,0.228 4.114,0.281c1.901,-0.011 4.156,-0.113 6.207,-0.3c20.607,-2.113 39.527,-10.201 54.689,-22.308c15.172,-12.11 26.793,-28.196 33.269,-46.449c0.407,-1.06 0.719,-2.153 1.058,-3.237c0.328,-1.088 0.691,-2.164 0.988,-3.262c0.55,-2.207 1.2,-4.388 1.622,-6.628l0.693,-3.344l0.545,-3.373l0.27,-1.688l0.193,-1.7l0.383,-3.398c0.782,-9.089 0.473,-18.275 -0.909,-27.29c-0.74,-5.101 -2.039,-11.158 -3.714,-16.552l-1.288,-3.903c-0.448,-1.24 -0.924,-2.409 -1.347,-3.509l-0.624,-1.585l-0.64,-1.424l-1.099,-2.379c-3.51,-7.123 -7.921,-13.917 -13.085,-20.235c-5.158,-6.321 -11.085,-12.174 -17.767,-17.271l-2.513,-1.907l-2.607,-1.801l-1.306,-0.903l-1.347,-0.847l-2.708,-1.689c-3.691,-2.133 -7.471,-4.188 -11.457,-5.893c-3.944,-1.79 -8.071,-3.243 -12.273,-4.542c-2.122,-0.583 -4.235,-1.233 -6.411,-1.68c-1.085,-0.234 -2.16,-0.518 -3.257,-0.714l-3.297,-0.584c-7.886,-1.388 -16.089,-1.718 -24.284,-1.102c-8.19,0.633 -16.415,2.188 -24.302,4.872l-2.952,1.022c-0.987,0.333 -1.938,0.764 -2.909,1.142c-0.961,0.402 -1.943,0.753 -2.886,1.197l-2.837,1.314c-0.954,0.421 -1.876,0.905 -2.796,1.395l-2.765,1.452l-2.691,1.582c-0.896,0.529 -1.799,1.045 -2.657,1.633l-2.603,1.712c-0.876,0.556 -1.687,1.207 -2.533,1.805c-0.83,0.621 -1.691,1.199 -2.493,1.853l-2.416,1.946c-0.817,0.633 -1.587,1.319 -2.356,2.007l-2.311,2.05l-2.207,2.149c-0.735,0.716 -1.478,1.424 -2.162,2.186c-5.636,5.934 -10.587,12.409 -14.636,19.259c-3.971,6.721 -7.225,13.84 -9.708,21.24c-4.901,14.473 -5.817,29.123 -4.809,21.398Zm158.087,101.312c3.404,-2.2 6.682,-4.589 9.818,-7.156c-3.181,2.62 -6.45,5.039 -9.818,7.156Zm45.049,-60.803c-0.335,1.009 -0.619,2.006 -0.988,2.958l-1.072,2.826l-0.522,1.398l-0.575,1.379c-0.384,0.929 -0.756,1.863 -1.117,2.802c-2.074,5.165 -4.54,10.165 -7.378,14.954c-2.824,4.788 -6.097,9.275 -9.594,13.486c-1.727,2.127 -3.609,4.1 -5.459,6.072l-2.891,2.826c-0.949,0.95 -1.988,1.797 -2.971,2.693c-0.825,0.717 -1.656,1.418 -2.492,2.108c3.107,-2.552 6.061,-5.287 8.844,-8.19c-4.027,4.174 -8.408,7.992 -13.093,11.412c-1.161,0.808 -2.282,1.675 -3.487,2.437l-3.637,2.318l-3.842,2.183c-1.307,0.726 -2.687,1.371 -4.071,2.078c0.991,-0.584 1.994,-1.147 3.008,-1.689c1.143,-0.636 2.343,-1.386 3.515,-2.073c1.18,-0.673 2.253,-1.412 3.145,-2.03c0.892,-0.619 1.591,-1.132 1.955,-1.463c-0.52,0.352 -1.049,0.691 -1.575,1.035c0.566,-0.374 1.129,-0.753 1.688,-1.137c-0.024,0.025 -0.073,0.066 -0.113,0.102c12.245,-8.363 22.677,-19.353 30.493,-31.882c7.851,-12.517 12.96,-26.638 15.077,-40.998c-0.459,5.76 -1.514,10.359 -2.848,14.395Zm-16.917,-87.427c3.371,5.092 6.285,10.471 8.707,16.077c0.28,0.615 0.545,1.238 0.806,1.863c5.559,13.615 8.088,28.219 7.717,42.606c0.094,-4.761 -0.221,-9.519 -0.749,-14.237c-0.597,-5.437 -1.7,-10.809 -3.163,-16.064c-2.87,-10.537 -7.531,-20.524 -13.447,-29.629c0.543,0.751 1.115,1.564 1.708,2.427c0.634,0.892 1.228,1.813 1.781,2.759l-0.715,-1.243l-0.772,-1.208l-1.543,-2.415c-1.051,-1.595 -2.19,-3.132 -3.287,-4.696c-1.189,-1.494 -2.317,-3.038 -3.555,-4.493c-0.936,-1.067 -1.834,-2.171 -2.784,-3.225c3.352,3.534 6.498,7.326 9.296,11.478Zm-78.687,-45.302c1.643,0.087 3.29,0.247 4.937,0.37c1.348,0.113 2.69,0.313 4.019,0.463c0.398,0.017 0.82,0.044 1.348,0.103c0.528,0.073 1.158,0.208 1.982,0.397c6.126,1.021 11.715,2.557 15.683,4.143c7.614,2.882 14.699,6.468 21.126,10.609c6.428,4.133 12.197,8.834 17.077,13.969c2.249,2.441 1.593,1.909 0.353,0.724l1.862,1.976c-0.825,-0.823 -1.635,-1.656 -2.471,-2.46l-2.578,-2.341c0.627,0.548 2.149,1.862 3.187,2.825c-8.277,-8.445 -17.951,-15.457 -28.423,-20.615c-10.48,-5.156 -21.766,-8.341 -33.047,-9.612c1.813,0.201 2.702,0.246 3.549,0.269c-1.215,-0.143 -2.434,-0.338 -3.667,-0.45c-1.657,-0.108 -3.31,-0.256 -4.955,-0.337l-4.884,-0.115c1.618,-0.001 3.257,0.044 4.902,0.082Z" style="fill:#835ff1;fill-rule:nonzero;"/><path d="M81.948,128.089c1.571,7.627 4.196,14.973 6.519,19.82l-1.073,-3.599c0.566,1.034 1.542,3.465 2.811,6.017l0.924,1.95l0.999,1.883c0.661,1.217 1.227,2.376 1.796,3.253c-0.408,-0.833 -0.809,-1.734 -1.278,-2.633c-0.461,-0.904 -0.97,-1.818 -1.459,-2.739l1.999,3.669c-2.052,-4.134 -3.875,-8.378 -5.458,-12.714c-1.659,-4.756 -3.074,-9.781 -3.984,-14.322c-0.249,-1.131 -0.394,-2.243 -0.582,-3.299c-0.162,-1.06 -0.374,-2.065 -0.462,-3.024c-0.202,-1.916 -0.403,-3.591 -0.48,-4.938c-0.101,-2.699 -0.048,-4.053 0.246,-3.323c0.58,1.451 1.192,9.106 3.57,18.554c1.244,4.704 2.898,9.841 4.982,14.836c2.072,5 4.646,9.802 7.25,14.012l-0.778,-1.389l-0.729,-1.436l-1.49,-2.904l-1.395,-3.011l-0.708,-1.518c-0.214,-0.517 -0.431,-1.037 -0.645,-1.559c-1.818,-4.131 -3.284,-8.517 -4.61,-12.951l-0.9,-3.357c-0.321,-1.113 -0.512,-2.258 -0.774,-3.384c-0.54,-2.25 -0.855,-4.535 -1.237,-6.787c-0.591,-4.531 -1,-9.02 -0.937,-13.35c0.066,1.022 0.123,1.93 0.209,2.807l0.341,2.618c0.127,0.899 0.195,1.858 0.369,2.949c0.167,1.091 0.339,2.322 0.52,3.781c1.035,7.342 2.946,14.539 5.569,21.441c2.53,6.94 5.342,13.004 9.234,18.389l1.033,1.632c0.698,1.094 1.293,2.181 2.026,3.279c0.831,1.202 1.605,2.09 2.241,2.909c0.651,0.81 1.205,1.522 1.829,2.206l4.572,5.341c0.084,0.003 -0.042,-0.205 -0.267,-0.51c0.757,0.911 1.562,1.78 2.413,2.602c0.922,0.909 1.825,1.879 2.587,2.678c0.164,-0.006 0.323,-0.014 0.719,0.223c10.49,9.485 23.054,16.889 36.875,21.078l3.072,0.918l3.096,0.759l1.54,0.379l1.552,0.301l3.094,0.595c1.765,0.276 3.552,0.556 5.37,0.791l2.759,0.255c0.927,0.083 1.861,0.186 2.808,0.197c1.887,0.072 3.555,0.414 4.444,0.458c4.9,-0.117 9.764,-0.568 15.442,-1.495c0.443,-0.044 1.129,-0.14 1.926,-0.249c0.797,-0.11 1.711,-0.207 2.592,-0.36c1.021,-0.319 2.113,-0.642 3.26,-0.963c7.022,-1.68 13.737,-4.209 20.066,-7.362l-0.006,0.032l2.425,-1.202l2.461,-1.388c1.692,-0.906 3.331,-2.023 5.031,-3.087c0.854,-0.526 1.653,-1.15 2.488,-1.723c0.817,-0.599 1.679,-1.141 2.462,-1.787c1.593,-1.255 3.213,-2.464 4.689,-3.788c2.388,-2.036 4.69,-4.171 6.898,-6.401c0.048,-0.051 0.098,-0.099 0.146,-0.149l0.043,-0.046l1.507,-1.608l1.43,-1.679l1.432,-1.681c0.473,-0.563 0.906,-1.16 1.361,-1.738c-0.209,0.41 -0.188,0.567 -0.166,0.721c-0.709,0.799 -1.549,1.745 -2.378,2.677c1.389,-1.486 2.597,-2.826 3.59,-3.92c0.371,-0.563 0.781,-1.12 1.164,-1.723l1.182,-1.856l1.26,-1.933l1.243,-2.07c2.228,-3.37 4.147,-6.937 5.95,-10.563c0.821,-1.851 1.745,-3.66 2.455,-5.564l1.133,-2.83l0.993,-2.887c0.303,-0.623 0.213,-0.042 0.264,0.055c1.1,-3.417 1.92,-6.945 2.635,-10.492c1.396,-6.417 7.756,-20.525 7.131,-12.311c1.333,-10.921 0.789,-19.378 0.926,-11.408c0.131,3.039 0.018,6.075 -0.05,8.884c-0.196,2.798 -0.307,5.376 -0.547,7.474c0.995,-7.752 1.104,-14.304 0.917,-20.456c0.787,13.396 -0.884,27.169 -5.291,40.337c2.408,-7.153 4.242,-14.786 5.11,-22.552c0.877,-7.758 0.181,-17.785 0.181,-17.785c-0.662,-12.14 2.929,3.964 2.28,13.061c-0.324,5.144 -1.13,11.286 -2.363,16.799l-0.968,3.993c-0.346,1.273 -0.726,2.477 -1.059,3.607l-0.494,1.631l-0.522,1.47l-0.903,2.461c-2.923,7.383 -6.771,14.511 -11.407,21.227c-4.63,6.717 -10.064,13.03 -16.312,18.65l-2.351,2.105l-2.452,2.006l-1.229,1.005l-1.274,0.953l-2.562,1.903c-3.507,2.424 -7.109,4.778 -10.943,6.8c-3.786,2.103 -7.783,3.885 -11.866,5.519c-2.069,0.753 -4.122,1.571 -6.255,2.192c-1.062,0.321 -2.111,0.692 -3.188,0.976l-3.239,0.848c-7.748,2.021 -15.897,3.014 -24.115,3.062c-8.215,0.032 -16.539,-0.853 -24.617,-2.89l-3.025,-0.781c-1.01,-0.251 -1.993,-0.604 -2.991,-0.902c-0.991,-0.323 -1.998,-0.594 -2.974,-0.96l-2.933,-1.081c-0.986,-0.342 -1.944,-0.75 -2.9,-1.163l-2.874,-1.225l-2.81,-1.359c-0.936,-0.454 -1.877,-0.896 -2.78,-1.413l-2.733,-1.495c-0.918,-0.484 -1.779,-1.067 -2.67,-1.595c-0.878,-0.552 -1.783,-1.058 -2.635,-1.645l-2.566,-1.744c-0.865,-0.565 -1.689,-1.187 -2.51,-1.81l-2.469,-1.857l-2.375,-1.964c-0.79,-0.654 -1.587,-1.299 -2.331,-2.003c-6.097,-5.459 -11.555,-11.512 -16.145,-18.013c-4.501,-6.378 -8.32,-13.21 -11.394,-20.386c-6.055,-14.028 -8.153,-28.556 -6.523,-20.939Zm189.403,31.707c2.948,-5.347 5.417,-10.945 7.378,-16.727c0.23,-0.636 0.443,-1.279 0.653,-1.923c4.44,-14.019 4.796,-33.585 4.651,-28.839c-0.155,5.467 -0.821,10.911 -1.854,16.267c-2.008,10.734 -5.846,21.066 -11.007,30.619c0.481,-0.792 0.985,-1.649 1.506,-2.557c0.56,-0.941 1.078,-1.906 1.552,-2.894l-0.612,1.296l-0.671,1.267l-1.343,2.532c-0.919,1.675 -1.93,3.299 -2.896,4.946c-1.065,1.586 -2.065,3.216 -3.181,4.766c-0.847,1.14 -1.652,2.312 -2.513,3.439c3.054,-3.793 5.884,-7.827 8.337,-12.192Zm-74.767,51.517c1.631,-0.22 3.26,-0.513 4.891,-0.768c1.335,-0.222 2.656,-0.53 3.968,-0.787c0.396,-0.049 0.814,-0.109 1.336,-0.211c0.52,-0.116 1.138,-0.302 1.943,-0.556c6.023,-1.513 11.471,-3.496 15.297,-5.398c7.356,-3.488 14.128,-7.635 20.199,-12.282c6.073,-4.64 11.442,-9.792 15.892,-15.304c2.044,-2.615 1.433,-2.032 0.293,-0.75l1.696,-2.12c-0.756,0.886 -1.495,1.782 -2.264,2.651l-2.38,2.542c0.581,-0.597 1.991,-2.03 2.948,-3.073c-7.567,9.086 -16.643,16.858 -26.664,22.846c-10.028,5.986 -21.019,10.073 -32.16,12.252c1.79,-0.347 2.673,-0.464 3.515,-0.555c-1.2,0.24 -2.399,0.533 -3.619,0.745c-1.643,0.242 -3.279,0.523 -4.911,0.736l-4.859,0.51c1.613,-0.13 3.242,-0.307 4.879,-0.478Z" style="fill:#835ff1;fill-rule:nonzero;"/><path d="M213.679,51.428c6.69,0.456 2.889,6.083 -0.609,10.036c-3.649,3.954 -22.353,20.072 -51.244,44.25c-13.534,11.405 -37.407,32.085 -43.642,37.103c10.036,-2.129 29.956,-4.41 55.35,-3.041c37.864,1.977 69.34,8.515 81.961,19.16c3.65,3.193 1.521,4.561 -1.368,2.129c-9.732,-8.364 -47.595,-16.423 -80.745,-17.792c-23.721,-1.064 -39.84,0.456 -55.654,3.498c-4.106,0.76 -5.779,-3.498 -1.521,-6.691c5.626,-4.106 10.492,-10.492 43.946,-37.255c22.505,-17.943 45.466,-37.711 50.028,-42.729c4.562,-4.866 4.258,-5.931 2.433,-6.235c-8.363,-0.76 -30.412,-1.064 -50.788,1.217c-42.578,4.714 -45.315,15.814 -38.624,23.113c2.129,2.281 -0.608,3.954 -3.193,2.129c-5.474,-3.954 -10.645,-22.961 41.208,-28.284c21.593,-2.128 42.882,-1.368 52.462,-0.608Z" style="fill:#835ff1;fill-rule:nonzero;"/></g><path d="M8.443,283.096l27.645,-0l0,6.228l-36.088,-0l0,-5.571l27.023,-37.162l-26.954,0l0,-6.193l35.188,-0l0,5.64l-26.814,37.058Zm49.731,6.228l-0,-48.925l6.885,-0l0,48.925l-6.885,-0Zm63.571,-48.925l7.266,-0l-17.991,48.925l-7.197,-0l-17.923,-48.925l7.231,-0l14.325,40.483l14.289,-40.483Zm59.729,48.925l-4.083,-11.419l-21.868,0l-4.083,11.419l-7.162,-0l18.027,-48.925l8.304,-0l18.028,48.925l-7.163,-0Zm-23.805,-17.439l17.578,-0l-8.789,-24.671l-8.789,24.671Zm72.845,18.096c-13.875,0 -24.464,-9.55 -24.464,-25.154c0,-15.571 10.588,-25.085 24.464,-25.085c13.805,-0 24.428,9.515 24.428,25.085c-0,15.605 -10.623,25.154 -24.428,25.154Zm-0,-6.47c9.792,-0 17.542,-6.782 17.542,-18.685c0,-11.799 -7.75,-18.58 -17.542,-18.58c-9.827,0 -17.612,6.782 -17.612,18.58c-0,11.903 7.785,18.685 17.612,18.685Zm80.351,-43.112l6.852,-0l0,48.925l-7.439,-0l-25.571,-38.822l0,38.822l-6.816,-0l0,-48.925l7.37,-0l25.604,38.648l0,-38.648Zm59.8,6.193l-19.584,0l-0,15.224l17.265,0l0,6.159l-17.265,0l-0,15.121l19.584,-0l0,6.228l-26.609,-0l0,-48.925l26.609,0l0,6.194l0,-0.001Z" style="fill:#484848;fill-rule:nonzero;"/></g></svg>